<?xml version="1.0" standalone="no"?>
<!DOCTYPE svg PUBLIC "-//W3C//DTD SVG 1.1//EN" "http://www.w3.org/Graphics/SVG/1.1/DTD/svg11.dtd" >
<svg xmlns="http://www.w3.org/2000/svg">
<metadata></metadata>
<defs>
<font id="sintonybold" horiz-adv-x="1323" >
<font-face units-per-em="2048" ascent="1638" descent="-410" />
<missing-glyph horiz-adv-x="563" />
<glyph unicode="&#xfb01;" horiz-adv-x="1411" d="M90 993v178h127v80q0 336 354 336q133 0 234 -37l-68 -207q-73 29 -137 29q-57 0 -82.5 -30.5t-25.5 -90.5v-80h221v-178h-221v-993h-275v993h-127zM928 1468q0 160 153 160q158 0 158 -160q0 -31 -6 -56t-22 -49.5t-49 -38t-81 -13.5q-153 0 -153 157zM944 0v1171h275 v-1171h-275z" />
<glyph unicode="&#xfb02;" horiz-adv-x="1411" d="M90 993v178h127v80q0 336 354 336q133 0 234 -37l-68 -207q-73 29 -137 29q-57 0 -82.5 -30.5t-25.5 -90.5v-80h221v-178h-221v-993h-275v993h-127zM944 0v1540l275 37v-1577h-275z" />
<glyph horiz-adv-x="2048" />
<glyph horiz-adv-x="2048" />
<glyph unicode="&#xd;" horiz-adv-x="2048" />
<glyph unicode=" "  horiz-adv-x="563" />
<glyph unicode="&#x09;" horiz-adv-x="563" />
<glyph unicode="&#xa0;" horiz-adv-x="563" />
<glyph unicode="!" horiz-adv-x="610" d="M154 1122v373h303v-373l-70 -694h-164zM160 143q0 36 4 59.5t17.5 49.5t44.5 39.5t79 13.5q50 0 82 -13.5t45.5 -39.5t18 -50t4.5 -59q0 -34 -4.5 -57t-18 -49t-45.5 -39.5t-82 -13.5q-48 0 -79 13.5t-44.5 39.5t-17.5 49t-4 57z" />
<glyph unicode="&#x22;" horiz-adv-x="851" d="M98 1360v135h262v-135l-53 -404h-155zM492 1360v135h262v-135l-54 -404h-155z" />
<glyph unicode="#" horiz-adv-x="1667" d="M90 319l39 216h211l76 423h-211l39 216h211l88 475h276l-88 -475h359l88 475h276l-88 -475h211l-39 -216h-211l-76 -423h213l-39 -216h-213l-86 -475h-276l86 475h-358l-86 -475h-277l86 475h-211zM616 535h359l76 423h-359z" />
<glyph unicode="$" horiz-adv-x="1290" d="M135 416l242 18q0 -119 60 -179t206 -60q145 0 204.5 54t59.5 161q0 174 -200 206l-179 29q-201 30 -293 134.5t-92 293.5q0 193 97.5 301.5t316.5 128.5v223h186v-223q216 -18 309 -123t93 -303l-242 -18q0 118 -55 174.5t-189 56.5q-133 0 -187 -53.5t-54 -163.5 q0 -87 40 -137.5t134 -61.5l180 -24q209 -27 308.5 -137.5t99.5 -302.5q0 -386 -437 -420v-221h-186v221q-229 17 -325.5 121.5t-96.5 304.5z" />
<glyph unicode="%" horiz-adv-x="1998" d="M70 1083q0 98 14.5 171t50.5 135t104.5 94.5t168.5 32.5q81 0 141.5 -22.5t98 -60t60.5 -94t31.5 -118t8.5 -138.5q0 -80 -8.5 -141.5t-31.5 -118t-61 -93t-98 -58t-141 -21.5t-141 21.5t-97.5 58t-60 93t-31 118t-8.5 141.5zM305 1083q0 -143 20.5 -200.5t82.5 -57.5 q63 0 83.5 57.5t20.5 200.5t-20.5 199.5t-83.5 56.5q-62 0 -82.5 -57t-20.5 -199zM655 -135l439 1640h174l-441 -1640h-172zM1198 416q0 98 14.5 171t50.5 134.5t104.5 94t168.5 32.5t169 -32.5t105 -94t51 -134.5t15 -171q0 -80 -8.5 -141.5t-31.5 -118t-61 -93t-98 -58 t-141 -21.5t-141 21.5t-97.5 58t-60 93t-31 118t-8.5 141.5zM1434 416q0 -143 20 -200.5t82 -57.5q63 0 83.5 57.5t20.5 200.5t-20.5 199.5t-83.5 56.5q-62 0 -82 -56.5t-20 -199.5z" />
<glyph unicode="&#x26;" horiz-adv-x="1320" d="M80 399q0 143 79.5 240.5t209.5 130.5q-109 38 -178.5 130.5t-69.5 213.5q0 89 25 161t77 129t142.5 88.5t212.5 31.5q210 0 314 -74.5t132 -235.5l-233 -73q-14 84 -59 124t-130 40q-110 0 -158.5 -57t-48.5 -169q0 -100 47 -165.5t129 -65.5h23v-191q-120 0 -180 -56.5 t-60 -182.5q0 -120 60 -175t198 -55q137 0 195.5 59t58.5 185v225h-131v191h602v-191h-229v-194q0 -89 -7.5 -153.5t-28.5 -123.5t-57.5 -97t-93.5 -66.5t-138 -41t-191 -12.5q-136 0 -236.5 32t-160 90.5t-87.5 135t-28 172.5z" />
<glyph unicode="'" horiz-adv-x="458" d="M98 1360v135h262v-135l-53 -404h-155z" />
<glyph unicode="(" horiz-adv-x="651" d="M76 686q0 98 4.5 176t19 166t39 154t66.5 129.5t99.5 104t141 65t187.5 24.5v-192q-51 0 -91.5 -19t-68.5 -49.5t-48 -79.5t-31.5 -99t-18 -118.5t-8.5 -127t-2 -134.5q0 -77 2 -135.5t8.5 -127t18 -119t31.5 -99.5t48 -79.5t68.5 -49.5t91.5 -19v-192 q-104 0 -187.5 24.5t-141 65t-99.5 103.5t-66.5 129.5t-39 154.5t-19 166.5t-4.5 177.5z" />
<glyph unicode=")" horiz-adv-x="651" d="M18 57q51 0 91.5 19t68.5 49.5t48.5 79.5t32 99.5t18 118.5t8.5 126.5t2 134.5t-2 135t-8.5 127.5t-18 119t-32 99.5t-48.5 79.5t-68.5 49.5t-91.5 19v192q104 0 187.5 -24.5t141 -65t99.5 -103.5t66.5 -129.5t39 -154.5t19 -166.5t4.5 -177.5q0 -98 -4.5 -176t-19 -166 t-39 -154t-66.5 -129.5t-99.5 -104t-141 -65t-187.5 -24.5v192z" />
<glyph unicode="*" horiz-adv-x="1140" d="M49 1135l74 219l186 -62l185 -137l-27 -78l-231 -6zM172 750l115 165l194 121l66 -51l-58 -221l-118 -164zM438 1401v194h262v-194l-90 -219h-82zM592 985l67 49l195 -119l115 -165l-199 -150l-119 164zM649 1155l180 137l189 62l74 -219l-187 -64l-231 4z" />
<glyph unicode="+" horiz-adv-x="1187" d="M176 557v188h324v324h188v-324h324v-188h-324v-324h-188v324h-324z" />
<glyph unicode="," horiz-adv-x="462" d="M39 -199q45 43 69.5 79.5t24.5 82.5q0 26 -20.5 86.5t-20.5 102.5q0 33 4 55.5t16.5 47t42 37.5t74.5 13q47 0 77.5 -13t43.5 -38t17 -47t4 -55q0 -230 -260 -435z" />
<glyph unicode="-" horiz-adv-x="974" d="M127 557v188h721v-188h-721z" />
<glyph unicode="." horiz-adv-x="479" d="M92 143q0 35 4 59t17.5 50t45 39.5t79.5 13.5q41 0 69.5 -10t44 -24t23.5 -38t10 -43t2 -47q0 -35 -4 -57.5t-17.5 -48.5t-45.5 -39.5t-82 -13.5q-39 0 -67 10t-43 24.5t-23.5 37.5t-10.5 42t-2 45z" />
<glyph unicode="/" horiz-adv-x="729" d="M-16 -217l485 1804h276l-485 -1804h-276z" />
<glyph unicode="0" d="M104 748q0 137 14 247t52 212t99.5 170t161 108.5t231.5 40.5q133 0 232.5 -40.5t161 -108.5t99.5 -170.5t52 -212t14 -246.5q0 -114 -10 -208t-33.5 -184.5t-65.5 -158.5t-102.5 -120t-148.5 -79t-199 -27t-198.5 27t-148 79t-102.5 120t-65.5 158.5t-33.5 184.5 t-10 208zM381 748q0 -93 5 -165t17 -137.5t33 -111.5t52 -80.5t74.5 -51t99.5 -16.5q68 0 117.5 25t81 70t50 117t26 155t7.5 195q0 92 -5 164t-17 137.5t-33 111.5t-52 80.5t-74.5 51t-100.5 16.5q-83 0 -139 -37t-86.5 -113t-43 -173.5t-12.5 -237.5z" />
<glyph unicode="1" d="M264 1221v161q112 12 207 42t154 71h219v-1278h297v-217h-873v217h297v1004h-301z" />
<glyph unicode="2" d="M139 0v197l545 591q68 72 102 114t60 96.5t26 107.5q0 91 -56.5 146t-170.5 55q-125 0 -183.5 -58.5t-64.5 -171.5l-239 35q36 412 506 412q236 0 359.5 -114t123.5 -306q0 -116 -56 -219.5t-165 -222.5l-410 -445h653v-217h-1030z" />
<glyph unicode="3" d="M121 365l239 30q24 -207 269 -207q272 0 272 218q0 233 -293 233h-151v201h153q145 0 208 61.5t63 177.5q0 106 -65 167t-187 61q-230 0 -242 -232l-240 33q15 210 138 313t362 103q245 0 376.5 -122t131.5 -325q0 -116 -59.5 -200t-161.5 -132q113 -45 176.5 -134.5 t63.5 -223.5q0 -185 -144.5 -300.5t-386.5 -115.5q-246 0 -374 96.5t-148 297.5z" />
<glyph unicode="4" d="M41 315v201l584 979h407v-963h158v-217h-158v-315h-268v315h-723zM352 532h412v707z" />
<glyph unicode="5" d="M176 426l240 20q6 -128 66.5 -194t187.5 -66q131 0 195.5 70t64.5 182q0 50 -12 89t-44 75t-84.5 59.5t-137 37.5t-197.5 14h-254l51 782h860v-217h-629l-22 -342h90q335 0 495 -131t160 -367q0 -94 -33 -177t-97 -148.5t-169 -103.5t-237 -38q-469 0 -494 455z" />
<glyph unicode="6" d="M129 684q0 162 15.5 286.5t54.5 231.5t101.5 176t158.5 107.5t225 38.5q239 0 362.5 -107t137.5 -325l-240 -25q-6 122 -70 181t-190 59q-64 0 -112 -21t-79.5 -58t-51.5 -95.5t-29.5 -126t-12.5 -156.5q172 39 324 39q258 0 376 -115.5t118 -322.5q0 -232 -132 -356 t-397 -124q-152 0 -261.5 50t-174 145.5t-94 223t-29.5 294.5zM399 649q9 -255 75 -359t210 -104q262 0 262 265q0 104 -66 168.5t-218 64.5q-137 0 -263 -35z" />
<glyph unicode="7" d="M139 1278v217h1028v-188l-565 -1307h-297l561 1278h-727z" />
<glyph unicode="8" d="M119 389q0 242 219 354q-199 103 -199 349q0 189 135 310.5t390 121.5q129 0 230 -34t164 -93t95.5 -136.5t32.5 -168.5q0 -225 -197 -334q217 -108 217 -369q0 -183 -147 -300.5t-395 -117.5q-250 0 -397.5 117.5t-147.5 300.5zM397 395q0 -95 67.5 -155t197.5 -60 t199 60t69 155q0 108 -45.5 171t-155.5 81l-139 21q-97 -21 -145 -92.5t-48 -180.5zM416 1075q0 -99 44 -154t156 -73l115 -19q89 22 133.5 88t44.5 158q0 107 -60 173.5t-185 66.5q-126 0 -187 -66.5t-61 -173.5z" />
<glyph unicode="9" d="M104 1032q0 105 37.5 194.5t107 156t176.5 104t239 37.5q119 0 210 -34t151 -95t98.5 -153t54.5 -200t16 -243q0 -164 -15 -287.5t-53 -229t-101 -171.5t-161 -103t-231 -37q-238 0 -366 107t-138 319l238 27q12 -238 264 -238q151 0 213 103.5t71 345.5 q-149 -39 -315 -39q-109 0 -194.5 23t-141.5 63t-92.5 96t-52 118.5t-15.5 135.5zM383 1044q0 -45 14 -85t45 -76t89 -57t137 -21q131 0 247 31q-6 246 -63 358.5t-193 112.5q-135 0 -205.5 -72t-70.5 -191z" />
<glyph unicode=":" horiz-adv-x="479" d="M92 143q0 35 4 59t17.5 50t45 39.5t79.5 13.5q41 0 69.5 -10t44 -24t23.5 -38t10 -43t2 -47q0 -35 -4 -57.5t-17.5 -48.5t-45.5 -39.5t-82 -13.5q-39 0 -67 10t-43 24.5t-23.5 37.5t-10.5 42t-2 45zM92 956q0 35 4 59t17.5 50t45 39.5t79.5 13.5q41 0 69.5 -10t44 -24 t23.5 -38t10 -43t2 -47q0 -35 -4 -57.5t-17.5 -48.5t-45.5 -39.5t-82 -13.5q-39 0 -67 10t-43 24.5t-23.5 37.5t-10.5 42t-2 45z" />
<glyph unicode=";" horiz-adv-x="462" d="M39 -199q45 43 69.5 79.5t24.5 82.5q0 26 -20.5 86.5t-20.5 102.5q0 33 4 55.5t16.5 47t42 37.5t74.5 13q47 0 77.5 -13t43.5 -38t17 -47t4 -55q0 -230 -260 -435zM84 956q0 36 4 59.5t17.5 49.5t44.5 39.5t79 13.5q41 0 70 -10t44 -24t23.5 -37.5t10.5 -43t2 -47.5 q0 -34 -4 -57t-17.5 -49t-46 -39.5t-82.5 -13.5q-48 0 -79 13.5t-44.5 39.5t-17.5 49t-4 57z" />
<glyph unicode="&#x3c;" horiz-adv-x="1187" d="M182 530v238l824 352v-209l-652 -262l652 -262v-209z" />
<glyph unicode="=" horiz-adv-x="1187" d="M176 336v188h836v-188h-836zM176 778v189h836v-189h-836z" />
<glyph unicode="&#x3e;" horiz-adv-x="1187" d="M182 178v209l649 262l-649 262v209l824 -352v-238z" />
<glyph unicode="?" horiz-adv-x="958" d="M41 1169q17 168 128.5 261.5t303.5 93.5q115 0 206.5 -36t147.5 -97t85.5 -136.5t29.5 -158.5q0 -166 -113 -277.5t-294 -165.5l-23 -225h-172l-18 320q187 57 266.5 138t79.5 204q0 40 -11 78.5t-33 72.5t-61.5 55t-89.5 21q-181 0 -197 -180zM283 143q0 36 4 59.5 t17.5 49.5t44.5 39.5t79 13.5q41 0 70 -10t44 -24t23.5 -37.5t10.5 -43t2 -47.5q0 -34 -4 -57t-17.5 -49t-46 -39.5t-82.5 -13.5q-48 0 -79 13.5t-44.5 39.5t-17.5 49t-4 57z" />
<glyph unicode="@" horiz-adv-x="2154" d="M152 672q0 163 34.5 300t108 249.5t183.5 190.5t266 120.5t350 42.5q433 0 671 -219.5t238 -607.5q0 -93 -12 -164t-43 -135t-83 -105t-135 -64.5t-196 -23.5h-244l-67 98q-125 -118 -275 -118q-92 0 -156 37t-97 104.5t-46.5 144t-13.5 174.5q0 77 9.5 140t35.5 124.5 t67.5 103.5t110 67.5t158.5 25.5q143 0 276 -65l51 65h107v-721h59q144 0 199 70t55 242q0 108 -21 199t-70 172.5t-124.5 138t-191 89.5t-262.5 33q-152 0 -269 -33.5t-195 -93.5t-127.5 -149.5t-71 -195t-21.5 -236.5q0 -96 7.5 -172.5t28 -152t53.5 -132t85.5 -105.5 t123.5 -80.5t168 -49t218 -17.5h356v-194h-356q-214 0 -377.5 43t-269.5 119.5t-173 191.5t-94.5 248t-27.5 301zM881 696q0 -274 170 -274q77 0 149 72v454q-56 21 -117 21q-109 0 -155.5 -68t-46.5 -205z" />
<glyph unicode="A" horiz-adv-x="1314" d="M16 0l461 1495h363l458 -1495h-268l-127 414h-491l-125 -414h-271zM475 625h365l-183 606z" />
<glyph unicode="B" horiz-adv-x="1280" d="M193 0v1495h471q111 0 197 -22.5t138.5 -59.5t86 -88t46.5 -103t13 -110q0 -255 -219 -340q76 -21 133 -61t89 -91t47 -106t15 -115q0 -62 -13 -116t-46.5 -107.5t-85.5 -91t-137 -61t-195 -23.5h-540zM471 215h246q107 0 161 59t54 160q0 105 -54 164t-161 59h-246v-442 zM471 870h188q98 0 152.5 54.5t54.5 148.5q0 96 -54 151.5t-153 55.5h-188v-410z" />
<glyph unicode="C" horiz-adv-x="1282" d="M115 748q0 156 17 273t58.5 214.5t110 159.5t173.5 95.5t247 33.5q130 0 223 -31t148.5 -92t85 -138.5t41.5 -183.5l-226 -35q-13 124 -76.5 189t-195.5 65q-80 0 -137 -21.5t-94 -62.5t-58.5 -110t-30 -153t-8.5 -203q0 -118 8.5 -202t30 -153.5t58.5 -110.5t94 -63 t137 -22q149 0 212 82t66 237l226 -10q-6 -101 -23 -178.5t-53 -147t-91 -114t-139.5 -70t-197.5 -25.5q-142 0 -247 34t-173.5 95.5t-110 159.5t-58.5 215t-17 273z" />
<glyph unicode="D" horiz-adv-x="1429" d="M193 0v1495h497q106 0 191.5 -20t148 -55t109 -88.5t76 -114.5t47.5 -139.5t25 -157t7 -172.5q0 -135 -14.5 -240t-54 -203.5t-105.5 -163t-174.5 -103t-255.5 -38.5h-497zM471 215h182q89 0 154.5 28t105 74.5t63.5 117.5t32 144.5t8 168.5t-8 168.5t-32 144.5 t-63.5 117t-105 74t-154.5 28h-182v-1065z" />
<glyph unicode="E" horiz-adv-x="1146" d="M193 0v1495h843v-215h-565v-414h514v-213h-514v-438h606v-215h-884z" />
<glyph unicode="F" horiz-adv-x="1048" d="M193 0v1495h802v-215h-524v-414h457v-213h-457v-653h-278z" />
<glyph unicode="G" horiz-adv-x="1423" d="M115 748q0 156 17 273t58.5 214.5t110 159.5t173.5 95.5t247 33.5q130 0 223 -31t148.5 -92t85 -138.5t41.5 -183.5l-226 -35q-13 124 -76.5 189t-195.5 65q-80 0 -137 -22t-94 -63t-58.5 -110t-30 -153t-8.5 -202q0 -113 8.5 -195.5t29.5 -152.5t57 -113t92 -66.5 t133 -23.5q148 0 222 77.5t77 241.5v70h-230v178h469v-764h-139l-47 150q-133 -179 -369 -179q-136 0 -237 35.5t-166.5 99t-105.5 162t-56 214t-16 266.5z" />
<glyph unicode="H" horiz-adv-x="1495" d="M193 0v1495h278v-641h553v641h279v-1495h-279v641h-553v-641h-278z" />
<glyph unicode="I" horiz-adv-x="663" d="M193 0v1495h278v-1495h-278z" />
<glyph unicode="J" horiz-adv-x="993" d="M8 424h242q0 -128 32 -177.5t119 -49.5q88 0 120 38.5t32 139.5v1120h278v-1120q0 -51 -3 -89.5t-13.5 -83t-29 -76.5t-51 -63t-77.5 -50t-111 -30.5t-149 -11.5q-62 0 -112.5 7.5t-88 19.5t-67 33.5t-49 43t-33.5 55t-21.5 62t-11.5 72t-5 76.5t-1 84z" />
<glyph unicode="K" horiz-adv-x="1271" d="M193 0v1495h278v-631h104l379 631h287l-450 -737l489 -758h-297l-420 653h-92v-653h-278z" />
<glyph unicode="L" horiz-adv-x="989" d="M193 0v1495h278v-1280h510v-215h-788z" />
<glyph unicode="M" horiz-adv-x="1812" d="M172 0l37 1495h391l293 -944l319 944h390l38 -1495h-274l-23 1151l-333 -973h-242l-301 940l-21 -1118h-274z" />
<glyph unicode="N" horiz-adv-x="1550" d="M193 0v1495h294l592 -1018v1018h279v-1495h-295l-592 1016v-1016h-278z" />
<glyph unicode="O" horiz-adv-x="1452" d="M115 748q0 138 15.5 247.5t56.5 211.5t108 169.5t176 107.5t254 40q104 0 190 -20.5t148.5 -57.5t110.5 -92t78.5 -119t50 -144.5t27 -163t7.5 -179.5q0 -115 -11 -209.5t-37 -185t-72 -158t-112.5 -119.5t-162.5 -78.5t-217 -26.5q-146 0 -254.5 40t-175.5 107t-108 169 t-56.5 212t-15.5 249zM393 748q0 -99 8.5 -177t31 -150t59 -119.5t95.5 -76t138 -28.5q97 0 164.5 41.5t103.5 119.5t51 172t15 218q0 98 -9 176.5t-31.5 150t-59.5 119.5t-96.5 76t-137.5 28q-79 0 -138 -28t-95.5 -76t-59 -120t-31 -149.5t-8.5 -176.5z" />
<glyph unicode="P" horiz-adv-x="1222" d="M193 0v1495h516q109 0 193 -26.5t137 -71t86.5 -108t47 -131t13.5 -146.5t-13.5 -146t-47 -130.5t-86 -108t-137 -71t-193.5 -26.5h-238v-530h-278zM471 745h195q241 0 241 267q0 268 -241 268h-195v-535z" />
<glyph unicode="Q" horiz-adv-x="1431" d="M115 748q0 126 11 225t36.5 189.5t70 154.5t110 112t159 71.5t213.5 23.5q144 0 249.5 -35.5t173 -98.5t108 -162t56 -213.5t15.5 -266.5q0 -282 -62 -457t-217 -256l271 -115l-111 -215l-541 268q-130 7 -225 45.5t-156 101.5t-97 161t-50 208.5t-14 258.5zM393 748 q0 -90 5.5 -160t19.5 -134.5t38 -110t59 -79.5t85 -50.5t115 -16.5q77 0 134 25t93 69.5t57.5 115.5t30 152t8.5 189t-8.5 189t-30 151.5t-57.5 115t-93 69.5t-134 25t-134 -25t-93 -69.5t-57.5 -115t-29.5 -151.5t-8 -189z" />
<glyph unicode="R" horiz-adv-x="1351" d="M193 0v1495h522q115 0 203.5 -27.5t141.5 -71t86.5 -105t45.5 -121.5t12 -128q0 -63 -11.5 -119.5t-37.5 -112.5t-75 -102t-117 -75q42 -44 77 -123l228 -510h-297l-213 485q-28 62 -62 84.5t-102 22.5h-123v-592h-278zM471 807h211q124 0 184 67.5t60 167.5 q0 48 -14 89.5t-42 75.5t-76 53.5t-112 19.5h-211v-473z" />
<glyph unicode="S" horiz-adv-x="1234" d="M90 408l223 34q12 -120 83 -187t198 -67q140 0 206 55.5t66 151.5q0 88 -51.5 133.5t-196.5 81.5l-116 29q-206 52 -293.5 152t-87.5 294q0 204 129 321.5t403 117.5q231 0 343.5 -112t138.5 -325l-222 -34q-12 121 -77 187.5t-185 66.5q-128 0 -190 -56t-62 -153 q0 -87 48 -132.5t180 -80.5l129 -35q209 -54 299 -151.5t90 -288.5q0 -99 -32 -178t-97.5 -138t-173 -91t-250.5 -32q-241 0 -358.5 112t-143.5 325z" />
<glyph unicode="T" horiz-adv-x="1054" d="M-4 1284v211h1063v-211h-391v-1284h-279v1284h-393z" />
<glyph unicode="U" horiz-adv-x="1439" d="M162 494v1001h278v-981q0 -81 16 -140t40.5 -92.5t63 -52.5t74.5 -24.5t85 -5.5t85.5 5.5t75 24.5t63 52.5t40.5 92t16 140.5v981h279v-1001q0 -99 -18 -178t-47 -133t-74 -93.5t-90.5 -62t-105.5 -35.5t-110.5 -17t-113.5 -4t-113.5 4t-110 17t-105 35.5t-90.5 62 t-73.5 93.5t-46.5 133t-18 178z" />
<glyph unicode="V" horiz-adv-x="1288" d="M20 1495h279l344 -1225l344 1225h281l-445 -1495h-360z" />
<glyph unicode="W" horiz-adv-x="1857" d="M45 1495h279l221 -1219l246 1219h276l244 -1219l223 1219h278l-288 -1495h-404l-192 932l-191 -932h-403z" />
<glyph unicode="X" horiz-adv-x="1273" d="M10 1495h318l336 -518l311 518h293l-457 -745l487 -750h-317l-354 545l-322 -545h-291l467 770z" />
<glyph unicode="Y" horiz-adv-x="1175" d="M-12 1495h278l322 -715l321 715h279l-461 -975v-520h-278v520z" />
<glyph unicode="Z" horiz-adv-x="1150" d="M45 0v176l707 1104h-666v215h999v-176l-706 -1104h727v-215h-1061z" />
<glyph unicode="[" horiz-adv-x="671" d="M147 -135v1640h506v-188h-225v-1264h225v-188h-506z" />
<glyph unicode="\" horiz-adv-x="729" d="M-16 1587h276l485 -1804h-276z" />
<glyph unicode="]" horiz-adv-x="671" d="M18 53h226v1264h-226v188h506v-1640h-506v188z" />
<glyph unicode="^" horiz-adv-x="1187" d="M164 647l311 619h238l311 -619h-209l-221 469l-221 -469h-209z" />
<glyph unicode="_" horiz-adv-x="1155" d="M127 0h901v-188h-901v188z" />
<glyph unicode="`" horiz-adv-x="610" d="M33 1493l123 197l399 -273l-92 -147z" />
<glyph unicode="a" horiz-adv-x="1222" d="M94 285q0 74 18 129t64.5 104.5t134.5 83.5t219 53l246 37v99q0 112 -51.5 155t-136.5 43q-83 0 -138.5 -44.5t-72.5 -135.5l-213 63q38 161 144.5 244.5t295.5 83.5q73 0 134 -10t121 -37.5t101 -71.5t66 -117.5t25 -170.5v-793h-179l-77 143q-68 -72 -166 -122 t-217 -50q-155 0 -236.5 87t-81.5 227zM360 297q0 -56 37 -90.5t103 -34.5q139 0 276 137v211l-196 -35q-71 -12 -117.5 -33t-67.5 -48.5t-28 -51.5t-7 -55z" />
<glyph unicode="b" horiz-adv-x="1286" d="M193 0v1540l274 21v-418q137 57 274 57q471 0 471 -614q0 -615 -471 -615q-184 0 -354 107l-63 -78h-131zM467 229q87 -47 192 -47q279 0 279 404q0 86 -14 156t-44 127t-84.5 88.5t-129.5 31.5q-100 0 -199 -41v-719z" />
<glyph unicode="c" horiz-adv-x="1097" d="M74 586q0 74 5.5 136.5t20 126.5t38 115t61 96t88 75t120.5 47.5t156 17.5q127 0 217.5 -27t145.5 -81.5t82 -125.5t34 -169l-213 -29q-5 114 -60.5 167.5t-178.5 53.5q-138 0 -190 -97.5t-52 -305.5t52 -306t190 -98q123 0 178.5 53.5t60.5 167.5l215 -10 q-6 -102 -33.5 -177t-82.5 -131.5t-146 -85t-219 -28.5q-119 0 -208 34.5t-141.5 90t-85 138t-43.5 166t-11 186.5z" />
<glyph unicode="d" horiz-adv-x="1286" d="M74 586q0 102 12 186.5t45 166t85 137.5t138 90t199 34q136 0 266 -49v389l275 21v-1561h-179l-75 145q-170 -174 -371 -174q-94 0 -164.5 34.5t-114 90t-70 137.5t-36.5 166.5t-10 186.5zM348 586q0 -90 12.5 -161t38.5 -127t71.5 -86t107.5 -30q125 0 241 131v635 q-101 41 -196 41q-149 0 -212 -102.5t-63 -300.5z" />
<glyph unicode="e" horiz-adv-x="1153" d="M74 586q0 102 13 186.5t48.5 166t92 137.5t149 90t213.5 34q120 0 210.5 -33t144.5 -87t87.5 -133.5t45.5 -160.5t12 -180v-74h-750q3 -193 64 -271.5t202 -78.5q228 0 242 164l225 -8q-7 -80 -33.5 -143t-79.5 -115t-144.5 -80.5t-217.5 -28.5q-144 0 -245.5 39.5 t-162.5 119.5t-88.5 191.5t-27.5 264.5zM346 719h473q-11 137 -62.5 203.5t-168.5 66.5q-116 0 -171.5 -64.5t-70.5 -205.5z" />
<glyph unicode="f" horiz-adv-x="718" d="M90 993v178h127v80q0 336 354 336q133 0 234 -37l-68 -207q-73 29 -137 29q-57 0 -82.5 -30.5t-25.5 -90.5v-80h221v-178h-221v-993h-275v993h-127z" />
<glyph unicode="g" horiz-adv-x="1183" d="M45 -186q0 68 39 121.5t96 82.5q-125 39 -125 183q0 94 74 174l94 98q-96 109 -96 299q0 65 11.5 121.5t43.5 114.5t82 99t133.5 67t192.5 26q114 0 203 -29h342v-161h-136q56 -101 56 -238q0 -65 -11.5 -121.5t-43.5 -114.5t-82 -99t-134.5 -67t-193.5 -26 q-123 0 -211 31l-57 -62q-13 -13 -24 -33t-11 -34q0 -49 67 -49h437q161 0 254.5 -88t93.5 -222q0 -61 -18 -110.5t-48 -83.5t-76 -59t-94.5 -40t-111 -23.5t-118 -11.5t-122.5 -3q-119 0 -207 12.5t-157.5 41t-105.5 80t-36 124.5zM295 -133q0 -34 17.5 -55.5t56.5 -32.5 t85.5 -15t118.5 -4q162 0 226.5 23.5t64.5 101.5q0 62 -45.5 88.5t-113.5 26.5h-351q-59 -53 -59 -133zM389 772q0 -53 9 -94.5t30.5 -77t62.5 -55t99 -19.5q113 0 158 67t45 179t-45 179t-158 67q-58 0 -99 -19.5t-62.5 -55t-30.5 -77t-9 -94.5z" />
<glyph unicode="h" horiz-adv-x="1357" d="M193 0v1540l274 21v-461q168 100 348 100q190 0 280.5 -100t90.5 -273v-827h-275v799q0 104 -38 147t-132 43q-146 0 -274 -92v-897h-274z" />
<glyph unicode="i" horiz-adv-x="659" d="M176 1468q0 160 154 160q48 0 81 -13.5t48.5 -38.5t21.5 -50.5t6 -57.5t-6 -56.5t-21.5 -49t-48.5 -38t-81 -13.5q-154 0 -154 157zM193 0v1171h274v-1171h-274z" />
<glyph unicode="j" horiz-adv-x="659" d="M-123 -393l68 207q70 -27 139 -27q109 0 109 121v1263h274v-1263q0 -336 -354 -336q-133 0 -236 35zM176 1468q0 160 154 160q48 0 81 -13.5t48.5 -38.5t21.5 -50.5t6 -57.5t-6 -56.5t-21.5 -49t-48.5 -38t-81 -13.5q-154 0 -154 157z" />
<glyph unicode="k" horiz-adv-x="1177" d="M193 0v1540l274 21v-836h84l309 446h297l-393 -557l430 -614h-297l-373 541h-57v-541h-274z" />
<glyph unicode="l" horiz-adv-x="659" d="M193 0v1540l274 37v-1577h-274z" />
<glyph unicode="m" horiz-adv-x="2043" d="M193 0v1171h145l72 -96q165 125 350 125q246 0 344 -141q76 61 174.5 101t200.5 40q202 0 297.5 -99.5t95.5 -273.5v-827h-275v782q0 106 -39 156.5t-137 50.5q-140 0 -256 -96q4 -40 4 -66v-827h-274v782q0 106 -41 156.5t-141 50.5q-130 0 -246 -82v-907h-274z" />
<glyph unicode="n" horiz-adv-x="1357" d="M193 0v1171h129l88 -106q83 59 190 97t215 38q190 0 280.5 -100t90.5 -273v-827h-275v799q0 104 -38 147t-132 43q-146 0 -274 -92v-897h-274z" />
<glyph unicode="o" horiz-adv-x="1212" d="M74 586q0 102 13.5 186.5t50 166t94.5 137.5t153.5 90t220.5 34q126 0 221 -34t153.5 -90t95 -137.5t50 -166t13.5 -186.5t-13.5 -186.5t-50 -166t-95 -138t-154 -90.5t-220.5 -34t-220.5 34t-153.5 90.5t-94.5 138t-50 166t-13.5 186.5zM348 586q0 -75 5.5 -131.5 t22 -110t44.5 -87.5t75 -54.5t111 -20.5t111 20.5t75 54.5t44.5 87.5t22 110t5.5 131.5q0 62 -4 110.5t-14 96t-29 82t-47 61t-69 40t-95 13.5q-64 0 -111 -20.5t-75 -54t-44.5 -87.5t-22 -110t-5.5 -131z" />
<glyph unicode="p" horiz-adv-x="1286" d="M193 -457v1628h131l71 -88q175 117 346 117q471 0 471 -614q0 -102 -12 -186.5t-45 -166t-85 -138t-138 -90.5t-199 -34q-125 0 -266 41v-432zM467 211q96 -29 197 -29q148 0 211 103.5t63 300.5q0 88 -14 158t-44.5 126.5t-85 87.5t-128.5 31q-107 0 -199 -57v-721z" />
<glyph unicode="q" horiz-adv-x="1286" d="M74 586q0 102 12 186.5t44.5 166t85 137.5t138 90t197.5 34q192 0 348 -106l66 77h129v-1591l-275 -37v482q-146 -54 -268 -54q-112 0 -197.5 34t-138 90.5t-85 138t-44.5 166t-12 186.5zM348 586q0 -194 65 -299t212 -105q101 0 194 37v721q-88 49 -194 49 q-277 0 -277 -403z" />
<glyph unicode="r" horiz-adv-x="833" d="M193 0v1171h129l108 -182q141 201 399 211v-235q-241 -5 -362 -148v-817h-274z" />
<glyph unicode="s" horiz-adv-x="1118" d="M88 342l213 33q11 -94 71.5 -145.5t168.5 -51.5q114 0 170.5 36.5t56.5 102.5q0 57 -44 86t-177 60l-94 22q-183 43 -261.5 126.5t-78.5 240.5q0 170 113 259t362 89q205 0 306 -93t126 -271l-213 -31q-11 93 -66.5 143.5t-154.5 50.5q-209 0 -209 -139q0 -58 39.5 -87 t163.5 -58l106 -27q183 -45 263.5 -126t80.5 -234q0 -351 -491 -351q-216 0 -320.5 93t-130.5 272z" />
<glyph unicode="t" horiz-adv-x="737" d="M18 993v178h189v213l274 70v-283h224v-178h-224v-661q0 -88 25.5 -125t85.5 -37q40 0 100 16l35 -170q-120 -45 -229 -45q-59 0 -105 11.5t-76.5 29t-52 46.5t-32.5 54.5t-17 64t-7 64t-1 64.5v688h-189z" />
<glyph unicode="u" horiz-adv-x="1359" d="M172 344v827h274v-782q0 -106 42.5 -156.5t140.5 -50.5q139 0 264 131v858h274v-1171h-178l-78 141q-159 -170 -379 -170q-360 0 -360 373z" />
<glyph unicode="v" horiz-adv-x="1116" d="M8 1171h277l272 -847l274 847h277l-397 -1171h-305z" />
<glyph unicode="w" horiz-adv-x="1552" d="M18 1171h277l172 -802l192 700h232l192 -700l174 802h277l-299 -1171h-260l-199 709l-198 -709h-259z" />
<glyph unicode="x" horiz-adv-x="1085" d="M4 0l395 588l-376 583h301l229 -356l233 356h277l-373 -569l391 -602h-301l-245 377l-254 -377h-277z" />
<glyph unicode="y" horiz-adv-x="1110" d="M8 1171h277l280 -815l254 815h281l-586 -1656l-244 36l166 433z" />
<glyph unicode="z" horiz-adv-x="1042" d="M68 0v168l565 811h-545v192h868v-167l-561 -811h580v-193h-907z" />
<glyph unicode="{" horiz-adv-x="673" d="M25 602v168q20 0 41 4t44 13t37.5 28t14.5 45q0 37 -8.5 112.5t-8.5 119.5q0 72 16 132.5t54 113.5t95.5 90t145 58t199.5 21v-192q-123 0 -175 -70t-52 -196q0 -48 8 -117t8 -105q0 -57 -29.5 -91t-70.5 -34v-10q40 0 70 -34.5t30 -90.5q0 -38 -8 -109.5t-8 -121.5 q0 -132 52 -205.5t175 -73.5v-192q-139 0 -240 32t-158.5 90t-84.5 131t-27 163q0 44 8.5 119t8.5 112q0 26 -14.5 45t-37.5 28t-44 13t-41 4z" />
<glyph unicode="|" horiz-adv-x="690" d="M197 -217v1804h297v-1804h-297z" />
<glyph unicode="}" horiz-adv-x="673" d="M18 57q124 0 176 75t52 210q0 50 -7.5 123.5t-7.5 112.5q0 58 29.5 92.5t69.5 34.5v10q-40 0 -69.5 34.5t-29.5 92.5q0 39 7.5 112t7.5 123q0 113 -52 175.5t-176 62.5v192q139 0 240.5 -31.5t159 -90t84 -131t26.5 -162.5q0 -44 -8 -119.5t-8 -112.5q0 -49 43 -69.5 t94 -20.5v-168q-51 0 -94 -20.5t-43 -69.5q0 -37 8 -112t8 -119q0 -91 -26.5 -163.5t-84 -130.5t-159 -90t-240.5 -32v192z" />
<glyph unicode="~" horiz-adv-x="1187" d="M176 557v188q69 -49 184 -49q77 0 233 44t234 44q111 0 185 -39v-188q-76 43 -185 43q-78 0 -234 -44t-233 -44q-109 0 -184 45z" />
<glyph unicode="&#xa1;" horiz-adv-x="610" d="M156 61l69 695h162l70 -695v-372h-301v372zM156 1040q0 34 4 57t18 49.5t46 40t81 13.5q39 0 67.5 -10t43.5 -24.5t23 -38t10 -42t2 -45.5q0 -36 -4 -59.5t-17.5 -49.5t-44.5 -39t-80 -13q-50 0 -81.5 13t-45.5 39t-18 49.5t-4 59.5z" />
<glyph unicode="&#xa2;" horiz-adv-x="1290" d="M137 748q0 100 11.5 183.5t42 167t79.5 144.5t129.5 105.5t186.5 60.5v250h184v-244q100 -9 175.5 -47.5t121.5 -100.5t70.5 -136.5t31.5 -165.5l-217 -11q-3 111 -64 180.5t-175 69.5q-76 0 -131.5 -24.5t-87.5 -64t-51 -101.5t-25 -123t-6 -143q0 -78 7.5 -142.5 t26.5 -124.5t49.5 -100.5t79.5 -65t113 -24.5q145 0 211.5 55.5t69.5 163.5l217 -14q-30 -378 -416 -414v-248h-184v248q-105 13 -185 55.5t-129.5 104t-80.5 146t-42.5 171t-11.5 189.5z" />
<glyph unicode="&#xa3;" horiz-adv-x="1290" d="M127 610v187h133v276q0 106 24 186.5t77.5 141t144.5 92t219 31.5q130 0 221 -29.5t144 -89.5t76.5 -141.5t23.5 -194.5l-242 -18q0 126 -49.5 191t-159.5 65q-115 0 -157.5 -58t-42.5 -176v-276h430v-187h-430v-166q0 -86 -21.5 -135t-73.5 -92h768v-217h-1075v170 q64 42 93.5 104t29.5 125v211h-133z" />
<glyph unicode="&#xa4;" horiz-adv-x="1290" d="M68 301l188 186q-57 108 -57 261q0 147 59 256l-190 190l131 131l184 -184q114 73 285 73q148 0 250 -63l174 174l131 -131l-176 -176q65 -113 65 -270q0 -155 -68 -271l179 -176l-131 -131l-179 176q-111 -65 -272 -65q-158 0 -262 71l-180 -182zM442 748 q0 -45 10 -84.5t32 -73.5t62 -54t95 -20q64 0 110 20t70.5 54.5t35.5 73t11 84.5q0 45 -10 84t-32 73.5t-62.5 54t-95.5 19.5q-63 0 -109 -19.5t-70.5 -54t-35.5 -73.5t-11 -84z" />
<glyph unicode="&#xa5;" horiz-adv-x="1290" d="M63 1495h283l299 -614l301 614h281l-271 -530h197v-185h-291l-76 -149h367v-187h-373v-444h-270v444h-369v187h363l-76 149h-287v185h193z" />
<glyph unicode="&#xa6;" horiz-adv-x="690" d="M197 -217v725h297v-725h-297zM197 862v725h297v-725h-297z" />
<glyph unicode="&#xa7;" horiz-adv-x="1032" d="M49 610q0 243 260 367q-100 137 -100 276q0 159 120.5 270.5t329.5 159.5l64 -196q-58 -13 -108.5 -35.5t-91 -65.5t-40.5 -96q0 -57 16 -94t58 -86l272 -324q154 -159 154 -342q0 -242 -258 -366q98 -131 98 -277q0 -160 -120 -270.5t-330 -161.5l-64 199q42 10 81 25 t76.5 38.5t60 58t22.5 74.5q0 58 -18 97t-74 104l-260 307q-148 176 -148 338zM324 649q0 -60 15 -96.5t58 -85.5l185 -221q127 60 127 157q0 62 -18 100.5t-75 104.5l-167 197q-125 -61 -125 -156z" />
<glyph unicode="&#xa8;" horiz-adv-x="761" d="M18 1468q0 25 2 43t9.5 40.5t22 36.5t41 24t63.5 10q38 0 65.5 -10t42 -23.5t22 -36.5t9.5 -40.5t2 -43.5q0 -35 -3.5 -57t-16.5 -46t-43 -36t-78 -12q-46 0 -75.5 12t-42 36t-16.5 46.5t-4 56.5zM465 1468q0 26 1.5 43.5t9.5 40.5t22 36.5t40.5 23.5t63.5 10 q38 0 65.5 -10t42 -23.5t22 -36.5t9.5 -40.5t2 -43.5q0 -35 -3.5 -57t-16.5 -46t-43 -36t-78 -12q-46 0 -75.5 12t-42 36t-16 46t-3.5 57z" />
<glyph unicode="&#xa9;" horiz-adv-x="1505" d="M102 1147q0 317 167 484t483 167t483.5 -167t167.5 -484q0 -316 -167 -482.5t-484 -166.5t-483.5 166.5t-166.5 482.5zM250 1147q0 -252 125 -382t377 -130t377.5 130t125.5 382t-125.5 383t-377.5 131t-377 -131t-125 -383zM416 1149q0 211 74 318.5t243 107.5 q270 0 295 -260l-137 -10q-6 77 -42 114t-112 37q-166 0 -166 -307q0 -148 38 -227.5t130 -79.5q149 0 156 182l135 -6q-17 -297 -295 -297q-177 0 -248 107t-71 321z" />
<glyph unicode="&#xaa;" horiz-adv-x="909" d="M66 418v157h731v-157h-731zM80 924q0 55 13 95t46 76t97.5 60.5t160.5 38.5l138 18v58q0 100 -101 100q-99 0 -115 -104l-190 57q30 118 106 175.5t218 57.5q329 0 329 -284v-555h-159l-72 80q-105 -101 -242 -101q-106 0 -167.5 64t-61.5 164zM317 942q0 -33 18.5 -50.5 t51.5 -17.5q78 0 148 60v131l-86 -16q-79 -16 -105.5 -43t-26.5 -64z" />
<glyph unicode="&#xab;" horiz-adv-x="1097" d="M45 596v98l369 391l133 -131l-234 -309l234 -309l-133 -131zM518 596v98l369 391l133 -131l-234 -309l234 -309l-133 -131z" />
<glyph unicode="&#xac;" horiz-adv-x="1187" d="M176 557v188h836v-471h-181v283h-655z" />
<glyph unicode="&#xad;" horiz-adv-x="974" d="M127 557v188h721v-188h-721z" />
<glyph unicode="&#xae;" horiz-adv-x="1505" d="M102 1147q0 317 167 484t483 167t483.5 -167t167.5 -484q0 -316 -167 -482.5t-484 -166.5t-483.5 166.5t-166.5 482.5zM250 1147q0 -252 125 -382t377 -130t377.5 130t125.5 382t-125.5 383t-377.5 131t-377 -131t-125 -383zM496 737v824h268q70 0 121.5 -16.5t79.5 -40 t44 -59t20.5 -64.5t4.5 -64q0 -196 -133 -234q30 -27 49 -71l119 -275h-164l-114 267q-12 30 -29 42.5t-45 12.5h-66v-322h-155zM651 1176h111q37 0 62 12t36 33t15 41.5t4 46.5t-4 46.5t-15 41.5t-36 33t-62 12h-111v-266z" />
<glyph unicode="&#xaf;" horiz-adv-x="724" d="M86 1372v199h553v-199h-553z" />
<glyph unicode="&#xb0;" horiz-adv-x="837" d="M53 1075q0 47 3 83.5t12 77.5t24.5 71t43 59.5t65.5 47.5t93 29t124 11t124.5 -11t93.5 -29t65.5 -47.5t43 -59.5t25 -71t12 -77.5t2.5 -83.5q0 -55 -4.5 -96.5t-16.5 -88t-37.5 -79t-64.5 -60t-100.5 -41.5t-142.5 -14q-69 0 -124 11t-93 29.5t-65.5 47.5t-43 59.5 t-24.5 71.5t-12 77t-3 83zM283 1075q0 -43 2 -68.5t9 -52.5t21.5 -40.5t39.5 -22t63 -8.5q47 0 75 11.5t41.5 39t17 57.5t3.5 84q0 43 -2 69t-9.5 53t-22.5 41t-40.5 23t-62.5 9t-62.5 -9t-40 -23t-21.5 -41t-9 -52.5t-2 -69.5z" />
<glyph unicode="&#xb1;" horiz-adv-x="1187" d="M176 0v188h836v-188h-836zM176 659v189h324v323h188v-323h324v-189h-324v-323h-188v323h-324z" />
<glyph unicode="&#xb2;" horiz-adv-x="792" d="M78 696v138l280 292q51 54 72 92t21 74q0 32 -20 52t-60 20q-45 0 -66 -20.5t-24 -69.5l-201 22q10 127 87.5 187.5t229.5 60.5q139 0 212 -68.5t73 -179.5q0 -57 -29.5 -114t-95.5 -129l-162 -181h303v-176h-620z" />
<glyph unicode="&#xb3;" horiz-adv-x="792" d="M78 926l201 24q5 -96 102 -96q100 0 100 86q0 98 -151 98h-19v138h21q143 0 143 108q0 35 -23 57.5t-63 22.5q-81 0 -92 -88l-203 24q9 133 83 188.5t229 55.5q141 0 217.5 -72t76.5 -186q0 -123 -122 -176q135 -54 135 -188q0 -97 -88.5 -169.5t-223.5 -72.5 q-160 0 -237 56t-86 190z" />
<glyph unicode="&#xb4;" horiz-adv-x="610" d="M55 1417l400 273l123 -197l-431 -223z" />
<glyph unicode="&#xb5;" horiz-adv-x="1280" d="M197 -465v1636h274v-907q129 -82 268 -82q100 0 141.5 50t41.5 157v782h274v-827q0 -86 -18.5 -151.5t-59.5 -116.5t-112.5 -78t-171.5 -27q-180 0 -363 95v-531h-274z" />
<glyph unicode="&#xb6;" horiz-adv-x="1050" d="M29 961q0 83 24.5 155t73.5 130t132 92t190 34h368v-1372h-278v551h-90q-107 0 -190 34t-132 92.5t-73.5 130t-24.5 153.5z" />
<glyph unicode="&#xb7;" horiz-adv-x="479" d="M92 686q0 35 4 59t17.5 50t45 39.5t79.5 13.5q41 0 69.5 -10t44 -24t23.5 -38t10 -43t2 -47q0 -35 -4 -57.5t-17.5 -49t-45.5 -40t-82 -13.5q-39 0 -67 10t-43 24.5t-23.5 37.5t-10.5 42.5t-2 45.5z" />
<glyph unicode="&#xb8;" horiz-adv-x="579" d="M53 -266h172q0 -16 2 -27t8 -23.5t20 -19t36 -6.5t36.5 6.5t20.5 19t8 24t2 28.5q0 63 -73 76l-109 18l19 98h90q56 0 95 -7.5t74.5 -28.5t53.5 -64t18 -109q0 -101 -52 -157t-185 -56q-236 0 -236 228z" />
<glyph unicode="&#xb9;" horiz-adv-x="792" d="M137 1329v135q142 13 209 62h195v-830h-236v633h-168z" />
<glyph unicode="&#xba;" horiz-adv-x="837" d="M33 1126q0 430 385 430q387 0 387 -430t-387 -430q-385 0 -385 430zM53 418v157h731v-157h-731zM281 1126q0 -129 27 -186t110 -57q84 0 111.5 57t27.5 186q0 130 -27.5 187t-111.5 57q-83 0 -110 -57.5t-27 -186.5z" />
<glyph unicode="&#xbb;" horiz-adv-x="1097" d="M66 336l233 309l-233 309l133 131l368 -391v-98l-368 -391zM539 336l233 309l-233 309l133 131l368 -391v-98l-368 -391z" />
<glyph unicode="&#xbc;" horiz-adv-x="1998" d="M147 1300v136q143 14 209 61h195v-829h-236v632h-168zM655 -74l439 1641h174l-441 -1641h-172zM1161 141v160l269 528h342v-512h67v-176h-67v-141h-216v141h-395zM1386 317h170v342z" />
<glyph unicode="&#xbd;" horiz-adv-x="1998" d="M147 1300v136q143 14 209 61h195v-829h-236v632h-168zM651 -74l439 1641h174l-441 -1641h-172zM1217 0v137l280 293q51 54 71.5 92t20.5 74q0 32 -20 52t-60 20q-45 0 -66 -20.5t-24 -69.5l-200 22q10 127 87.5 187.5t229.5 60.5q139 0 212 -68.5t73 -179.5 q0 -108 -125 -244l-162 -180h303v-176h-620z" />
<glyph unicode="&#xbe;" horiz-adv-x="1998" d="M88 897l201 25q5 -97 102 -97q101 0 101 86q0 45 -37 72t-115 27h-18v137h20q143 0 143 108q0 35 -23 57.5t-63 22.5q-81 0 -92 -88l-203 25q9 133 83 188.5t229 55.5q141 0 218 -72.5t77 -186.5q0 -123 -123 -176q135 -54 135 -188q0 -97 -88 -169.5t-223 -72.5 q-160 0 -237.5 56t-86.5 190zM696 -74l439 1641h174l-441 -1641h-172zM1161 141v160l269 528h342v-512h67v-176h-67v-141h-216v141h-395zM1386 317h170v342z" />
<glyph unicode="&#xbf;" horiz-adv-x="958" d="M37 88q0 166 113 277t294 165l23 226h172l18 -320q-187 -57 -266.5 -138t-79.5 -204q0 -40 11 -78.5t33 -72.5t61.5 -55t89.5 -21q180 0 196 180l236 -33q-17 -168 -128 -261t-304 -93q-115 0 -206.5 36t-147.5 97t-85.5 136.5t-29.5 158.5zM401 1040q0 27 2 45.5 t10.5 42t23.5 38t44 24.5t70 10q48 0 79 -13.5t44.5 -39.5t17.5 -49.5t4 -57.5q0 -35 -4 -59t-17.5 -50t-44.5 -39t-79 -13q-41 0 -70 10t-44 24t-23.5 37.5t-10.5 42.5t-2 47z" />
<glyph unicode="&#xc0;" horiz-adv-x="1314" d="M16 0l461 1495h363l458 -1495h-268l-127 414h-491l-125 -414h-271zM408 1817l122 196l400 -272l-92 -148zM475 625h365l-183 606z" />
<glyph unicode="&#xc1;" horiz-adv-x="1314" d="M16 0l461 1495h363l458 -1495h-268l-127 414h-491l-125 -414h-271zM428 1741l399 272l123 -196l-430 -224zM475 625h365l-183 606z" />
<glyph unicode="&#xc2;" horiz-adv-x="1314" d="M16 0l461 1495h363l458 -1495h-268l-127 414h-491l-125 -414h-271zM354 1704l262 301h125l263 -301l-99 -98l-227 172l-225 -172zM475 625h365l-183 606z" />
<glyph unicode="&#xc3;" horiz-adv-x="1314" d="M16 0l461 1495h363l458 -1495h-268l-127 414h-491l-125 -414h-271zM315 1710q35 129 87.5 184.5t125.5 55.5q50 0 147 -37t124 -37q36 0 56 21.5t34 68.5l151 -49q-35 -129 -87.5 -184.5t-125.5 -55.5q-50 0 -145.5 37t-122.5 37q-36 0 -56 -21.5t-34 -68.5zM475 625h365 l-183 606z" />
<glyph unicode="&#xc4;" horiz-adv-x="1314" d="M16 0l461 1495h363l458 -1495h-268l-127 414h-491l-125 -414h-271zM315 1792q0 25 2 43t9.5 40.5t22 36.5t41 24t63.5 10q38 0 65.5 -10t42 -23.5t22 -36.5t9.5 -40.5t2 -43.5q0 -27 -2 -45.5t-9.5 -40.5t-22 -35t-42 -22t-65.5 -9q-46 0 -75.5 12t-42 36.5t-16.5 47 t-4 56.5zM475 625h365l-183 606zM762 1792q0 26 1.5 43.5t9.5 40.5t22 36.5t40.5 23.5t63.5 10q38 0 65.5 -10t42 -23.5t22 -36.5t9.5 -40.5t2 -43.5q0 -27 -2 -45.5t-9.5 -40.5t-22 -35t-42 -22t-65.5 -9q-37 0 -63.5 9t-40.5 22t-22 35t-9.5 40.5t-1.5 45.5z" />
<glyph unicode="&#xc5;" horiz-adv-x="1314" d="M16 0l461 1495h363l458 -1495h-268l-127 414h-491l-125 -414h-271zM449 1806q0 33 4.5 62t19.5 61.5t39 55.5t66 38t98 15q71 0 120 -21.5t72.5 -58.5t33 -73.5t9.5 -78.5q0 -41 -9.5 -77t-33 -72.5t-72.5 -58t-120 -21.5q-69 0 -117 21.5t-70.5 58t-31 72t-8.5 77.5z M475 625h365l-183 606zM600 1806q0 -98 76 -98q84 0 84 98q0 103 -84 103q-76 0 -76 -103z" />
<glyph unicode="&#xc6;" horiz-adv-x="1914" d="M23 0l624 1495h1157v-215h-565v-455h514v-213h-514v-397h606v-215h-884v612h-416l-252 -612h-270zM631 825h330v455h-142z" />
<glyph unicode="&#xc7;" horiz-adv-x="1282" d="M115 748q0 156 17 273t58.5 214.5t110 159.5t173.5 95.5t247 33.5q130 0 223 -31t148.5 -92t85 -138.5t41.5 -183.5l-226 -35q-13 124 -76.5 189t-195.5 65q-80 0 -137 -21.5t-94 -62.5t-58.5 -110t-30 -153t-8.5 -203q0 -118 8.5 -202t30 -153.5t58.5 -110.5t94 -63 t137 -22q149 0 212 82t66 237l226 -10q-6 -101 -23 -178.5t-53 -147t-91 -114t-139.5 -70t-197.5 -25.5q-142 0 -247 34t-173.5 95.5t-110 159.5t-58.5 215t-17 273zM434 -266h172q0 -16 2 -27t8 -23.5t20 -19t36 -6.5t36.5 6.5t20.5 19t8 24t2 28.5q0 63 -73 76l-109 18 l18 98h91q56 0 95 -7.5t74.5 -28.5t53.5 -64t18 -109q0 -101 -52 -157t-185 -56q-236 0 -236 228z" />
<glyph unicode="&#xc8;" horiz-adv-x="1146" d="M193 0v1495h843v-215h-565v-414h514v-213h-514v-438h606v-215h-884zM373 1817l123 196l399 -272l-92 -148z" />
<glyph unicode="&#xc9;" horiz-adv-x="1146" d="M193 0v1495h843v-215h-565v-414h514v-213h-514v-438h606v-215h-884zM410 1741l399 272l123 -196l-430 -224z" />
<glyph unicode="&#xca;" horiz-adv-x="1146" d="M193 0v1495h843v-215h-565v-414h514v-213h-514v-438h606v-215h-884zM319 1704l263 301h125l262 -301l-99 -98l-227 172l-225 -172z" />
<glyph unicode="&#xcb;" horiz-adv-x="1146" d="M193 0v1495h843v-215h-565v-414h514v-213h-514v-438h606v-215h-884zM281 1792q0 26 1.5 43.5t9.5 40.5t22 36.5t40.5 23.5t63.5 10q38 0 65.5 -10t42 -23.5t22 -36.5t9.5 -40.5t2 -43.5q0 -27 -2 -45.5t-9.5 -40.5t-22 -35t-42 -22t-65.5 -9q-37 0 -63.5 9t-40.5 22 t-22 35t-9.5 40.5t-1.5 45.5zM727 1792q0 26 1.5 43.5t9.5 40.5t22 36.5t40.5 23.5t63.5 10q47 0 77.5 -13t43.5 -38.5t17 -48t4 -54.5q0 -35 -4 -57t-17 -46.5t-43 -36.5t-78 -12q-37 0 -63.5 9t-40.5 22t-22 35t-9.5 40.5t-1.5 45.5z" />
<glyph unicode="&#xcc;" horiz-adv-x="663" d="M61 1817l123 196l400 -272l-92 -148zM193 0v1495h278v-1495h-278z" />
<glyph unicode="&#xcd;" horiz-adv-x="663" d="M123 1741l399 272l123 -196l-430 -224zM193 0v1495h278v-1495h-278z" />
<glyph unicode="&#xce;" horiz-adv-x="663" d="M8 1704l262 301h125l262 -301l-98 -98l-227 172l-226 -172zM193 0v1495h278v-1495h-278z" />
<glyph unicode="&#xcf;" horiz-adv-x="663" d="M-31 1792q0 26 1.5 43.5t9.5 40.5t22 36.5t40.5 23.5t63.5 10q47 0 77.5 -13t43.5 -38.5t17 -48t4 -54.5q0 -35 -4 -57t-17 -46.5t-43 -36.5t-78 -12q-37 0 -63.5 9t-40.5 22t-22 35t-9.5 40.5t-1.5 45.5zM193 0v1495h278v-1495h-278zM416 1792q0 26 1.5 43.5t9.5 40.5 t22 36.5t40.5 23.5t63.5 10q38 0 65.5 -10t42 -23.5t22 -36.5t9.5 -40.5t2 -43.5q0 -27 -2 -45.5t-9.5 -40.5t-22 -35t-42 -22t-65.5 -9q-37 0 -63.5 9t-40.5 22t-22 35t-9.5 40.5t-1.5 45.5z" />
<glyph unicode="&#xd0;" horiz-adv-x="1429" d="M106 647v189h87v659h497q106 0 191.5 -20t148 -55t109 -88.5t76 -114.5t47.5 -139.5t25 -157t7 -172.5q0 -135 -14.5 -240t-54 -203.5t-105.5 -163t-174.5 -103t-255.5 -38.5h-497v647h-87zM471 215h182q89 0 154.5 28t105 74.5t63.5 117.5t32 144.5t8 168.5t-8 168.5 t-32 144.5t-63.5 117t-105 74t-154.5 28h-182v-444h356v-189h-356v-432z" />
<glyph unicode="&#xd1;" horiz-adv-x="1550" d="M193 0v1495h294l592 -1018v1018h279v-1495h-295l-592 1016v-1016h-278zM430 1710q35 129 87.5 184.5t125.5 55.5q50 0 146.5 -37t123.5 -37q36 0 56.5 21.5t34.5 68.5l151 -49q-35 -129 -87.5 -184.5t-125.5 -55.5q-50 0 -145.5 37t-122.5 37q-36 0 -56 -21.5t-34 -68.5z " />
<glyph unicode="&#xd2;" horiz-adv-x="1452" d="M115 748q0 138 15.5 247.5t56.5 211.5t108 169.5t176 107.5t254 40q104 0 190 -20.5t148.5 -57.5t110.5 -92t78.5 -119t50 -144.5t27 -163t7.5 -179.5q0 -115 -11 -209.5t-37 -185t-72 -158t-112.5 -119.5t-162.5 -78.5t-217 -26.5q-146 0 -254.5 40t-175.5 107t-108 169 t-56.5 212t-15.5 249zM393 748q0 -99 8.5 -177t31 -150t59 -119.5t95.5 -76t138 -28.5q97 0 164.5 41.5t103.5 119.5t51 172t15 218q0 98 -9 176.5t-31.5 150t-59.5 119.5t-96.5 76t-137.5 28q-79 0 -138 -28t-95.5 -76t-59 -120t-31 -149.5t-8.5 -176.5zM455 1817l123 196 l399 -272l-92 -148z" />
<glyph unicode="&#xd3;" horiz-adv-x="1452" d="M115 748q0 138 15.5 247.5t56.5 211.5t108 169.5t176 107.5t254 40q104 0 190 -20.5t148.5 -57.5t110.5 -92t78.5 -119t50 -144.5t27 -163t7.5 -179.5q0 -115 -11 -209.5t-37 -185t-72 -158t-112.5 -119.5t-162.5 -78.5t-217 -26.5q-146 0 -254.5 40t-175.5 107t-108 169 t-56.5 212t-15.5 249zM393 748q0 -99 8.5 -177t31 -150t59 -119.5t95.5 -76t138 -28.5q97 0 164.5 41.5t103.5 119.5t51 172t15 218q0 98 -9 176.5t-31.5 150t-59.5 119.5t-96.5 76t-137.5 28q-79 0 -138 -28t-95.5 -76t-59 -120t-31 -149.5t-8.5 -176.5zM475 1741l399 272 l123 -196l-430 -224z" />
<glyph unicode="&#xd4;" horiz-adv-x="1452" d="M115 748q0 138 15.5 247.5t56.5 211.5t108 169.5t176 107.5t254 40q104 0 190 -20.5t148.5 -57.5t110.5 -92t78.5 -119t50 -144.5t27 -163t7.5 -179.5q0 -115 -11 -209.5t-37 -185t-72 -158t-112.5 -119.5t-162.5 -78.5t-217 -26.5q-146 0 -254.5 40t-175.5 107t-108 169 t-56.5 212t-15.5 249zM393 748q0 -99 8.5 -177t31 -150t59 -119.5t95.5 -76t138 -28.5q97 0 164.5 41.5t103.5 119.5t51 172t15 218q0 98 -9 176.5t-31.5 150t-59.5 119.5t-96.5 76t-137.5 28q-79 0 -138 -28t-95.5 -76t-59 -120t-31 -149.5t-8.5 -176.5zM401 1704l263 301 h124l263 -301l-99 -98l-227 172l-225 -172z" />
<glyph unicode="&#xd5;" horiz-adv-x="1452" d="M115 748q0 138 15.5 247.5t56.5 211.5t108 169.5t176 107.5t254 40q104 0 190 -20.5t148.5 -57.5t110.5 -92t78.5 -119t50 -144.5t27 -163t7.5 -179.5q0 -115 -11 -209.5t-37 -185t-72 -158t-112.5 -119.5t-162.5 -78.5t-217 -26.5q-146 0 -254.5 40t-175.5 107t-108 169 t-56.5 212t-15.5 249zM362 1710q35 129 87.5 184.5t125.5 55.5q50 0 147 -37t124 -37q36 0 56 21.5t34 68.5l151 -49q-35 -129 -87.5 -184.5t-125.5 -55.5q-50 0 -145.5 37t-122.5 37q-36 0 -56 -21.5t-34 -68.5zM393 748q0 -99 8.5 -177t31 -150t59 -119.5t95.5 -76 t138 -28.5q97 0 164.5 41.5t103.5 119.5t51 172t15 218q0 98 -9 176.5t-31.5 150t-59.5 119.5t-96.5 76t-137.5 28q-79 0 -138 -28t-95.5 -76t-59 -120t-31 -149.5t-8.5 -176.5z" />
<glyph unicode="&#xd6;" horiz-adv-x="1452" d="M115 748q0 138 15.5 247.5t56.5 211.5t108 169.5t176 107.5t254 40q104 0 190 -20.5t148.5 -57.5t110.5 -92t78.5 -119t50 -144.5t27 -163t7.5 -179.5q0 -115 -11 -209.5t-37 -185t-72 -158t-112.5 -119.5t-162.5 -78.5t-217 -26.5q-146 0 -254.5 40t-175.5 107t-108 169 t-56.5 212t-15.5 249zM362 1792q0 25 2 43t9.5 40.5t22 36.5t41 24t63.5 10q38 0 65.5 -10t42 -23.5t22 -36.5t9.5 -40.5t2 -43.5q0 -27 -2 -45.5t-9.5 -40.5t-22 -35t-42 -22t-65.5 -9q-46 0 -75.5 12t-42 36.5t-16.5 47t-4 56.5zM393 748q0 -99 8.5 -177t31 -150 t59 -119.5t95.5 -76t138 -28.5q97 0 164.5 41.5t103.5 119.5t51 172t15 218q0 98 -9 176.5t-31.5 150t-59.5 119.5t-96.5 76t-137.5 28q-79 0 -138 -28t-95.5 -76t-59 -120t-31 -149.5t-8.5 -176.5zM809 1792q0 26 1.5 43.5t9.5 40.5t22 36.5t40.5 23.5t63.5 10 q38 0 65.5 -10t42 -23.5t22 -36.5t9.5 -40.5t2 -43.5q0 -27 -2 -45.5t-9.5 -40.5t-22 -35t-42 -22t-65.5 -9q-37 0 -63.5 9t-40.5 22t-22 35t-9.5 40.5t-1.5 45.5z" />
<glyph unicode="&#xd7;" horiz-adv-x="1187" d="M195 387l266 264l-266 264l135 136l264 -267l264 267l135 -136l-266 -264l266 -264l-135 -135l-264 266l-264 -266z" />
<glyph unicode="&#xd8;" horiz-adv-x="1452" d="M115 748q0 138 15.5 247.5t56.5 211.5t108 169.5t176 107.5t254 40q34 0 92 -4l41 174h174l-49 -211q101 -38 172 -109t110 -170t55.5 -209t16.5 -247q0 -115 -11 -209.5t-37 -185t-72 -158t-112.5 -119.5t-162.5 -78.5t-217 -26.5q-51 0 -94 6l-39 -170h-172l47 203 q-82 30 -144 83t-101.5 120t-63.5 155t-33.5 179t-9.5 201zM393 748q0 -366 131 -484l242 1032q-7 0 -20.5 1t-20.5 1q-79 0 -138 -28t-95.5 -76t-59 -120t-31 -149.5t-8.5 -176.5zM682 199q14 -2 43 -2q97 0 164.5 41.5t103.5 119.5t51 172t15 218q0 362 -135 481z" />
<glyph unicode="&#xd9;" horiz-adv-x="1439" d="M162 494v1001h278v-981q0 -81 16 -140t40.5 -92.5t63 -52.5t74.5 -24.5t85 -5.5t85.5 5.5t75 24.5t63 52.5t40.5 92t16 140.5v981h279v-1001q0 -99 -18 -178t-47 -133t-74 -93.5t-90.5 -62t-105.5 -35.5t-110.5 -17t-113.5 -4t-113.5 4t-110 17t-105 35.5t-90.5 62 t-73.5 93.5t-46.5 133t-18 178zM395 1817l123 196l400 -272l-93 -148z" />
<glyph unicode="&#xda;" horiz-adv-x="1439" d="M162 494v1001h278v-981q0 -81 16 -140t40.5 -92.5t63 -52.5t74.5 -24.5t85 -5.5t85.5 5.5t75 24.5t63 52.5t40.5 92t16 140.5v981h279v-1001q0 -99 -18 -178t-47 -133t-74 -93.5t-90.5 -62t-105.5 -35.5t-110.5 -17t-113.5 -4t-113.5 4t-110 17t-105 35.5t-90.5 62 t-73.5 93.5t-46.5 133t-18 178zM580 1741l399 272l123 -196l-430 -224z" />
<glyph unicode="&#xdb;" horiz-adv-x="1439" d="M162 494v1001h278v-981q0 -81 16 -140t40.5 -92.5t63 -52.5t74.5 -24.5t85 -5.5t85.5 5.5t75 24.5t63 52.5t40.5 92t16 140.5v981h279v-1001q0 -99 -18 -178t-47 -133t-74 -93.5t-90.5 -62t-105.5 -35.5t-110.5 -17t-113.5 -4t-113.5 4t-110 17t-105 35.5t-90.5 62 t-73.5 93.5t-46.5 133t-18 178zM401 1704l263 301h124l263 -301l-99 -98l-227 172l-225 -172z" />
<glyph unicode="&#xdc;" horiz-adv-x="1439" d="M162 494v1001h278v-981q0 -81 16 -140t40.5 -92.5t63 -52.5t74.5 -24.5t85 -5.5t85.5 5.5t75 24.5t63 52.5t40.5 92t16 140.5v981h279v-1001q0 -99 -18 -178t-47 -133t-74 -93.5t-90.5 -62t-105.5 -35.5t-110.5 -17t-113.5 -4t-113.5 4t-110 17t-105 35.5t-90.5 62 t-73.5 93.5t-46.5 133t-18 178zM365 1792q0 26 1.5 43.5t9.5 40.5t22 36.5t40.5 23.5t63.5 10q38 0 65.5 -10t42 -23.5t22 -36.5t9.5 -40.5t2 -43.5q0 -27 -2 -45.5t-9.5 -40.5t-22 -35t-42 -22t-65.5 -9q-37 0 -63.5 9t-40.5 22t-22 35t-9.5 40.5t-1.5 45.5zM811 1792 q0 26 1.5 43.5t9.5 40.5t22 36.5t40.5 23.5t63.5 10q47 0 77.5 -13t43.5 -38.5t17 -48t4 -54.5q0 -35 -4 -57t-17 -46.5t-43 -36.5t-78 -12q-37 0 -63.5 9t-40.5 22t-22 35t-9.5 40.5t-1.5 45.5z" />
<glyph unicode="&#xdd;" horiz-adv-x="1175" d="M-12 1495h278l322 -715l321 715h279l-461 -975v-520h-278v520zM369 1741l399 272l123 -196l-430 -224z" />
<glyph unicode="&#xde;" horiz-adv-x="1202" d="M193 0v1495h278v-283h229q106 0 188 -25.5t133.5 -68.5t84.5 -104.5t46 -126.5t13 -142q0 -76 -13 -141t-46 -126t-84.5 -103.5t-133.5 -68t-188 -25.5h-229v-281h-278zM471 506h184q67 0 113.5 18t72 51.5t36 74.5t10.5 95q0 114 -51.5 178t-180.5 64h-184v-481z" />
<glyph unicode="&#xdf;" horiz-adv-x="1351" d="M213 0v1081q0 447 504 447q227 0 348 -113t121 -301q0 -96 -46 -180.5t-124 -145.5q147 -31 227 -133t80 -268q0 -86 -23 -159t-70 -131.5t-127.5 -92t-187.5 -33.5q-183 0 -268.5 100.5t-85.5 327.5h223q0 -118 28 -164.5t101 -46.5q136 0 136 236q0 122 -49.5 173.5 t-161.5 51.5h-207v203h106q89 0 131.5 63t42.5 166q0 230 -217 230q-207 0 -207 -230v-1081h-274z" />
<glyph unicode="&#xe0;" horiz-adv-x="1222" d="M94 285q0 74 18 129t64.5 104.5t134.5 83.5t219 53l246 37v99q0 112 -51.5 155t-136.5 43q-83 0 -138.5 -44.5t-72.5 -135.5l-213 63q38 161 144.5 244.5t295.5 83.5q73 0 134 -10t121 -37.5t101 -71.5t66 -117.5t25 -170.5v-793h-179l-77 143q-68 -72 -166 -122 t-217 -50q-155 0 -236.5 87t-81.5 227zM322 1493l122 197l400 -273l-92 -147zM360 297q0 -56 37 -90.5t103 -34.5q139 0 276 137v211l-196 -35q-71 -12 -117.5 -33t-67.5 -48.5t-28 -51.5t-7 -55z" />
<glyph unicode="&#xe1;" horiz-adv-x="1222" d="M94 285q0 74 18 129t64.5 104.5t134.5 83.5t219 53l246 37v99q0 112 -51.5 155t-136.5 43q-83 0 -138.5 -44.5t-72.5 -135.5l-213 63q38 161 144.5 244.5t295.5 83.5q73 0 134 -10t121 -37.5t101 -71.5t66 -117.5t25 -170.5v-793h-179l-77 143q-68 -72 -166 -122 t-217 -50q-155 0 -236.5 87t-81.5 227zM360 297q0 -56 37 -90.5t103 -34.5q139 0 276 137v211l-196 -35q-71 -12 -117.5 -33t-67.5 -48.5t-28 -51.5t-7 -55zM436 1417l400 273l122 -197l-430 -223z" />
<glyph unicode="&#xe2;" horiz-adv-x="1222" d="M94 285q0 74 18 129t64.5 104.5t134.5 83.5t219 53l246 37v99q0 112 -51.5 155t-136.5 43q-83 0 -138.5 -44.5t-72.5 -135.5l-213 63q38 161 144.5 244.5t295.5 83.5q73 0 134 -10t121 -37.5t101 -71.5t66 -117.5t25 -170.5v-793h-179l-77 143q-68 -72 -166 -122 t-217 -50q-155 0 -236.5 87t-81.5 227zM268 1380l262 301h125l263 -301l-99 -98l-227 172l-225 -172zM360 297q0 -56 37 -90.5t103 -34.5q139 0 276 137v211l-196 -35q-71 -12 -117.5 -33t-67.5 -48.5t-28 -51.5t-7 -55z" />
<glyph unicode="&#xe3;" horiz-adv-x="1222" d="M94 285q0 74 18 129t64.5 104.5t134.5 83.5t219 53l246 37v99q0 112 -51.5 155t-136.5 43q-83 0 -138.5 -44.5t-72.5 -135.5l-213 63q38 161 144.5 244.5t295.5 83.5q73 0 134 -10t121 -37.5t101 -71.5t66 -117.5t25 -170.5v-793h-179l-77 143q-68 -72 -166 -122 t-217 -50q-155 0 -236.5 87t-81.5 227zM229 1386q35 129 87.5 184.5t125.5 55.5q50 0 147 -37t124 -37q36 0 56 21.5t34 68.5l151 -49q-35 -129 -87.5 -184t-125.5 -55q-50 0 -145.5 36.5t-122.5 36.5q-36 0 -56 -21.5t-34 -68.5zM360 297q0 -56 37 -90.5t103 -34.5 q139 0 276 137v211l-196 -35q-71 -12 -117.5 -33t-67.5 -48.5t-28 -51.5t-7 -55z" />
<glyph unicode="&#xe4;" horiz-adv-x="1222" d="M94 285q0 74 18 129t64.5 104.5t134.5 83.5t219 53l246 37v99q0 112 -51.5 155t-136.5 43q-83 0 -138.5 -44.5t-72.5 -135.5l-213 63q38 161 144.5 244.5t295.5 83.5q73 0 134 -10t121 -37.5t101 -71.5t66 -117.5t25 -170.5v-793h-179l-77 143q-68 -72 -166 -122 t-217 -50q-155 0 -236.5 87t-81.5 227zM264 1468q0 26 1.5 43.5t9.5 40.5t22 36.5t40.5 23.5t63.5 10q47 0 77.5 -13t43.5 -38.5t17 -48t4 -54.5q0 -35 -4 -57t-17 -46t-43 -36t-78 -12q-46 0 -75.5 12t-42 36t-16 46t-3.5 57zM360 297q0 -56 37 -90.5t103 -34.5 q139 0 276 137v211l-196 -35q-71 -12 -117.5 -33t-67.5 -48.5t-28 -51.5t-7 -55zM711 1468q0 26 1.5 43.5t9.5 40.5t22 36.5t40.5 23.5t63.5 10q38 0 65.5 -10t42 -23.5t22 -36.5t9.5 -40.5t2 -43.5q0 -35 -3.5 -57t-16.5 -46t-43 -36t-78 -12q-46 0 -75.5 12t-42 36t-16 46 t-3.5 57z" />
<glyph unicode="&#xe5;" horiz-adv-x="1222" d="M94 285q0 74 18 129t64.5 104.5t134.5 83.5t219 53l246 37v99q0 112 -51.5 155t-136.5 43q-83 0 -138.5 -44.5t-72.5 -135.5l-213 63q38 161 144.5 244.5t295.5 83.5q73 0 134 -10t121 -37.5t101 -71.5t66 -117.5t25 -170.5v-793h-179l-77 143q-68 -72 -166 -122 t-217 -50q-155 0 -236.5 87t-81.5 227zM360 297q0 -56 37 -90.5t103 -34.5q139 0 276 137v211l-196 -35q-71 -12 -117.5 -33t-67.5 -48.5t-28 -51.5t-7 -55zM403 1483q0 33 4.5 62t19.5 61.5t39 55t66.5 37.5t98.5 15q71 0 120 -21.5t72.5 -58t33 -73t9.5 -78.5 q0 -41 -9.5 -77t-33 -73t-72.5 -58.5t-120 -21.5q-69 0 -117 21.5t-70.5 58.5t-31.5 72.5t-9 77.5zM555 1483q0 -99 76 -99q84 0 84 99q0 102 -84 102q-76 0 -76 -102z" />
<glyph unicode="&#xe6;" horiz-adv-x="1847" d="M92 285q0 74 17.5 128.5t63.5 104.5t132.5 84.5t216.5 56.5l238 39v93q0 198 -180 198q-83 0 -137.5 -44.5t-71.5 -135.5l-215 57q38 164 144.5 249t295.5 85q230 0 340 -113q126 113 348 113q120 0 210.5 -33t144.5 -87t87.5 -133.5t45.5 -160.5t12 -180v-74h-750 q3 -193 64 -271.5t202 -78.5q228 0 242 164l225 -8q-7 -80 -33.5 -143t-79.5 -115t-144.5 -80.5t-217.5 -28.5q-320 0 -438 201q-93 -93 -199 -147t-252 -54q-152 0 -231.5 87t-79.5 227zM356 291q0 -56 36 -90.5t100 -34.5q85 0 166 40t139 99q-27 126 -29 207l-197 -37 q-70 -13 -115.5 -33.5t-66 -47t-27 -49.5t-6.5 -54zM1040 719h473q-11 137 -62.5 203.5t-168.5 66.5q-116 0 -171.5 -64.5t-70.5 -205.5z" />
<glyph unicode="&#xe7;" horiz-adv-x="1097" d="M74 586q0 74 5.5 136.5t20 126.5t38 115t61 96t88 75t120.5 47.5t156 17.5q127 0 217.5 -27t145.5 -81.5t82 -125.5t34 -169l-213 -29q-5 114 -60.5 167.5t-178.5 53.5q-138 0 -190 -97.5t-52 -305.5t52 -306t190 -98q123 0 178.5 53.5t60.5 167.5l215 -10 q-6 -102 -33.5 -177t-82.5 -131.5t-146 -85t-219 -28.5q-119 0 -208 34.5t-141.5 90t-85 138t-43.5 166t-11 186.5zM305 -266h172q0 -16 2 -27t8 -23.5t20 -19t36 -6.5t36.5 6.5t20.5 19t8 24t2 28.5q0 63 -73 76l-109 18l18 98h91q56 0 95 -7.5t74.5 -28.5t53.5 -64 t18 -109q0 -101 -52 -157t-185 -56q-236 0 -236 228z" />
<glyph unicode="&#xe8;" horiz-adv-x="1153" d="M74 586q0 102 13 186.5t48.5 166t92 137.5t149 90t213.5 34q120 0 210.5 -33t144.5 -87t87.5 -133.5t45.5 -160.5t12 -180v-74h-750q3 -193 64 -271.5t202 -78.5q228 0 242 164l225 -8q-7 -80 -33.5 -143t-79.5 -115t-144.5 -80.5t-217.5 -28.5q-144 0 -245.5 39.5 t-162.5 119.5t-88.5 191.5t-27.5 264.5zM313 1493l123 197l400 -273l-93 -147zM346 719h473q-11 137 -62.5 203.5t-168.5 66.5q-116 0 -171.5 -64.5t-70.5 -205.5z" />
<glyph unicode="&#xe9;" horiz-adv-x="1153" d="M74 586q0 102 13 186.5t48.5 166t92 137.5t149 90t213.5 34q120 0 210.5 -33t144.5 -87t87.5 -133.5t45.5 -160.5t12 -180v-74h-750q3 -193 64 -271.5t202 -78.5q228 0 242 164l225 -8q-7 -80 -33.5 -143t-79.5 -115t-144.5 -80.5t-217.5 -28.5q-144 0 -245.5 39.5 t-162.5 119.5t-88.5 191.5t-27.5 264.5zM346 719h473q-11 137 -62.5 203.5t-168.5 66.5q-116 0 -171.5 -64.5t-70.5 -205.5zM412 1417l399 273l123 -197l-430 -223z" />
<glyph unicode="&#xea;" horiz-adv-x="1153" d="M74 586q0 102 13 186.5t48.5 166t92 137.5t149 90t213.5 34q120 0 210.5 -33t144.5 -87t87.5 -133.5t45.5 -160.5t12 -180v-74h-750q3 -193 64 -271.5t202 -78.5q228 0 242 164l225 -8q-7 -80 -33.5 -143t-79.5 -115t-144.5 -80.5t-217.5 -28.5q-144 0 -245.5 39.5 t-162.5 119.5t-88.5 191.5t-27.5 264.5zM260 1380l262 301h125l262 -301l-98 -98l-227 172l-226 -172zM346 719h473q-11 137 -62.5 203.5t-168.5 66.5q-116 0 -171.5 -64.5t-70.5 -205.5z" />
<glyph unicode="&#xeb;" horiz-adv-x="1148" d="M70 586q0 102 13 186.5t48.5 166t92 137.5t149 90t213.5 34q120 0 210.5 -33t144.5 -87t87 -133.5t45 -160t12 -180.5v-74h-749q3 -193 64 -271.5t202 -78.5q228 0 242 164l225 -8q-7 -80 -33.5 -143t-79.5 -115t-144.5 -80.5t-217.5 -28.5q-144 0 -245.5 39.5 t-162.5 119.5t-88.5 191.5t-27.5 264.5zM217 1468q0 26 1.5 43.5t9.5 40.5t22 36.5t40.5 23.5t63.5 10q47 0 77.5 -13t43.5 -38.5t17 -48t4 -54.5q0 -35 -4 -57t-17 -46t-43 -36t-78 -12q-46 0 -75.5 12t-42 36t-16 46t-3.5 57zM342 719h473q-11 137 -62.5 203.5 t-168.5 66.5q-116 0 -171.5 -64.5t-70.5 -205.5zM664 1468q0 26 1.5 43.5t9.5 40.5t22 36.5t40.5 23.5t63.5 10q38 0 65.5 -10t42 -23.5t22 -36.5t9.5 -40.5t2 -43.5q0 -35 -3.5 -57t-16.5 -46t-43 -36t-78 -12q-46 0 -75.5 12t-42 36t-16 46t-3.5 57z" />
<glyph unicode="&#xec;" horiz-adv-x="659" d="M39 1493l123 197l399 -273l-92 -147zM193 0v1171h274v-1171h-274z" />
<glyph unicode="&#xed;" horiz-adv-x="659" d="M111 1417l399 273l123 -197l-430 -223zM193 0v1171h274v-1171h-274z" />
<glyph unicode="&#xee;" horiz-adv-x="659" d="M-14 1380l262 301h125l262 -301l-98 -98l-228 172l-225 -172zM193 0v1171h274v-1171h-274z" />
<glyph unicode="&#xef;" horiz-adv-x="659" d="M-33 1468q0 26 1.5 43.5t9.5 40.5t22 36.5t40.5 23.5t63.5 10q47 0 77.5 -13t43.5 -38.5t17 -48t4 -54.5q0 -35 -4 -57t-17 -46t-43 -36t-78 -12q-46 0 -75.5 12t-42 36t-16 46t-3.5 57zM193 0v1171h274v-1171h-274zM414 1468q0 26 1.5 43.5t9.5 40.5t22 36.5t40.5 23.5 t63.5 10q38 0 65.5 -10t42 -23.5t22 -36.5t9.5 -40.5t2 -43.5q0 -35 -3.5 -57t-16.5 -46t-43 -36t-78 -12q-46 0 -75.5 12t-42 36t-16 46t-3.5 57z" />
<glyph unicode="&#xf0;" horiz-adv-x="1212" d="M74 504q0 56 6.5 107.5t23.5 106t43 100t68 87t96 70t129.5 45t165.5 16.5q117 0 213 -69q-38 120 -104 227l-199 -80v178l96 39l-75 80l129 154q82 -70 153 -152l275 109v-179l-172 -67q217 -326 217 -729v-43q0 -81 -13.5 -152t-50 -143t-94.5 -123t-154 -83t-221 -32 t-221 32t-153.5 83t-94 123t-50 143t-13.5 152zM348 504q0 -48 5.5 -90.5t22.5 -88t44.5 -77.5t75 -53t110.5 -21t110.5 21t75 53t44.5 77.5t22.5 88t5.5 90.5t-5.5 90.5t-22.5 88t-44.5 77.5t-75 53t-110.5 21t-110.5 -21t-75 -53t-44.5 -77.5t-22.5 -88t-5.5 -90.5z" />
<glyph unicode="&#xf1;" horiz-adv-x="1357" d="M193 0v1171h129l88 -106q83 59 190 97t215 38q190 0 280.5 -100t90.5 -273v-827h-275v799q0 104 -38 147t-132 43q-146 0 -274 -92v-897h-274zM356 1386q35 129 87.5 184.5t125.5 55.5q50 0 147 -37t124 -37q36 0 56 21.5t34 68.5l151 -49q-35 -129 -87.5 -184 t-125.5 -55q-50 0 -145.5 36.5t-122.5 36.5q-36 0 -56 -21.5t-34 -68.5z" />
<glyph unicode="&#xf2;" horiz-adv-x="1212" d="M74 586q0 102 13.5 186.5t50 166t94.5 137.5t153.5 90t220.5 34q126 0 221 -34t153.5 -90t95 -137.5t50 -166t13.5 -186.5t-13.5 -186.5t-50 -166t-95 -138t-154 -90.5t-220.5 -34t-220.5 34t-153.5 90.5t-94.5 138t-50 166t-13.5 186.5zM336 1493l123 197l399 -273 l-92 -147zM348 586q0 -75 5.5 -131.5t22 -110t44.5 -87.5t75 -54.5t111 -20.5t111 20.5t75 54.5t44.5 87.5t22 110t5.5 131.5q0 62 -4 110.5t-14 96t-29 82t-47 61t-69 40t-95 13.5q-64 0 -111 -20.5t-75 -54t-44.5 -87.5t-22 -110t-5.5 -131z" />
<glyph unicode="&#xf3;" horiz-adv-x="1212" d="M74 586q0 102 13.5 186.5t50 166t94.5 137.5t153.5 90t220.5 34q126 0 221 -34t153.5 -90t95 -137.5t50 -166t13.5 -186.5t-13.5 -186.5t-50 -166t-95 -138t-154 -90.5t-220.5 -34t-220.5 34t-153.5 90.5t-94.5 138t-50 166t-13.5 186.5zM348 586q0 -75 5.5 -131.5 t22 -110t44.5 -87.5t75 -54.5t111 -20.5t111 20.5t75 54.5t44.5 87.5t22 110t5.5 131.5q0 62 -4 110.5t-14 96t-29 82t-47 61t-69 40t-95 13.5q-64 0 -111 -20.5t-75 -54t-44.5 -87.5t-22 -110t-5.5 -131zM432 1417l399 273l123 -197l-430 -223z" />
<glyph unicode="&#xf4;" horiz-adv-x="1212" d="M74 586q0 102 13.5 186.5t50 166t94.5 137.5t153.5 90t220.5 34q126 0 221 -34t153.5 -90t95 -137.5t50 -166t13.5 -186.5t-13.5 -186.5t-50 -166t-95 -138t-154 -90.5t-220.5 -34t-220.5 34t-153.5 90.5t-94.5 138t-50 166t-13.5 186.5zM281 1380l262 301h125l262 -301 l-99 -98l-227 172l-225 -172zM348 586q0 -75 5.5 -131.5t22 -110t44.5 -87.5t75 -54.5t111 -20.5t111 20.5t75 54.5t44.5 87.5t22 110t5.5 131.5q0 62 -4 110.5t-14 96t-29 82t-47 61t-69 40t-95 13.5q-64 0 -111 -20.5t-75 -54t-44.5 -87.5t-22 -110t-5.5 -131z" />
<glyph unicode="&#xf5;" horiz-adv-x="1212" d="M74 586q0 102 13.5 186.5t50 166t94.5 137.5t153.5 90t220.5 34q126 0 221 -34t153.5 -90t95 -137.5t50 -166t13.5 -186.5t-13.5 -186.5t-50 -166t-95 -138t-154 -90.5t-220.5 -34t-220.5 34t-153.5 90.5t-94.5 138t-50 166t-13.5 186.5zM244 1386q35 129 87.5 184.5 t125.5 55.5q50 0 146.5 -37t123.5 -37q36 0 56 21.5t34 68.5l152 -49q-35 -129 -87.5 -184t-125.5 -55q-50 0 -146 36.5t-123 36.5q-36 0 -56 -21.5t-34 -68.5zM348 586q0 -75 5.5 -131.5t22 -110t44.5 -87.5t75 -54.5t111 -20.5t111 20.5t75 54.5t44.5 87.5t22 110 t5.5 131.5q0 62 -4 110.5t-14 96t-29 82t-47 61t-69 40t-95 13.5q-64 0 -111 -20.5t-75 -54t-44.5 -87.5t-22 -110t-5.5 -131z" />
<glyph unicode="&#xf6;" horiz-adv-x="1212" d="M74 586q0 102 13.5 186.5t50 166t94.5 137.5t153.5 90t220.5 34q126 0 221 -34t153.5 -90t95 -137.5t50 -166t13.5 -186.5t-13.5 -186.5t-50 -166t-95 -138t-154 -90.5t-220.5 -34t-220.5 34t-153.5 90.5t-94.5 138t-50 166t-13.5 186.5zM244 1468q0 26 1.5 43.5 t9.5 40.5t22 36.5t40.5 23.5t63.5 10q38 0 65.5 -10t42 -23.5t22 -36.5t9.5 -40.5t2 -43.5q0 -35 -3.5 -57t-16.5 -46t-43 -36t-78 -12q-46 0 -75.5 12t-42 36t-16 46t-3.5 57zM348 586q0 -75 5.5 -131.5t22 -110t44.5 -87.5t75 -54.5t111 -20.5t111 20.5t75 54.5t44.5 87.5 t22 110t5.5 131.5q0 62 -4 110.5t-14 96t-29 82t-47 61t-69 40t-95 13.5q-64 0 -111 -20.5t-75 -54t-44.5 -87.5t-22 -110t-5.5 -131zM690 1468q0 26 1.5 43.5t9.5 40.5t22 36.5t40.5 23.5t63.5 10q47 0 77.5 -13t43.5 -38.5t17 -48t4 -54.5q0 -35 -4 -57t-17 -46t-43 -36 t-78 -12q-46 0 -75.5 12t-42 36t-16 46t-3.5 57z" />
<glyph unicode="&#xf7;" horiz-adv-x="1187" d="M176 557v188h836v-188h-836zM463 272q0 26 1.5 44t9 40.5t20.5 36.5t38 23.5t60 9.5q36 0 61.5 -9.5t39.5 -23.5t21.5 -36.5t9 -40.5t1.5 -44q0 -25 -1.5 -43t-9 -40t-21.5 -35.5t-39.5 -23t-61.5 -9.5q-35 0 -60 9.5t-38 23t-20.5 35.5t-9 40t-1.5 43zM463 1008 q0 26 1.5 44t9 40.5t20.5 36t38 23t60 9.5q36 0 61.5 -9.5t39.5 -23t21.5 -36t9 -40.5t1.5 -44q0 -33 -3.5 -54.5t-15.5 -46.5t-41 -38t-73 -13q-43 0 -71 13t-39.5 38t-15 47t-3.5 54z" />
<glyph unicode="&#xf8;" horiz-adv-x="1212" d="M74 586q0 102 13.5 186.5t50 166t94.5 137.5t153.5 90t220.5 34q26 0 76 -4l57 209h174l-65 -246q291 -117 291 -573q0 -102 -13.5 -186.5t-50 -166t-95 -138t-154 -90.5t-220.5 -34q-28 0 -78 4l-55 -211h-172l66 246q-293 117 -293 576zM348 586q0 -124 17.5 -207 t64.5 -133l197 743h-21q-64 0 -111 -20.5t-75 -54t-44.5 -87.5t-22 -110t-5.5 -131zM586 182h20q64 0 111 20.5t75 54.5t44.5 87.5t22 110t5.5 131.5q0 247 -80 336z" />
<glyph unicode="&#xf9;" horiz-adv-x="1359" d="M172 344v827h274v-782q0 -106 42.5 -156.5t140.5 -50.5q139 0 264 131v858h274v-1171h-178l-78 141q-159 -170 -379 -170q-360 0 -360 373zM354 1493l123 197l400 -273l-93 -147z" />
<glyph unicode="&#xfa;" horiz-adv-x="1359" d="M172 344v827h274v-782q0 -106 42.5 -156.5t140.5 -50.5q139 0 264 131v858h274v-1171h-178l-78 141q-159 -170 -379 -170q-360 0 -360 373zM520 1417l400 273l122 -197l-430 -223z" />
<glyph unicode="&#xfb;" horiz-adv-x="1359" d="M172 344v827h274v-782q0 -106 42.5 -156.5t140.5 -50.5q139 0 264 131v858h274v-1171h-178l-78 141q-159 -170 -379 -170q-360 0 -360 373zM362 1380l263 301h125l262 -301l-99 -98l-227 172l-225 -172z" />
<glyph unicode="&#xfc;" horiz-adv-x="1359" d="M172 344v827h274v-782q0 -106 42.5 -156.5t140.5 -50.5q139 0 264 131v858h274v-1171h-178l-78 141q-159 -170 -379 -170q-360 0 -360 373zM324 1468q0 26 1.5 43.5t9.5 40.5t22 36.5t40.5 23.5t63.5 10q38 0 65.5 -10t42 -23.5t22 -36.5t9.5 -40.5t2 -43.5 q0 -35 -3.5 -57t-16.5 -46t-43 -36t-78 -12q-46 0 -75.5 12t-42 36t-16 46t-3.5 57zM770 1468q0 26 1.5 43.5t9.5 40.5t22 36.5t40.5 23.5t63.5 10q47 0 77.5 -13t43.5 -38.5t17 -48t4 -54.5q0 -35 -4 -57t-17 -46t-43 -36t-78 -12q-46 0 -75.5 12t-42 36t-16 46t-3.5 57z " />
<glyph unicode="&#xfd;" horiz-adv-x="1110" d="M8 1171h277l280 -815l254 815h281l-586 -1656l-244 36l166 433zM362 1417l400 273l123 -197l-430 -223z" />
<glyph unicode="&#xfe;" horiz-adv-x="1298" d="M193 -420v1915l274 25v-410q145 90 291 90q110 0 193.5 -34t135 -90t83 -137.5t43.5 -166t12 -186.5q0 -84 -8.5 -156t-28 -144t-55 -127t-86 -98.5t-124.5 -66.5t-167 -23q-135 0 -289 52v-443h-274zM467 223q111 -39 223 -39q140 0 200 102.5t60 299.5q0 401 -262 401 q-115 0 -221 -80v-684z" />
<glyph unicode="&#xff;" horiz-adv-x="1110" d="M8 1171h277l280 -815l254 815h281l-586 -1656l-244 36l166 433zM240 1468q0 26 1.5 43.5t9.5 40.5t22 36.5t40.5 23.5t63.5 10q38 0 65.5 -10t42 -23.5t22 -36.5t9.5 -40.5t2 -43.5q0 -35 -3.5 -57t-16.5 -46t-43 -36t-78 -12q-46 0 -75.5 12t-42 36t-16 46t-3.5 57z M686 1468q0 26 1.5 43.5t9.5 40.5t22 36.5t40.5 23.5t63.5 10q47 0 77.5 -13t43.5 -38.5t17 -48t4 -54.5q0 -35 -4 -57t-17 -46t-43 -36t-78 -12q-46 0 -75.5 12t-42 36t-16 46t-3.5 57z" />
<glyph unicode="&#x152;" horiz-adv-x="1943" d="M115 748q0 96 7.5 176t26.5 158t49 139t76.5 113.5t108.5 87t145.5 54t186.5 19.5h1118v-215h-633q96 -146 113 -414h469v-213h-467q-13 -287 -115 -438h674v-215h-1159q-143 0 -249.5 37.5t-172.5 101t-106.5 161t-56 204.5t-15.5 244zM393 748q0 -121 14 -210.5 t48.5 -163.5t99.5 -112.5t160 -38.5q77 0 134 26.5t93 71t57.5 113t30 143.5t8.5 171t-8.5 171t-30 143t-57.5 113t-93 71t-134 26t-134 -26t-92.5 -71t-57.5 -113.5t-30 -143t-8 -170.5z" />
<glyph unicode="&#x153;" horiz-adv-x="1951" d="M74 586q0 102 13.5 186.5t50 166t94.5 137.5t153.5 90t220.5 34q268 0 398 -153q127 153 385 153q120 0 210.5 -33t144.5 -87t87 -133.5t45 -160t12 -180.5v-74h-749q4 -192 65 -271t201 -79q228 0 242 164l225 -8q-7 -80 -33.5 -143t-79.5 -115t-144.5 -80.5 t-217.5 -28.5q-276 0 -398 150q-130 -150 -393 -150q-125 0 -220.5 34t-153.5 90.5t-94.5 138t-50 166t-13.5 186.5zM348 586q0 -75 5.5 -131.5t22 -110t44.5 -87.5t75 -54.5t111 -20.5t110.5 20t74.5 53.5t44.5 86t22.5 108.5t6 130q0 78 -5.5 134t-21.5 111t-44 89 t-75 54.5t-112 20.5q-64 0 -111 -20.5t-75 -54t-44.5 -87.5t-22 -110t-5.5 -131zM1147 719h471q-11 136 -63 203t-169 67q-115 0 -170 -65.5t-69 -204.5z" />
<glyph unicode="&#x178;" horiz-adv-x="1175" d="M-12 1495h278l322 -715l321 715h279l-461 -975v-520h-278v520zM225 1792q0 26 1.5 43.5t9.5 40.5t22 36.5t40.5 23.5t63.5 10q47 0 77.5 -13t43.5 -38.5t17 -48t4 -54.5q0 -35 -4 -57t-17 -46.5t-43 -36.5t-78 -12q-37 0 -63.5 9t-40.5 22t-22 35t-9.5 40.5t-1.5 45.5z M672 1792q0 26 1.5 43.5t9.5 40.5t22 36.5t40.5 23.5t63.5 10q38 0 65.5 -10t42 -23.5t22 -36.5t9.5 -40.5t2 -43.5q0 -27 -2 -45.5t-9.5 -40.5t-22 -35t-42 -22t-65.5 -9q-37 0 -63.5 9t-40.5 22t-22 35t-9.5 40.5t-1.5 45.5z" />
<glyph unicode="&#x2c6;" horiz-adv-x="788" d="M70 1380l262 301h125l262 -301l-98 -98l-228 172l-225 -172z" />
<glyph unicode="&#x2dc;" horiz-adv-x="806" d="M41 1386q35 129 87.5 184.5t125.5 55.5q50 0 146.5 -37t123.5 -37q36 0 56 21.5t34 68.5l152 -49q-35 -129 -87.5 -184t-125.5 -55q-50 0 -145.5 36.5t-122.5 36.5q-36 0 -56 -21.5t-34 -68.5z" />
<glyph unicode="&#x2000;" horiz-adv-x="1019" />
<glyph unicode="&#x2001;" horiz-adv-x="2038" />
<glyph unicode="&#x2002;" horiz-adv-x="1019" />
<glyph unicode="&#x2003;" horiz-adv-x="2038" />
<glyph unicode="&#x2004;" horiz-adv-x="679" />
<glyph unicode="&#x2005;" horiz-adv-x="509" />
<glyph unicode="&#x2006;" horiz-adv-x="339" />
<glyph unicode="&#x2007;" horiz-adv-x="339" />
<glyph unicode="&#x2008;" horiz-adv-x="254" />
<glyph unicode="&#x2009;" horiz-adv-x="407" />
<glyph unicode="&#x200a;" horiz-adv-x="113" />
<glyph unicode="&#x2010;" horiz-adv-x="974" d="M127 557v188h721v-188h-721z" />
<glyph unicode="&#x2011;" horiz-adv-x="974" d="M127 557v188h721v-188h-721z" />
<glyph unicode="&#x2012;" horiz-adv-x="974" d="M127 557v188h721v-188h-721z" />
<glyph unicode="&#x2013;" horiz-adv-x="1155" d="M127 557v188h901v-188h-901z" />
<glyph unicode="&#x2014;" horiz-adv-x="1837" d="M127 557v188h1583v-188h-1583z" />
<glyph unicode="&#x2018;" horiz-adv-x="561" d="M115 1161q0 251 260 443l71 -84q-42 -31 -68 -74t-26 -88q0 -23 20.5 -84t20.5 -113q0 -28 -1.5 -47t-9 -42.5t-21.5 -37.5t-39.5 -23.5t-61.5 -9.5q-45 0 -75 13.5t-44.5 38t-20 50t-5.5 58.5z" />
<glyph unicode="&#x2019;" horiz-adv-x="512" d="M115 1083q41 30 67.5 74t26.5 88q0 24 -20.5 85t-20.5 114q0 28 1.5 47t9 42.5t21.5 37.5t39.5 23.5t61.5 9.5q45 0 75 -13.5t44.5 -38t20 -50t5.5 -58.5q0 -251 -260 -443z" />
<glyph unicode="&#x201a;" horiz-adv-x="462" d="M39 -199q45 43 69.5 79.5t24.5 82.5q0 26 -20.5 86.5t-20.5 102.5q0 33 4 55.5t16.5 47t42 37.5t74.5 13q47 0 77.5 -13t43.5 -38t17 -47t4 -55q0 -230 -260 -435z" />
<glyph unicode="&#x201c;" horiz-adv-x="931" d="M115 1161q0 251 260 443l71 -84q-94 -83 -94 -162q0 -23 20.5 -84t20.5 -113q0 -27 -2 -47t-10 -42.5t-22.5 -37t-40.5 -24t-62 -9.5q-45 0 -74.5 13.5t-43 38.5t-18.5 49.5t-5 58.5zM485 1161q0 251 260 443l72 -84q-42 -31 -68 -74t-26 -88q0 -23 20.5 -84t20.5 -113 q0 -28 -1.5 -47t-9 -42.5t-21.5 -37.5t-39.5 -23.5t-61.5 -9.5q-45 0 -75.5 13.5t-45 38t-20 50t-5.5 58.5z" />
<glyph unicode="&#x201d;" horiz-adv-x="931" d="M115 1083q41 30 67.5 74t26.5 88q0 24 -20.5 85t-20.5 114q0 28 1.5 47t9 42.5t21.5 37.5t39.5 23.5t61.5 9.5q45 0 75 -13.5t44.5 -38t20 -50t5.5 -58.5q0 -251 -260 -443zM485 1083q95 84 95 162q0 24 -20.5 85t-20.5 114q0 27 2 47t10 42.5t22.5 37t40.5 24t62 9.5 q45 0 74.5 -13.5t43 -38.5t18.5 -49.5t5 -58.5q0 -251 -260 -443z" />
<glyph unicode="&#x201e;" horiz-adv-x="833" d="M39 -201q41 30 67.5 74t26.5 88q0 24 -20.5 85t-20.5 114q0 36 3.5 59t15.5 48.5t40.5 38.5t73.5 13t75.5 -13.5t45 -37.5t20 -49.5t5.5 -58.5q0 -251 -260 -443zM410 -201q94 83 94 162q0 24 -20.5 85t-20.5 114q0 35 4 59t17 49t42 38t74 13t74.5 -13t43 -38 t18.5 -49.5t5 -58.5q0 -251 -260 -443z" />
<glyph unicode="&#x2022;" horiz-adv-x="557" d="M49 678q0 42 3 71t15.5 64t35.5 56.5t64.5 36t100.5 14.5q61 0 104 -15t66 -36t35.5 -56.5t15.5 -64t3 -70.5q0 -40 -3 -68t-15.5 -63.5t-35.5 -57t-66 -36.5t-104 -15q-58 0 -100.5 15t-64.5 37t-35 56.5t-16 63t-3 68.5z" />
<glyph unicode="&#x2026;" horiz-adv-x="1503" d="M92 143q0 35 4 59t17.5 50t45 39.5t79.5 13.5q41 0 69.5 -10t44 -24t23.5 -38t10 -43t2 -47q0 -35 -4 -57.5t-17.5 -48.5t-45.5 -39.5t-82 -13.5q-39 0 -67 10t-43 24.5t-23.5 37.5t-10.5 42t-2 45zM604 143q0 35 4 59t17.5 50t45 39.5t79.5 13.5q41 0 69.5 -10t44 -24 t23.5 -38t10 -43t2 -47q0 -35 -4 -57.5t-17.5 -48.5t-45.5 -39.5t-82 -13.5q-39 0 -67 10t-43 24.5t-23.5 37.5t-10.5 42t-2 45zM1116 143q0 35 4 59t17.5 50t45 39.5t79.5 13.5q41 0 69.5 -10t44 -24t23.5 -38t10 -43t2 -47q0 -35 -4 -57.5t-17.5 -48.5t-45.5 -39.5 t-82 -13.5q-39 0 -67 10t-43 24.5t-23.5 37.5t-10.5 42t-2 45z" />
<glyph unicode="&#x202f;" horiz-adv-x="407" />
<glyph unicode="&#x2039;" horiz-adv-x="624" d="M45 596v98l369 391l133 -131l-234 -309l234 -309l-133 -131z" />
<glyph unicode="&#x203a;" horiz-adv-x="624" d="M78 336l233 309l-233 309l133 131l369 -391v-98l-369 -391z" />
<glyph unicode="&#x205f;" horiz-adv-x="509" />
<glyph unicode="&#x20ac;" horiz-adv-x="1290" d="M59 487v187h129v147h-129v187h146q14 92 39.5 168t69 142t102.5 110.5t142.5 70t186.5 25.5q245 0 367 -104t127 -294l-242 -16q0 94 -70.5 145.5t-183.5 51.5q-119 0 -181 -76.5t-85 -222.5h381v-187h-395v-147h395v-187h-381q23 -147 85 -224t181 -77q114 0 185 53 t71 150l242 -16q-3 -193 -126 -297.5t-372 -104.5q-103 0 -186.5 25.5t-142 70t-101.5 110t-68.5 141.5t-39.5 169h-146z" />
<glyph unicode="&#x2122;" horiz-adv-x="2058" d="M113 1317v178h655v-178h-219v-727h-217v727h-219zM918 590v905h313l153 -496l170 496h310v-905h-215v608l-168 -475h-197l-149 455v-588h-217z" />
<glyph unicode="&#x25fc;" horiz-adv-x="1167" d="M0 0v1167h1167v-1167h-1167z" />
</font>
</defs>
</svg>
