<?xml version="1.0" standalone="no"?>
<!DOCTYPE svg PUBLIC "-//W3C//DTD SVG 1.1//EN" "http://www.w3.org/Graphics/SVG/1.1/DTD/svg11.dtd" >
<svg xmlns="http://www.w3.org/2000/svg">
<metadata></metadata>
<defs>
<font id="sintonyregular" horiz-adv-x="1298" >
<font-face units-per-em="2048" ascent="1638" descent="-410" />
<missing-glyph horiz-adv-x="593" />
<glyph unicode="&#xfb01;" horiz-adv-x="1310" d="M115 1051v120h135v91q0 325 323 325q123 0 218 -35l-46 -133q-73 29 -159 29q-82 0 -121 -45t-39 -141v-91h270v-120h-270v-1051h-176v1051h-135zM901 1481q0 114 105 114q64 0 86 -31.5t22 -82.5q0 -113 -108 -113q-105 0 -105 113zM918 0v1171h176v-1171h-176z" />
<glyph unicode="&#xfb02;" horiz-adv-x="1310" d="M115 1051v120h135v91q0 325 323 325q123 0 218 -35l-46 -133q-73 29 -159 29q-82 0 -121 -45t-39 -141v-91h270v-120h-270v-1051h-176v1051h-135zM918 0v1552l176 25v-1577h-176z" />
<glyph horiz-adv-x="2048" />
<glyph horiz-adv-x="2048" />
<glyph unicode="&#xd;" horiz-adv-x="2048" />
<glyph unicode=" "  horiz-adv-x="593" />
<glyph unicode="&#x09;" horiz-adv-x="593" />
<glyph unicode="&#xa0;" horiz-adv-x="593" />
<glyph unicode="!" horiz-adv-x="638" d="M209 109q0 28 3 46t12.5 39t33 31.5t59.5 10.5q38 0 62 -10.5t34.5 -31.5t13.5 -39.5t3 -45.5t-3 -45t-13.5 -38.5t-34.5 -31t-62 -10.5q-36 0 -59.5 10.5t-33 31t-12.5 38.5t-3 45zM219 1159v336h197v-336l-45 -768h-107z" />
<glyph unicode="&#x22;" horiz-adv-x="827" d="M147 1384v111h189v-111l-41 -391h-107zM492 1384v111h188v-111l-41 -391h-107z" />
<glyph unicode="#" horiz-adv-x="1638" d="M115 356l24 144h230l90 493h-232l25 144h231l95 512h178l-94 -512h456l94 512h179l-95 -512h228l-25 -144h-227l-90 -493h229l-25 -144h-231l-92 -512h-178l92 512h-457l-92 -512h-178l92 512h-227zM547 500h457l90 493h-457z" />
<glyph unicode="$" horiz-adv-x="1290" d="M162 412l155 10q0 -147 75.5 -219t256.5 -72q177 0 247.5 69t70.5 210q0 200 -224 241l-198 31q-191 30 -276 126.5t-85 272.5q0 199 92 305t310 119v221h125v-221q218 -13 312.5 -118.5t94.5 -301.5l-155 -10q0 146 -71 216.5t-239 70.5q-165 0 -229 -70t-64 -211 q0 -215 197 -241l199 -27q202 -29 293.5 -128.5t91.5 -274.5q0 -191 -101 -301t-329 -121v-219h-125v219q-228 13 -326 120t-98 304z" />
<glyph unicode="%" horiz-adv-x="2007" d="M102 1083q0 97 14 169.5t47 134t96.5 94t154.5 32.5t154 -32.5t95.5 -94t46 -134t13.5 -169.5q0 -77 -8 -138t-28.5 -118t-54.5 -94.5t-89 -59.5t-129 -22t-129 22t-89.5 59.5t-56 94t-29.5 118t-8 138.5zM260 1083q0 -159 32.5 -234t121.5 -75q87 0 119 75t32 234 q0 158 -32 233t-119 75q-89 0 -121.5 -75t-32.5 -233zM698 -135l439 1640h125l-441 -1640h-123zM1231 416q0 97 13.5 169.5t47 134t96.5 94t154 32.5t154 -32.5t95.5 -94t46 -134t13.5 -169.5q0 -77 -8 -138t-28.5 -118t-54.5 -94.5t-89 -59.5t-129 -22q-91 0 -154 32.5 t-96.5 94t-47 134.5t-13.5 171zM1389 416q0 -79 6.5 -132.5t23 -95.5t47 -62t76.5 -20q87 0 119.5 75.5t32.5 234.5q0 157 -32.5 232t-119.5 75q-89 0 -121 -74.5t-32 -232.5z" />
<glyph unicode="&#x26;" d="M104 391q0 147 78 241.5t209 135.5q-110 45 -178 140t-68 212q0 192 102 298t333 106q348 0 403 -291l-152 -45q-29 190 -245 190q-146 0 -205 -69t-59 -203q0 -121 67.5 -203t183.5 -82h31v-127q-173 0 -248 -74t-75 -231q0 -137 74.5 -204.5t242.5 -67.5 q167 0 239 69.5t72 204.5v303h-118v127h512v-127h-238v-209q0 -89 -6 -152t-23.5 -125.5t-50 -103.5t-84 -73t-128 -47t-179.5 -15q-490 0 -490 422z" />
<glyph unicode="'" horiz-adv-x="483" d="M147 1384v111h189v-111l-41 -391h-107z" />
<glyph unicode="(" horiz-adv-x="614" d="M119 686q0 98 4 176t16.5 166t33.5 154t57.5 129.5t86.5 104t122.5 65t162.5 24.5v-143q-55 0 -99 -20t-74.5 -53.5t-52.5 -85.5t-35 -106.5t-20 -127.5t-9.5 -137t-2.5 -146t2.5 -146.5t9.5 -138t20 -127.5t35 -106.5t52.5 -86t74.5 -53.5t99 -20v-143 q-90 0 -162.5 24.5t-122.5 65t-86.5 103.5t-57.5 129.5t-33.5 154.5t-16.5 166.5t-4 177.5z" />
<glyph unicode=")" horiz-adv-x="614" d="M12 8q55 0 99 20t74.5 53.5t52.5 85.5t35 106.5t20 127.5t9.5 137t2.5 146t-2.5 146.5t-9.5 138t-20 127.5t-35 106.5t-52.5 86t-74.5 53.5t-99 20v143q90 0 162.5 -24.5t122.5 -65t86.5 -103.5t58 -129.5t34 -154.5t16.5 -166.5t4 -177.5q0 -98 -4 -176t-16.5 -166 t-34 -154t-58 -129.5t-86.5 -104t-122.5 -65t-162.5 -24.5v143z" />
<glyph unicode="*" horiz-adv-x="1132" d="M53 1159l58 170l161 -51l213 -135l-18 -53l-252 16zM193 729l100 141l194 158l45 -35l-90 -233l-100 -139zM473 1425v170h189v-170l-66 -243h-57zM598 993l47 33l195 -156l100 -141l-149 -108l-101 139zM649 1143l209 135l164 51l57 -170l-161 -53l-252 -19z" />
<glyph unicode="+" horiz-adv-x="1187" d="M188 582v139h336v336h140v-336h335v-139h-335v-336h-140v336h-336z" />
<glyph unicode="," horiz-adv-x="462" d="M68 -193q29 26 43.5 42.5t27.5 48.5t13 71q0 20 -14.5 68t-14.5 78q0 26 3 43.5t12.5 37.5t32 30t58.5 10q37 0 61 -10t34 -30t13 -37.5t3 -43.5q0 -58 -20.5 -115.5t-46.5 -96t-62.5 -77t-54 -53t-35.5 -27.5z" />
<glyph unicode="-" horiz-adv-x="999" d="M139 582v139h721v-139h-721z" />
<glyph unicode="." horiz-adv-x="466" d="M123 109q0 28 3 46t12.5 39t33 31.5t59.5 10.5q38 0 62 -10.5t34.5 -31.5t13.5 -39.5t3 -45.5t-3 -45t-13.5 -38.5t-34.5 -31t-62 -10.5q-36 0 -59.5 10.5t-33 31t-12.5 38.5t-3 45z" />
<glyph unicode="/" horiz-adv-x="655" d="M-4 -217l485 1804h178l-485 -1804h-178z" />
<glyph unicode="0" d="M123 748q0 135 13 243.5t48.5 211t93 171t151 109.5t218.5 41t219.5 -41t152 -109.5t93.5 -171t49 -211t13 -243.5q0 -136 -13 -244.5t-49 -211t-93.5 -171t-152 -109.5t-219.5 -41t-218.5 41t-151 109.5t-93 171t-48.5 211t-13 244.5zM299 748q0 -118 9 -209.5 t32.5 -173.5t62.5 -135.5t100 -84t144 -30.5t145 30.5t101 84t63 135.5t33.5 173.5t9.5 209.5q0 117 -9.5 208.5t-33.5 173t-63 134.5t-101 83.5t-145 30.5t-144 -30.5t-100 -83.5t-62.5 -134.5t-32.5 -172.5t-9 -209z" />
<glyph unicode="1" d="M291 0v145h309v1127h-301v110q221 24 348 113h133v-1350h312v-145h-801z" />
<glyph unicode="2" d="M164 0v137l577 625q102 109 150.5 188.5t48.5 175.5q0 116 -72.5 184t-218.5 68q-283 0 -299 -262l-155 25q15 183 130 283t328 100q226 0 344.5 -108t118.5 -294q0 -68 -20.5 -134t-60 -129.5t-80.5 -114.5t-99 -113l-453 -486h730v-145h-969z" />
<glyph unicode="3" d="M145 338l156 18q14 -114 96.5 -176.5t229.5 -62.5q163 0 249.5 67.5t86.5 192.5q0 137 -75 216t-233 79h-186v135h188q136 0 210.5 79.5t74.5 205.5q0 135 -77.5 210.5t-237.5 75.5q-138 0 -215 -70t-86 -194l-154 21q14 185 130.5 287t326.5 102q240 0 364.5 -116 t124.5 -318q0 -118 -62.5 -207.5t-166.5 -137.5q115 -42 181.5 -135t66.5 -235q0 -191 -136 -297.5t-372 -106.5q-225 0 -345 94.5t-139 272.5z" />
<glyph unicode="4" d="M66 334v143l659 1018h258v-1016h182v-145h-182v-334h-176v334h-741zM264 479h543v848z" />
<glyph unicode="5" d="M201 391l155 15q17 -291 314 -291q164 0 244.5 89t80.5 234q0 75 -25.5 130t-83.5 97.5t-161 64.5t-250 22h-246l47 743h811v-145h-661l-31 -451h97q348 0 515 -115t167 -346q0 -99 -32 -183t-93 -148t-158.5 -100t-220.5 -36q-222 0 -339.5 109t-129.5 311z" />
<glyph unicode="6" d="M166 694q0 152 15 274t51.5 228t94 177t146 111t203.5 40q455 0 479 -410l-154 -16q-7 144 -87.5 212t-233.5 68q-78 0 -136.5 -29t-95.5 -77.5t-60 -123.5t-33 -156t-13 -185q179 53 346 53q138 0 238 -31.5t156.5 -89t82 -129t25.5 -161.5q-2 -224 -127 -351t-369 -127 q-143 0 -246 50.5t-164 147t-89.5 226t-28.5 299.5zM342 672q8 -295 87.5 -426t256.5 -131q328 0 328 334q0 123 -80.5 198.5t-257.5 75.5q-166 0 -334 -51z" />
<glyph unicode="7" d="M166 1350v145h969v-135l-586 -1360h-193l586 1350h-776z" />
<glyph unicode="8" d="M143 381q0 262 248 364q-227 97 -227 349q0 90 30 167t88.5 136.5t153 93t215.5 33.5q120 0 214.5 -33.5t153 -93t88.5 -136.5t30 -167q0 -233 -230 -336q250 -94 250 -377q0 -182 -136.5 -296t-369.5 -114q-234 0 -371 114t-137 296zM319 381q0 -116 85.5 -190 t244.5 -74t246.5 74.5t87.5 189.5q0 124 -55.5 195t-184.5 92l-161 26q-129 -21 -196 -103.5t-67 -209.5zM338 1090q0 -113 55 -178.5t187 -86.5l125 -20q127 23 192.5 99t65.5 186q0 127 -77.5 207.5t-234.5 80.5q-158 0 -235.5 -80t-77.5 -208z" />
<glyph unicode="9" d="M119 1047q0 208 137 342.5t383 134.5q112 0 196.5 -34t140.5 -96.5t91.5 -158t50.5 -210t15 -261.5q0 -102 -7 -187.5t-23.5 -168t-43 -148t-67.5 -120.5t-94.5 -91.5t-126 -57t-161.5 -20.5q-223 0 -342 105t-131 299l154 18q6 -134 87 -206t230 -72q175 0 256.5 128.5 t91.5 422.5q-171 -50 -340 -50q-112 0 -200 24.5t-143 65t-90.5 97.5t-49.5 116.5t-14 127.5zM295 1053q0 -54 17.5 -103.5t54 -94t105.5 -71t161 -26.5q165 0 325 41q-3 311 -76 445t-245 134q-166 0 -254 -90.5t-88 -234.5z" />
<glyph unicode=":" horiz-adv-x="466" d="M123 109q0 28 3 46t12.5 39t33 31.5t59.5 10.5q38 0 62 -10.5t34.5 -31.5t13.5 -39.5t3 -45.5t-3 -45t-13.5 -38.5t-34.5 -31t-62 -10.5q-36 0 -59.5 10.5t-33 31t-12.5 38.5t-3 45zM123 958q0 28 3 46t12.5 39t33 31.5t59.5 10.5q38 0 62 -10.5t34.5 -31.5t13.5 -39.5 t3 -45.5t-3 -45t-13.5 -38.5t-34.5 -30.5t-62 -10q-29 0 -50 7.5t-32 18.5t-17 29.5t-7.5 33t-1.5 35.5z" />
<glyph unicode=";" horiz-adv-x="462" d="M68 -193q29 26 43.5 42.5t27.5 48.5t13 71q0 20 -14.5 68t-14.5 78q0 26 3 43.5t12.5 37.5t32 30t58.5 10q37 0 61 -10t34 -30t13 -37.5t3 -43.5q0 -58 -20.5 -115.5t-46.5 -96t-62.5 -77t-54 -53t-35.5 -27.5zM121 958q0 28 3 46t12.5 39t33 31.5t59.5 10.5 q38 0 62 -10.5t34.5 -31.5t13.5 -39.5t3 -45.5t-3 -45t-13.5 -38.5t-34.5 -30.5t-62 -10q-29 0 -50 7.5t-32 18.5t-17 29.5t-7.5 33t-1.5 35.5z" />
<glyph unicode="&#x3c;" horiz-adv-x="1187" d="M182 561v176l824 346v-153l-689 -281l689 -280v-154z" />
<glyph unicode="=" horiz-adv-x="1187" d="M188 373v139h811v-139h-811zM188 791v139h811v-139h-811z" />
<glyph unicode="&#x3e;" horiz-adv-x="1187" d="M182 215v154l688 280l-688 281v153l824 -346v-176z" />
<glyph unicode="?" horiz-adv-x="983" d="M74 1210q24 146 128.5 230t282.5 84q109 0 196 -36t140 -97t81 -136.5t28 -158.5q0 -315 -402 -455l-22 -250h-113l-16 311q198 66 289.5 159.5t91.5 230.5q0 54 -16 105t-48 94t-86.5 69t-124.5 26q-219 0 -258 -196zM340 109q0 27 3 45.5t13 39.5t33.5 31.5t59.5 10.5 q37 0 61 -10.5t34.5 -31.5t13.5 -39.5t3 -45.5t-3 -45.5t-13.5 -38.5t-34.5 -30.5t-61 -10.5q-36 0 -59.5 10.5t-33.5 31t-13 38.5t-3 45z" />
<glyph unicode="@" horiz-adv-x="2097" d="M176 672q0 158 30.5 288.5t97.5 239t168.5 182.5t248.5 115t332 41q219 0 387.5 -60t272.5 -167.5t156 -249t52 -313.5q0 -492 -467 -492h-164l-47 125q-152 -145 -328 -145q-313 0 -313 460q0 461 379 461q149 0 297 -74l51 74h66v-778h55q89 0 150 25t95.5 74.5 t49 114.5t14.5 155q0 113 -22 208t-74 179.5t-132 143t-201.5 92.5t-276.5 34q-157 0 -277.5 -34.5t-201 -97t-131.5 -155t-73 -201.5t-22 -245q0 -99 8 -179t28.5 -157.5t54.5 -136t88 -109.5t127 -83t173.5 -50t225.5 -18h342v-134h-342q-147 0 -267.5 21.5t-211 60 t-159 97.5t-113.5 129.5t-73.5 161t-40.5 186.5t-12 211zM762 696q0 -155 49.5 -245.5t157.5 -90.5q140 0 266 132v489q-110 51 -223 51q-135 0 -192.5 -87.5t-57.5 -248.5z" />
<glyph unicode="A" horiz-adv-x="1286" d="M35 0l487 1495h240l489 -1495h-178l-145 451h-570l-145 -451h-178zM403 594h478l-238 741z" />
<glyph unicode="B" horiz-adv-x="1255" d="M217 0v1495h410q105 0 186 -21.5t131 -57t82 -86t44.5 -103.5t12.5 -115q0 -259 -215 -338q293 -64 293 -375q0 -65 -12.5 -120.5t-44.5 -108t-82 -89.5t-131 -59t-186 -22h-488zM397 143h305q144 0 211.5 73.5t67.5 197.5q0 127 -68 202.5t-211 75.5h-305v-549zM397 838 h228q143 0 210.5 69t67.5 187q0 120 -67 189t-211 69h-228v-514z" />
<glyph unicode="C" horiz-adv-x="1306" d="M152 750q0 153 15 267.5t53.5 213.5t103 161t165.5 97t238 35q115 0 200 -27.5t139 -80.5t84 -122t42 -161l-145 -27q-43 270 -320 270q-83 0 -146.5 -18t-106.5 -57t-71 -89t-43.5 -124.5t-21.5 -153t-6 -184.5q0 -91 4 -161t15 -138t30 -117t49 -91.5t71 -68.5 t97.5 -40.5t128.5 -14.5q165 0 243 91t83 245l147 -9q-7 -111 -34.5 -194.5t-81.5 -148.5t-143.5 -98.5t-213.5 -33.5q-137 0 -238 35t-165.5 98t-103 162.5t-53.5 214.5t-15 269z" />
<glyph unicode="D" horiz-adv-x="1429" d="M217 0v1495h455q102 0 185.5 -20t143.5 -55t105.5 -88.5t74 -114.5t46 -139.5t24 -157t6.5 -172.5q0 -112 -10 -202t-33.5 -178t-66.5 -152.5t-106.5 -114.5t-156.5 -75.5t-212 -25.5h-455zM397 143h267q103 0 178 32t119.5 84t71 133.5t35.5 164t9 191.5t-9 191.5 t-35.5 163.5t-71 133t-119.5 84t-178 32h-267v-1209z" />
<glyph unicode="E" horiz-adv-x="1146" d="M217 0v1495h795v-143h-615v-521h572v-143h-572v-545h656v-143h-836z" />
<glyph unicode="F" horiz-adv-x="1060" d="M217 0v1495h754v-143h-574v-521h527v-143h-527v-688h-180z" />
<glyph unicode="G" horiz-adv-x="1419" d="M152 750q0 153 15 267.5t53.5 213.5t103 161t165.5 97t238 35q115 0 200 -27.5t139 -80.5t84 -122t42 -161l-145 -27q-43 270 -320 270q-83 0 -146.5 -18t-106.5 -57t-71 -89.5t-43.5 -125t-21.5 -153.5t-6 -185q0 -131 8.5 -223t32.5 -173.5t65.5 -129.5t109.5 -75.5 t163 -27.5q162 0 251 82.5t101 224.5v205h-232v121h392v-752h-99l-30 178q-127 -207 -387 -207q-98 0 -176.5 18.5t-136 51.5t-100 85.5t-70 114.5t-43.5 145t-22.5 169t-6.5 195z" />
<glyph unicode="H" horiz-adv-x="1486" d="M217 0v1495h180v-676h693v676h180v-1495h-180v676h-693v-676h-180z" />
<glyph unicode="I" horiz-adv-x="614" d="M217 0v1495h180v-1495h-180z" />
<glyph unicode="J" horiz-adv-x="956" d="M33 387h155q0 -151 43 -209.5t162 -58.5q118 0 157.5 54t39.5 202v1120h180v-1120q0 -53 -3 -92.5t-12 -84t-25.5 -76t-45 -62t-68.5 -48.5t-98 -29.5t-131 -11.5q-56 0 -102.5 7.5t-81 19t-61 32.5t-44.5 41t-30.5 52t-19 57.5t-10 65.5t-4.5 68t-1 73z" />
<glyph unicode="K" horiz-adv-x="1224" d="M217 0v1495h180v-666h162l420 666h188l-473 -741l502 -754h-195l-454 686h-150v-686h-180z" />
<glyph unicode="L" horiz-adv-x="987" d="M217 0v1495h180v-1352h557v-143h-737z" />
<glyph unicode="M" horiz-adv-x="1796" d="M197 0l41 1495h243l404 -1145l430 1145h246l38 -1495h-176l-30 1260l-428 -1133h-164l-398 1120l-30 -1247h-176z" />
<glyph unicode="N" horiz-adv-x="1523" d="M217 0v1495h197l712 -1194v1194h181v-1495h-197l-713 1192v-1192h-180z" />
<glyph unicode="O" horiz-adv-x="1476" d="M152 748q0 97 7 179.5t25.5 163t47.5 144.5t74.5 119t105.5 92t142.5 57.5t182.5 20.5q139 0 243.5 -40t169 -108t105 -169.5t55.5 -211t15 -247.5q0 -139 -15 -249t-55.5 -212t-105 -169t-169 -107t-243.5 -40t-243.5 40t-169 107t-104 169t-54 212t-14.5 249zM332 748 q0 -111 10 -199.5t37.5 -171.5t72 -137.5t117 -87.5t168.5 -33t168 32.5t117.5 88t73.5 137.5t38.5 171t10.5 200t-10.5 200t-38.5 171t-73.5 137t-117.5 87.5t-168 32.5t-168.5 -32.5t-117 -87.5t-72 -137.5t-37.5 -171t-10 -199.5z" />
<glyph unicode="P" horiz-adv-x="1206" d="M217 0v1495h440q463 0 463 -471q0 -469 -463 -469h-260v-555h-180zM397 698h250q293 0 293 326q0 328 -293 328h-250v-654z" />
<glyph unicode="Q" horiz-adv-x="1456" d="M152 748q0 152 15 266t53.5 214t102.5 162.5t165 98t239 35.5t239.5 -35.5t166 -98.5t103.5 -162t54 -213.5t15 -266.5q0 -158 -17 -276t-57 -217t-112.5 -163t-178.5 -94l326 -145l-74 -138l-522 258q-124 7 -215 46t-149 102t-92.5 160.5t-48 208.5t-13.5 258zM332 748 q0 -123 10 -215.5t36.5 -173.5t70.5 -131.5t113.5 -79.5t164.5 -29q94 0 163.5 29t114 80t71.5 131.5t37.5 173t10.5 215.5t-10.5 215.5t-37.5 173t-71.5 131.5t-114 79.5t-163.5 28.5q-95 0 -164.5 -29t-113.5 -79.5t-70.5 -131t-36.5 -173t-10 -215.5z" />
<glyph unicode="R" horiz-adv-x="1310" d="M217 0v1495h453q108 0 191 -26.5t132.5 -68.5t81 -102t42.5 -118t11 -125q0 -65 -12 -123t-39.5 -115t-80 -102t-126.5 -70q56 -42 99 -135l221 -510h-193l-206 485q-32 74 -81.5 101t-138.5 30h-174v-616h-180zM397 760h265q78 0 135.5 25t89.5 68t46.5 93.5t14.5 108.5 t-14.5 108.5t-46.5 94.5t-89.5 69t-135.5 25h-265v-592z" />
<glyph unicode="S" horiz-adv-x="1224" d="M115 360l147 27q18 -126 99.5 -198t234.5 -72q334 0 334 264q0 114 -61.5 169.5t-204.5 94.5l-136 39q-106 29 -174 61t-117 80.5t-70.5 116.5t-21.5 164q0 86 28.5 159t86.5 132t155.5 93t225.5 34q113 0 196.5 -27t136.5 -79.5t83.5 -121.5t44.5 -161l-148 -27 q-39 270 -311 270q-75 0 -132.5 -15t-92 -39t-55.5 -59t-29 -71t-8 -80q0 -115 56.5 -171t190.5 -93l142 -39q109 -31 178 -63t121 -80.5t74 -116t22 -164.5q0 -67 -18 -127.5t-57.5 -113.5t-98.5 -91.5t-146 -61t-194 -22.5q-117 0 -204.5 27t-143 79.5t-87.5 121.5 t-46 161z" />
<glyph unicode="T" horiz-adv-x="1011" d="M14 1352v143h983v-143h-401v-1352h-180v1352h-402z" />
<glyph unicode="U" horiz-adv-x="1427" d="M186 494v1001h181v-995q0 -97 21 -168t53 -110.5t80.5 -62.5t92 -29.5t99.5 -6.5q57 0 101.5 6.5t93 29.5t80 62.5t52.5 110.5t21 168v995h180v-1001q0 -99 -17 -178t-44.5 -133t-69.5 -93.5t-85.5 -62t-100 -35.5t-104.5 -17t-107 -4t-106.5 4t-104 17t-100 35.5 t-85.5 62t-69.5 93.5t-44.5 133t-17 178z" />
<glyph unicode="V" horiz-adv-x="1253" d="M51 1495h185l391 -1325l393 1325h182l-454 -1495h-240z" />
<glyph unicode="W" horiz-adv-x="1783" d="M57 1495h185l276 -1327l285 1327h178l283 -1327l278 1327h184l-325 -1495h-262l-248 1139l-246 -1139h-262z" />
<glyph unicode="X" horiz-adv-x="1288" d="M55 0l484 782l-457 713h205l370 -580l353 580h196l-452 -729l491 -766h-205l-405 631l-381 -631h-199z" />
<glyph unicode="Y" horiz-adv-x="1126" d="M12 1495h185l366 -799l367 799h184l-461 -975v-520h-180v520z" />
<glyph unicode="Z" horiz-adv-x="1124" d="M57 0v115l770 1237h-731l2 143h949v-115l-771 -1237h791v-143h-1010z" />
<glyph unicode="[" horiz-adv-x="604" d="M160 -135v1640h432v-129h-250v-1382h250v-129h-432z" />
<glyph unicode="\" horiz-adv-x="655" d="M-4 1587h178l485 -1804h-178z" />
<glyph unicode="]" horiz-adv-x="604" d="M12 -6h250v1382h-250v129h432v-1640h-432v129z" />
<glyph unicode="^" horiz-adv-x="1187" d="M201 647l305 619h176l305 -619h-153l-240 502l-240 -502h-153z" />
<glyph unicode="_" horiz-adv-x="1179" d="M139 0h901v-139h-901v139z" />
<glyph unicode="`" horiz-adv-x="634" d="M86 1563l111 131l344 -320l-80 -94z" />
<glyph unicode="a" horiz-adv-x="1200" d="M109 272q0 69 17 120t60.5 98.5t127 81t208.5 53.5l305 49v117q0 79 -18.5 133.5t-53.5 82t-75.5 39t-93.5 11.5q-112 0 -180 -57t-89 -162l-143 43q33 151 137.5 235t278.5 84q73 0 131 -10t112.5 -37.5t90.5 -72t58 -118t22 -171.5v-791h-117l-45 182 q-197 -211 -432 -211q-157 0 -229 82.5t-72 218.5zM283 276q0 -76 43 -123t133 -47q106 0 194 53t174 146v246l-288 -49q-145 -26 -200.5 -83.5t-55.5 -142.5z" />
<glyph unicode="b" horiz-adv-x="1284" d="M217 0v1552l176 21v-469q175 96 338 96q102 0 180.5 -34t127 -90.5t80 -137t43.5 -166t12 -186.5q0 -615 -443 -615q-97 0 -195.5 35t-175.5 90l-38 -96h-105zM393 211q140 -96 289 -96q73 0 128.5 24.5t90.5 66t57 103t30.5 128.5t8.5 149q0 75 -9 141t-31 127.5 t-55.5 105.5t-85.5 70.5t-118 26.5q-157 0 -305 -88v-758z" />
<glyph unicode="c" horiz-adv-x="1126" d="M111 586q0 103 12 187t44.5 166t85.5 137.5t139.5 89.5t201.5 34q117 0 200.5 -25.5t133.5 -75t75 -113t31 -148.5l-141 -21q-6 119 -72.5 179.5t-220.5 60.5q-76 0 -133 -26t-90.5 -68.5t-54.5 -106t-28 -127t-7 -143.5t7 -143.5t28 -127t54.5 -106t90.5 -68.5t133 -26 q154 0 220.5 60t72.5 179l143 -6q-7 -88 -32.5 -154.5t-75.5 -118t-133.5 -78t-200.5 -26.5q-115 0 -201.5 34.5t-139.5 90t-85.5 137.5t-44.5 166.5t-12 186.5z" />
<glyph unicode="d" horiz-adv-x="1284" d="M111 586q0 102 11.5 186.5t42.5 166t81 137.5t131.5 90t189.5 34q157 0 324 -80v432l176 21v-1573h-117l-51 178q-82 -91 -187.5 -149t-224.5 -58q-376 0 -376 615zM287 586q0 -142 24.5 -244t83.5 -164.5t150 -62.5q99 0 182 49t164 147v670q-149 80 -289 80 q-89 0 -151.5 -34.5t-97.5 -100.5t-50.5 -148.5t-15.5 -191.5z" />
<glyph unicode="e" horiz-adv-x="1183" d="M111 586q0 614 489 614q114 0 200.5 -33t139.5 -86.5t86 -132t45 -159.5t12 -179v-43h-798q1 -122 17 -204.5t53.5 -139t99 -82.5t153.5 -26q159 0 230.5 62t81.5 173l145 -8q-38 -371 -457 -371q-137 0 -233.5 39.5t-154 120t-83.5 191.5t-26 264zM289 698h618 q-5 83 -21 143.5t-49 111.5t-93 77.5t-146 26.5q-81 0 -139.5 -27t-93 -78t-52.5 -112.5t-24 -141.5z" />
<glyph unicode="f" horiz-adv-x="692" d="M115 1051v120h135v91q0 325 323 325q123 0 218 -35l-46 -133q-73 29 -159 29q-82 0 -121 -45t-39 -141v-91h270v-120h-270v-1051h-176v1051h-135z" />
<glyph unicode="g" horiz-adv-x="1171" d="M70 -203q0 62 33.5 120.5t89.5 98.5q-117 46 -117 177q0 98 86 184l98 98q-108 105 -108 309q0 63 11 118.5t40.5 111.5t76.5 96t125 65t179 25q107 0 192 -29h309v-116h-145q78 -107 78 -271q0 -63 -11 -118.5t-41 -111.5t-77 -95.5t-125 -64.5t-180 -25q-121 0 -213 37 l-92 -91q-48 -45 -48 -102q0 -40 27 -58t68 -18h458q149 0 234.5 -79t85.5 -205q0 -61 -16.5 -110t-44.5 -83t-70.5 -59t-87.5 -40t-103 -23.5t-110 -11.5t-115 -3q-114 0 -197.5 12.5t-151.5 42t-103 84.5t-35 135zM236 -180q0 -47 23.5 -78.5t70.5 -48t102 -23t131 -6.5 q77 0 129 4t99.5 15t74.5 31.5t42.5 54t15.5 81.5q0 42 -18 73t-48 47t-62 23t-67 7h-410q-39 -32 -61 -80.5t-22 -99.5zM322 784q0 -62 11.5 -110t39 -90t81 -65t130.5 -23t130.5 23t81.5 65t40 90t12 110q0 289 -264 289q-77 0 -130.5 -23t-81 -65.5t-39 -90.5t-11.5 -110 z" />
<glyph unicode="h" horiz-adv-x="1339" d="M217 0v1552l176 21v-510q193 137 404 137q183 0 264.5 -91.5t81.5 -277.5v-831h-176v827q0 122 -47.5 176t-157.5 54q-191 0 -369 -137v-920h-176z" />
<glyph unicode="i" horiz-adv-x="610" d="M201 1481q0 51 21.5 82.5t82.5 31.5q64 0 86.5 -31.5t22.5 -82.5q0 -113 -109 -113q-104 0 -104 113zM217 0v1171h176v-1171h-176z" />
<glyph unicode="j" horiz-adv-x="610" d="M-145 -426l45 133q74 -31 157 -31q82 0 121 45.5t39 141.5v1308h176v-1308q0 -326 -323 -326q-122 0 -215 37zM201 1481q0 51 21.5 82.5t82.5 31.5q64 0 86.5 -31.5t22.5 -82.5q0 -113 -109 -113q-104 0 -104 113z" />
<glyph unicode="k" horiz-adv-x="1112" d="M217 0v1552l176 21v-875h162l330 473h194l-391 -553l428 -618h-194l-392 567h-137v-567h-176z" />
<glyph unicode="l" horiz-adv-x="610" d="M217 0v1552l176 25v-1577h-176z" />
<glyph unicode="m" horiz-adv-x="2019" d="M217 0v1171h109l45 -116q74 62 173.5 103.5t203.5 41.5q236 0 319 -162q75 68 181 115t218 47q357 0 357 -366v-834h-176v823q0 115 -49 174.5t-160 59.5q-182 0 -336 -139q6 -40 6 -84v-834h-176v823q0 115 -49 174.5t-162 59.5q-178 0 -328 -129v-928h-176z" />
<glyph unicode="n" horiz-adv-x="1339" d="M217 0v1171h105l49 -122q89 65 200 108t226 43q183 0 264.5 -91.5t81.5 -277.5v-831h-176v827q0 122 -47.5 176t-157.5 54q-191 0 -369 -137v-920h-176z" />
<glyph unicode="o" horiz-adv-x="1236" d="M111 586q0 102 13 186.5t47.5 166t90 137.5t146 90t210.5 34q100 0 180.5 -23t135 -66t93 -98.5t59.5 -127t30.5 -143.5t9.5 -156q0 -102 -13 -186.5t-47.5 -166t-90 -138t-146.5 -90.5t-211 -34t-210.5 34t-146 90t-90 138t-47.5 166.5t-13 186.5zM287 586 q0 -56 3.5 -102.5t12.5 -96.5t24.5 -88.5t41 -74t59.5 -59t82 -37t108 -13.5q82 0 143 26.5t96.5 69t57 106t28.5 126.5t7 143t-7 143t-28.5 126.5t-57 106t-96.5 69t-143 26.5q-60 0 -108 -13.5t-82 -37t-59.5 -59t-41 -74t-24.5 -88.5t-12.5 -96.5t-3.5 -102.5z" />
<glyph unicode="p" horiz-adv-x="1284" d="M217 -479v1650h105l40 -102q79 58 177 94.5t192 36.5q443 0 443 -614q0 -615 -459 -615q-150 0 -322 64v-490zM393 168q127 -53 289 -53q71 0 126 23.5t90.5 64.5t58 101.5t31.5 129t9 152.5q0 95 -15.5 175.5t-48.5 149t-93 107.5t-142 39q-161 0 -305 -105v-784z" />
<glyph unicode="q" horiz-adv-x="1284" d="M111 586q0 102 11.5 186.5t42.5 166t81 137.5t131.5 90t189.5 34q201 0 359 -115l35 86h106v-1626l-176 -24v526q-170 -76 -324 -76q-108 0 -189.5 34t-131.5 90t-81 138t-42.5 166.5t-11.5 186.5zM287 586q0 -471 315 -471q152 0 289 67v787q-120 88 -289 88 q-112 0 -184 -62.5t-101.5 -164.5t-29.5 -244z" />
<glyph unicode="r" horiz-adv-x="821" d="M217 0v1171h105l63 -208q143 227 420 237v-162q-276 -10 -412 -233v-805h-176z" />
<glyph unicode="s" horiz-adv-x="1089" d="M106 301l144 23q14 -97 83 -152t197 -55q277 0 277 186q0 82 -50 121.5t-179 71.5l-117 28q-178 44 -253 118.5t-75 223.5q0 150 106.5 242t331.5 92q191 0 284.5 -82.5t119.5 -240.5l-146 -23q-13 97 -77.5 152t-184.5 55q-75 0 -127.5 -14.5t-80 -42t-39 -59 t-11.5 -71.5q0 -82 47 -121.5t166 -70.5l119 -29q184 -44 263 -119t79 -223q0 -150 -111 -242t-344 -92q-200 0 -298 83t-124 241z" />
<glyph unicode="t" horiz-adv-x="706" d="M43 1051v120h201v213l176 70v-283h248v-120h-248v-777q0 -93 25 -130.5t85 -37.5q34 0 111 17l21 -119q-109 -33 -189 -33q-62 0 -106 18t-67.5 44t-36.5 69.5t-16 78.5t-3 87v783h-201z" />
<glyph unicode="u" horiz-adv-x="1351" d="M197 336v835h176v-823q0 -122 52.5 -177.5t162.5 -55.5q200 0 370 202v854h177v-1171h-117l-55 174q-191 -203 -420 -203q-182 0 -264 91t-82 274z" />
<glyph unicode="v" horiz-adv-x="1089" d="M33 1171h178l334 -966l334 966h178l-416 -1171h-192z" />
<glyph unicode="w" horiz-adv-x="1525" d="M43 1171h178l225 -946l240 844h152l241 -844l226 946h178l-299 -1171h-180l-242 819l-238 -819h-182z" />
<glyph unicode="x" horiz-adv-x="1034" d="M16 0l402 602l-381 569h196l291 -436l287 436h186l-379 -575l400 -596h-197l-311 465l-307 -465h-187z" />
<glyph unicode="y" horiz-adv-x="1112" d="M33 1171h182l346 -948l336 948h180l-622 -1673l-160 29l180 465z" />
<glyph unicode="z" horiz-adv-x="1064" d="M86 0v119l655 917h-630v135h841v-118l-651 -918h678v-135h-893z" />
<glyph unicode="{" horiz-adv-x="620" d="M39 627v118q23 0 46 4.5t47.5 14.5t40 31t15.5 49q0 38 -8 119t-8 129q0 415 436 415v-143q-139 0 -195.5 -77t-56.5 -218q0 -51 8.5 -126.5t8.5 -115.5q0 -60 -30 -96.5t-71 -36.5v-12q41 0 71 -35.5t30 -95.5q0 -40 -8.5 -117t-8.5 -129q0 -141 56.5 -219t195.5 -78 v-143q-121 0 -207.5 32t-135.5 90.5t-71 130.5t-22 163q0 47 8 128t8 119q0 37 -27.5 60.5t-58.5 31t-63 7.5z" />
<glyph unicode="|" horiz-adv-x="665" d="M233 -217v1804h199v-1804h-199z" />
<glyph unicode="}" horiz-adv-x="620" d="M12 8q72 0 122 21.5t78 63t40 93.5t12 121q0 52 -8 129t-8 117q0 60 30 96.5t70 36.5v12q-41 0 -70.5 36t-29.5 97q0 40 8 117t8 129q0 136 -56.5 211.5t-195.5 75.5v143q97 0 172 -21t124.5 -58t81.5 -90.5t45.5 -113.5t13.5 -132q0 -48 -8.5 -129t-8.5 -119 q0 -28 15 -49t39.5 -31t48.5 -14.5t47 -4.5v-118q-23 0 -47 -4.5t-48.5 -14.5t-39.5 -31t-15 -49q0 -38 8.5 -119t8.5 -128q0 -91 -22.5 -163.5t-71.5 -130.5t-136 -90t-207 -32v143z" />
<glyph unicode="~" horiz-adv-x="1187" d="M188 582v139q69 -49 172 -49q77 0 233 44t234 44q98 0 172 -39v-139q-76 43 -172 43q-78 0 -234 -44t-233 -44q-97 0 -172 45z" />
<glyph unicode="&#xa1;" horiz-adv-x="638" d="M209 1075q0 27 3 45t13.5 38.5t34.5 31t62 10.5q36 0 59 -10.5t33 -30.5t13 -38.5t3 -45.5t-3 -45.5t-13 -39t-33 -31.5t-59 -11q-38 0 -62 10.5t-34.5 31.5t-13.5 39.5t-3 45.5zM221 25l45 768h109l45 -768v-336h-199v336z" />
<glyph unicode="&#xa2;" horiz-adv-x="1292" d="M178 748q0 76 4 137.5t16.5 129t33 120t56 103t83 85t116.5 58.5t154 32v246h123v-244q105 -5 180.5 -40t119 -95t65.5 -130.5t28 -160.5l-141 -8q-14 291 -289 291q-73 0 -130 -15.5t-96 -39.5t-67 -65t-43 -81t-23.5 -99t-11 -107.5t-2.5 -116.5q0 -77 4 -135.5 t16 -122.5t36 -109t60.5 -82.5t93.5 -56.5t132 -19q95 0 160.5 17.5t102.5 53t54 81t19 108.5l142 -8q-7 -87 -29.5 -152t-68 -119t-123.5 -85.5t-189 -38.5v-246h-123v246q-84 5 -152 27.5t-115.5 57t-83 84.5t-56.5 103.5t-34 122t-17.5 132t-4.5 141.5z" />
<glyph unicode="&#xa3;" horiz-adv-x="1290" d="M139 643v125h146v317q0 217 98 328t330 111q237 0 338.5 -107t101.5 -332l-156 -10q0 158 -65 230.5t-209 72.5q-78 0 -129.5 -19t-79 -59t-38.5 -90.5t-11 -124.5v-317h516v-125h-516v-246q0 -98 -21 -152.5t-79 -99.5h823v-145h-1014v133q111 94 111 240v270h-146z" />
<glyph unicode="&#xa4;" horiz-adv-x="1290" d="M115 303l184 186q-63 104 -63 259q0 154 65 256l-186 188l86 86l184 -184q112 84 283 84q149 0 247 -72l175 172l86 -86l-175 -174q74 -110 74 -270t-76 -269l177 -176l-86 -86l-179 174q-109 -74 -270 -74q-157 0 -260 80l-180 -180zM393 748q0 -43 7.5 -82t26 -76 t46 -64t71 -43t97.5 -16q62 0 111 16.5t79.5 43t50.5 63.5t28 76t8 82q0 55 -13 102.5t-40.5 88.5t-78 65t-118.5 24q-77 0 -132.5 -24t-85.5 -65.5t-43.5 -88.5t-13.5 -102z" />
<glyph unicode="&#xa5;" horiz-adv-x="1290" d="M100 1495h189l356 -713l359 713h186l-301 -580h239v-122h-303l-90 -175h393v-124h-395v-494h-176v494h-391v124h389l-90 175h-299v122h235z" />
<glyph unicode="&#xa6;" horiz-adv-x="665" d="M233 -217v688h199v-688h-199zM233 899v688h199v-688h-199z" />
<glyph unicode="&#xa7;" horiz-adv-x="1005" d="M74 639q0 134 68.5 219t197.5 135q-119 155 -119 289q0 143 110 245.5t285 147.5l37 -137q-46 -12 -88 -31t-81 -46.5t-62 -67.5t-23 -86q0 -62 24 -112t83 -120l276 -330q150 -178 150 -327q0 -253 -266 -352q118 -150 118 -291q0 -142 -110.5 -245t-284.5 -146l-37 135 q46 12 88 31t81 46.5t62 67.5t23 86q0 63 -24.5 114.5t-85.5 123.5l-273 325q-149 177 -149 326zM252 676q0 -73 23 -123t83 -121l213 -254q78 28 130.5 80.5t52.5 124.5t-24 123t-87 125l-209 250q-79 -29 -130.5 -81.5t-51.5 -123.5z" />
<glyph unicode="&#xa8;" horiz-adv-x="663" d="M12 1481q0 26 2.5 42.5t11.5 35.5t31 28.5t56 9.5q36 0 58.5 -9.5t31.5 -29t11.5 -35.5t2.5 -42t-2.5 -42t-11.5 -35t-31.5 -28.5t-58.5 -9.5q-34 0 -56 9.5t-31 28.5t-11.5 35t-2.5 42zM446 1481q0 26 2.5 42.5t11.5 35.5t31 28.5t56 9.5q36 0 58.5 -9.5t31.5 -29 t11.5 -35.5t2.5 -42t-2.5 -42t-11.5 -35t-31.5 -28.5t-58.5 -9.5q-34 0 -56 9.5t-31 28.5t-11.5 35t-2.5 42z" />
<glyph unicode="&#xa9;" horiz-adv-x="1492" d="M133 1147q0 298 157 456t455 158t456.5 -158t158.5 -456q0 -297 -158.5 -454.5t-456.5 -157.5t-455 157t-157 455zM244 1147q0 -512 501 -512q253 0 378.5 130t125.5 382t-126 383t-378 131t-376.5 -131t-124.5 -383zM422 1149q0 212 72.5 319t244.5 107q249 0 271 -240 l-101 -6q-15 152 -168 152q-109 0 -154.5 -83.5t-45.5 -248.5q0 -169 43 -250.5t159 -81.5q82 0 124.5 49.5t45.5 132.5l99 -4q-17 -274 -271 -274q-92 0 -155 28.5t-98.5 86t-50.5 133t-15 180.5z" />
<glyph unicode="&#xaa;" horiz-adv-x="886" d="M74 467v104h688v-104h-688zM90 913q0 50 12.5 86.5t44.5 70t92 57.5t150 38l191 31v74q0 92 -40 127t-108 35t-112 -36t-56 -104l-125 39q49 225 299 225q65 0 115 -12t94.5 -42t68 -88.5t23.5 -143.5v-553h-104l-43 112q-128 -133 -285 -133q-110 0 -163.5 59.5 t-53.5 157.5zM248 920q0 -47 26 -76t80 -29q113 0 226 117v160l-168 -29q-95 -17 -129.5 -54t-34.5 -89z" />
<glyph unicode="&#xab;" horiz-adv-x="1073" d="M57 608v74l351 385l106 -104l-250 -318l250 -317l-106 -105zM506 608v74l350 385l107 -104l-250 -318l250 -317l-107 -105z" />
<glyph unicode="&#xac;" horiz-adv-x="1187" d="M188 582v139h811v-422h-131v283h-680z" />
<glyph unicode="&#xad;" horiz-adv-x="999" d="M139 582v139h721v-139h-721z" />
<glyph unicode="&#xae;" horiz-adv-x="1492" d="M133 1147q0 298 157 456t455 158t456.5 -158t158.5 -456q0 -297 -158.5 -454.5t-456.5 -157.5t-455 157t-157 455zM244 1147q0 -512 501 -512q253 0 378.5 130t125.5 382t-126 383t-378 131t-376.5 -131t-124.5 -383zM502 737v824h256q67 0 116 -16.5t75.5 -40t42.5 -59 t20 -64.5t4 -64q0 -190 -137 -230q30 -27 49 -71l123 -279h-127l-115 267q-15 37 -38.5 52t-63.5 15h-86v-334h-119zM621 1163h135q44 0 74 13.5t43.5 38t18.5 47.5t5 53q0 31 -5 54t-18.5 47t-43 37t-74.5 13h-135v-303z" />
<glyph unicode="&#xaf;" horiz-adv-x="724" d="M98 1409v150h529v-150h-529z" />
<glyph unicode="&#xb0;" horiz-adv-x="862" d="M86 1075q0 67 6 116t26.5 101.5t56.5 85.5t100.5 54.5t154.5 21.5t155 -21.5t101.5 -54.5t57 -85.5t26.5 -101.5t6 -116q0 -46 -2.5 -82.5t-11.5 -77.5t-24 -71.5t-41.5 -59.5t-62 -47.5t-87.5 -29.5t-117 -11t-116.5 11t-87 29.5t-61.5 47.5t-41 59.5t-24 71.5 t-11.5 77.5t-2.5 82.5zM242 1075q0 -41 1.5 -67t7 -59t18 -53t32.5 -39t52.5 -27.5t76.5 -8.5t76.5 8.5t52.5 27.5t32.5 39t18 53t7 59t1.5 67t-1.5 67t-7 59t-18 53t-32.5 39t-52.5 27.5t-76.5 8.5t-76.5 -8.5t-52.5 -27.5t-32.5 -39t-18 -53t-7 -59t-1.5 -67z" />
<glyph unicode="&#xb1;" horiz-adv-x="1187" d="M188 0v139h811v-139h-811zM188 684v139h336v336h140v-336h335v-139h-335v-336h-140v336h-336z" />
<glyph unicode="&#xb2;" horiz-adv-x="800" d="M109 696v97l301 325q52 58 78 102.5t26 88.5q0 50 -31.5 80t-93.5 30q-65 0 -96 -28t-37 -86l-137 14q22 225 282 225q131 0 200 -63.5t69 -169.5q0 -65 -33.5 -125t-99.5 -133l-215 -232h362v-125h-575z" />
<glyph unicode="&#xb3;" horiz-adv-x="800" d="M109 905l135 19q9 -125 147 -125q73 0 110.5 31.5t37.5 89.5q0 61 -40 100t-120 39h-45v96h47q73 0 111 40t38 99t-33 93t-98 34q-57 0 -94 -31.5t-43 -86.5l-137 18q15 223 278 223q136 0 209.5 -68.5t73.5 -181.5q0 -127 -135 -184q145 -49 145 -199q0 -102 -81 -166.5 t-214 -64.5q-272 0 -292 225z" />
<glyph unicode="&#xb4;" horiz-adv-x="634" d="M94 1374l344 320l111 -131l-375 -283z" />
<glyph unicode="&#xb5;" horiz-adv-x="1304" d="M233 -465v1636h177v-905q177 -151 376 -151q123 0 172.5 54t49.5 179v823h176v-835q0 -186 -79 -275.5t-271 -89.5q-115 0 -225 42.5t-199 107.5v-586h-177z" />
<glyph unicode="&#xb6;" horiz-adv-x="1013" d="M53 973q0 64 14 121t45 108.5t77 88.5t115.5 59t154.5 22h297v-1372h-181v575h-116q-106 0 -186.5 33t-127 90t-69.5 126t-23 149z" />
<glyph unicode="&#xb7;" horiz-adv-x="466" d="M123 651q0 28 3 46t12.5 39t33 31.5t59.5 10.5q38 0 62 -10.5t34.5 -31.5t13.5 -39.5t3 -45.5t-3 -45t-13.5 -38.5t-34.5 -31t-62 -10.5q-36 0 -59.5 10.5t-33 31t-12.5 38.5t-3 45z" />
<glyph unicode="&#xb8;" horiz-adv-x="604" d="M90 -291h135q0 -45 15 -66.5t67 -21.5q50 0 65 22t15 66q0 45 -19 66t-71 30l-111 21l15 72h86q55 0 93 -7.5t70.5 -27t48 -58.5t15.5 -98q0 -99 -46.5 -150t-166.5 -51q-118 0 -164.5 52.5t-46.5 150.5z" />
<glyph unicode="&#xb9;" horiz-adv-x="800" d="M176 1370v94q135 13 203 62h127v-830h-162v674h-168z" />
<glyph unicode="&#xba;" horiz-adv-x="862" d="M66 1126q0 72 9.5 131t34 116t64.5 96t105 63t151 24q367 0 367 -430t-367 -430q-364 0 -364 430zM86 467v104h688v-104h-688zM227 1126q0 -55 4.5 -96t17 -82t34.5 -67t59 -42t88 -16t88.5 16t59.5 42t35 67t17.5 82t4.5 96q0 69 -7.5 119t-28.5 95t-63 68.5t-106 23.5 q-51 0 -88 -16.5t-59 -43t-34.5 -67.5t-17 -82.5t-4.5 -96.5z" />
<glyph unicode="&#xbb;" horiz-adv-x="1073" d="M61 328l250 317l-250 318l107 104l350 -385v-74l-350 -385zM510 328l250 317l-250 318l106 104l351 -385v-74l-351 -385z" />
<glyph unicode="&#xbc;" horiz-adv-x="2007" d="M190 1341v95q136 13 203 61h127v-829h-162v673h-168zM698 -74l439 1641h125l-441 -1641h-123zM1196 162v114l317 553h236v-544h88v-123h-88v-162h-147v162h-406zM1352 285h250v440z" />
<glyph unicode="&#xbd;" horiz-adv-x="2007" d="M190 1341v95q136 13 203 61h127v-829h-162v673h-168zM682 -74l438 1641h125l-440 -1641h-123zM1251 0v96l301 326q53 59 79 102.5t26 87.5q0 50 -31.5 80.5t-93.5 30.5q-65 0 -96 -28.5t-37 -86.5l-137 15q22 225 282 225q131 0 199.5 -63.5t68.5 -170.5 q0 -65 -33.5 -125t-99.5 -133l-215 -231h363v-125h-576z" />
<glyph unicode="&#xbe;" horiz-adv-x="2007" d="M123 877l135 18q4 -61 42 -93t106 -32q72 0 109.5 31.5t37.5 89.5q0 61 -40 100t-120 39h-45v96h47q73 0 111.5 40.5t38.5 99.5t-33 93t-98 34q-57 0 -94.5 -32t-43.5 -87l-137 18q7 111 78.5 167.5t200.5 56.5q136 0 209 -68t73 -182q0 -128 -135 -185q146 -49 146 -198 q0 -102 -81.5 -167t-213.5 -65q-272 0 -293 226zM739 -74l439 1641h125l-441 -1641h-123zM1196 162v114l317 553h236v-544h88v-123h-88v-162h-147v162h-406zM1352 285h250v440z" />
<glyph unicode="&#xbf;" horiz-adv-x="983" d="M74 88q0 316 401 455l23 250h112l17 -312q-198 -66 -289.5 -159.5t-91.5 -229.5q0 -54 16 -105t47.5 -94.5t86 -69.5t124.5 -26q219 0 258 197l152 -21q-24 -146 -129 -229.5t-283 -83.5q-109 0 -195.5 36t-140 97t-81 136.5t-27.5 158.5zM442 1075q0 27 3.5 45.5 t14 38.5t34.5 30.5t61 10.5q36 0 59.5 -10.5t33.5 -31t13 -38.5t3 -45t-3 -45.5t-13 -39.5t-33.5 -31.5t-59.5 -10.5q-37 0 -61 11t-34.5 31.5t-14 39t-3.5 45.5z" />
<glyph unicode="&#xc0;" horiz-adv-x="1286" d="M35 0l487 1495h240l489 -1495h-178l-145 451h-570l-145 -451h-178zM403 594h478l-238 741zM416 1886l110 131l344 -319l-79 -94z" />
<glyph unicode="&#xc1;" horiz-adv-x="1286" d="M35 0l487 1495h240l489 -1495h-178l-145 451h-570l-145 -451h-178zM403 594h478l-238 741zM424 1698l344 319l111 -131l-375 -282z" />
<glyph unicode="&#xc2;" horiz-adv-x="1286" d="M35 0l487 1495h240l489 -1495h-178l-145 451h-570l-145 -451h-178zM336 1692l274 313h76l275 -313l-74 -74l-240 197l-237 -197zM403 594h478l-238 741z" />
<glyph unicode="&#xc3;" horiz-adv-x="1286" d="M35 0l487 1495h240l489 -1495h-178l-145 451h-570l-145 -451h-178zM309 1722q31 110 77.5 156.5t111.5 46.5q51 0 151.5 -37t126.5 -37q37 0 57.5 21.5t36.5 69.5l115 -37q-31 -111 -77 -157t-111 -46q-51 0 -151 37t-128 37q-35 0 -55.5 -21t-36.5 -69zM403 594h478 l-238 741z" />
<glyph unicode="&#xc4;" horiz-adv-x="1286" d="M35 0l487 1495h240l489 -1495h-178l-145 451h-570l-145 -451h-178zM328 1804q0 26 2.5 42.5t11.5 36t30.5 29t55.5 9.5q29 0 49 -7.5t30.5 -17.5t16.5 -27.5t7 -30.5t1 -34t-1 -33.5t-7 -29.5t-16.5 -27t-30.5 -17t-49 -7q-34 0 -55.5 9t-30.5 28t-11.5 35t-2.5 42z M403 594h478l-238 741zM762 1804q0 26 2.5 42.5t11.5 36t30.5 29t55.5 9.5q29 0 49.5 -7.5t31 -17.5t16.5 -27.5t7 -31t1 -33.5t-1 -33.5t-7 -30t-16.5 -26.5t-31 -17t-49.5 -7q-34 0 -55.5 9t-30.5 28t-11.5 35t-2.5 42z" />
<glyph unicode="&#xc5;" horiz-adv-x="1286" d="M35 0l487 1495h240l489 -1495h-178l-145 451h-570l-145 -451h-178zM403 594h478l-238 741zM436 1808q0 39 8.5 72.5t29.5 68t65 54.5t106 20q65 0 109.5 -20t65.5 -54.5t29.5 -68t8.5 -72.5q0 -30 -4.5 -57t-18.5 -56.5t-36.5 -50.5t-62 -35t-91.5 -14q-63 0 -106.5 20 t-64.5 53.5t-29.5 67t-8.5 72.5zM555 1808q0 -116 90 -116q96 0 96 116q0 117 -96 117q-90 0 -90 -117z" />
<glyph unicode="&#xc6;" horiz-adv-x="1865" d="M59 0l637 1495h1035v-143h-615v-561h572v-144h-572v-504h656v-143h-836v647h-426l-272 -647h-179zM571 791h365v559h-129z" />
<glyph unicode="&#xc7;" horiz-adv-x="1306" d="M152 750q0 153 15 267.5t53.5 213.5t103 161t165.5 97t238 35q115 0 200 -27.5t139 -80.5t84 -122t42 -161l-145 -27q-43 270 -320 270q-83 0 -146.5 -18t-106.5 -57t-71 -89t-43.5 -124.5t-21.5 -153t-6 -184.5q0 -91 4 -161t15 -138t30 -117t49 -91.5t71 -68.5 t97.5 -40.5t128.5 -14.5q165 0 243 91t83 245l147 -9q-7 -111 -34.5 -194.5t-81.5 -148.5t-143.5 -98.5t-213.5 -33.5q-137 0 -238 35t-165.5 98t-103 162.5t-53.5 214.5t-15 269zM446 -291h136q0 -45 15 -66.5t67 -21.5q27 0 43.5 6.5t24 20t9.5 26.5t2 35q0 45 -19 66 t-71 30l-110 21l14 72h86q55 0 93 -7.5t70.5 -27t48 -58.5t15.5 -98q0 -99 -46.5 -150t-166.5 -51q-118 0 -164.5 52.5t-46.5 150.5z" />
<glyph unicode="&#xc8;" horiz-adv-x="1146" d="M217 0v1495h795v-143h-615v-521h572v-143h-572v-545h656v-143h-836zM362 1886l111 131l344 -319l-80 -94z" />
<glyph unicode="&#xc9;" horiz-adv-x="1146" d="M217 0v1495h795v-143h-615v-521h572v-143h-572v-545h656v-143h-836zM436 1698l344 319l111 -131l-375 -282z" />
<glyph unicode="&#xca;" horiz-adv-x="1146" d="M217 0v1495h795v-143h-615v-521h572v-143h-572v-545h656v-143h-836zM283 1692l274 313h76l274 -313l-73 -74l-240 197l-238 -197z" />
<glyph unicode="&#xcb;" horiz-adv-x="1146" d="M217 0v1495h795v-143h-615v-521h572v-143h-572v-545h656v-143h-836zM274 1804q0 20 1 33.5t7 31t16 27.5t29.5 17.5t47.5 7.5q29 0 49 -7.5t30.5 -17.5t16.5 -27.5t7 -30.5t1 -34t-1 -33.5t-7 -29.5t-16.5 -27t-30.5 -17t-49 -7q-28 0 -47.5 7t-29.5 17t-16 26.5t-7 30 t-1 33.5zM709 1804q0 26 2.5 42.5t11.5 36t30.5 29t55.5 9.5q29 0 49 -7.5t30.5 -17.5t16.5 -27.5t7 -30.5t1 -34t-1 -33.5t-7 -29.5t-16.5 -27t-30.5 -17t-49 -7q-34 0 -55.5 9t-30.5 28t-11.5 35t-2.5 42z" />
<glyph unicode="&#xcc;" horiz-adv-x="614" d="M76 1886l110 131l344 -319l-79 -94zM217 0v1495h180v-1495h-180z" />
<glyph unicode="&#xcd;" horiz-adv-x="614" d="M125 1698l344 319l111 -131l-375 -282zM217 0v1495h180v-1495h-180z" />
<glyph unicode="&#xce;" horiz-adv-x="614" d="M-4 1692l274 313h76l275 -313l-74 -74l-240 197l-237 -197zM217 0v1495h180v-1495h-180z" />
<glyph unicode="&#xcf;" horiz-adv-x="614" d="M-12 1804q0 26 2.5 42.5t11.5 36t30.5 29t55.5 9.5q29 0 49.5 -7.5t31 -17.5t16.5 -27.5t7 -31t1 -33.5t-1 -33.5t-7 -30t-16.5 -26.5t-31 -17t-49.5 -7q-34 0 -55.5 9t-30.5 28t-11.5 35t-2.5 42zM217 0v1495h180v-1495h-180zM422 1804q0 26 2.5 42.5t11.5 36t30.5 29 t55.5 9.5q29 0 49.5 -7.5t31 -17.5t16.5 -27.5t7 -31t1 -33.5t-1 -33.5t-7 -30t-16.5 -26.5t-31 -17t-49.5 -7q-34 0 -55.5 9t-30.5 28t-11.5 35t-2.5 42z" />
<glyph unicode="&#xd0;" horiz-adv-x="1429" d="M119 676v139h98v680h455q102 0 185.5 -20t143.5 -55t105.5 -88.5t74 -114.5t46 -139.5t24 -157t6.5 -172.5q0 -112 -10 -202t-33.5 -178t-66.5 -152.5t-106.5 -114.5t-156.5 -75.5t-212 -25.5h-455v676h-98zM397 143h267q103 0 178 32t119.5 84t71 133.5t35.5 164 t9 191.5t-9 191.5t-35.5 163.5t-71 133t-119.5 84t-178 32h-267v-537h443v-139h-443v-533z" />
<glyph unicode="&#xd1;" horiz-adv-x="1523" d="M217 0v1495h197l712 -1194v1194h181v-1495h-197l-713 1192v-1192h-180zM436 1722q31 110 77.5 156.5t111.5 46.5q51 0 151.5 -37t126.5 -37q37 0 57.5 21.5t36.5 69.5l115 -37q-31 -111 -77 -157t-111 -46q-51 0 -151 37t-128 37q-35 0 -55.5 -21t-36.5 -69z" />
<glyph unicode="&#xd2;" horiz-adv-x="1476" d="M152 748q0 97 7 179.5t25.5 163t47.5 144.5t74.5 119t105.5 92t142.5 57.5t182.5 20.5q139 0 243.5 -40t169 -108t105 -169.5t55.5 -211t15 -247.5q0 -139 -15 -249t-55.5 -212t-105 -169t-169 -107t-243.5 -40t-243.5 40t-169 107t-104 169t-54 212t-14.5 249zM332 748 q0 -111 10 -199.5t37.5 -171.5t72 -137.5t117 -87.5t168.5 -33t168 32.5t117.5 88t73.5 137.5t38.5 171t10.5 200t-10.5 200t-38.5 171t-73.5 137t-117.5 87.5t-168 32.5t-168.5 -32.5t-117 -87.5t-72 -137.5t-37.5 -171t-10 -199.5zM506 1886l110 131l345 -319l-80 -94z " />
<glyph unicode="&#xd3;" horiz-adv-x="1476" d="M152 748q0 97 7 179.5t25.5 163t47.5 144.5t74.5 119t105.5 92t142.5 57.5t182.5 20.5q139 0 243.5 -40t169 -108t105 -169.5t55.5 -211t15 -247.5q0 -139 -15 -249t-55.5 -212t-105 -169t-169 -107t-243.5 -40t-243.5 40t-169 107t-104 169t-54 212t-14.5 249zM332 748 q0 -111 10 -199.5t37.5 -171.5t72 -137.5t117 -87.5t168.5 -33t168 32.5t117.5 88t73.5 137.5t38.5 171t10.5 200t-10.5 200t-38.5 171t-73.5 137t-117.5 87.5t-168 32.5t-168.5 -32.5t-117 -87.5t-72 -137.5t-37.5 -171t-10 -199.5zM514 1698l344 319l111 -131l-375 -282z " />
<glyph unicode="&#xd4;" horiz-adv-x="1476" d="M152 748q0 97 7 179.5t25.5 163t47.5 144.5t74.5 119t105.5 92t142.5 57.5t182.5 20.5q139 0 243.5 -40t169 -108t105 -169.5t55.5 -211t15 -247.5q0 -139 -15 -249t-55.5 -212t-105 -169t-169 -107t-243.5 -40t-243.5 40t-169 107t-104 169t-54 212t-14.5 249zM332 748 q0 -111 10 -199.5t37.5 -171.5t72 -137.5t117 -87.5t168.5 -33t168 32.5t117.5 88t73.5 137.5t38.5 171t10.5 200t-10.5 200t-38.5 171t-73.5 137t-117.5 87.5t-168 32.5t-168.5 -32.5t-117 -87.5t-72 -137.5t-37.5 -171t-10 -199.5zM426 1692l274 313h76l275 -313l-74 -74 l-240 197l-237 -197z" />
<glyph unicode="&#xd5;" horiz-adv-x="1476" d="M152 748q0 97 7 179.5t25.5 163t47.5 144.5t74.5 119t105.5 92t142.5 57.5t182.5 20.5q139 0 243.5 -40t169 -108t105 -169.5t55.5 -211t15 -247.5q0 -139 -15 -249t-55.5 -212t-105 -169t-169 -107t-243.5 -40t-243.5 40t-169 107t-104 169t-54 212t-14.5 249zM332 748 q0 -111 10 -199.5t37.5 -171.5t72 -137.5t117 -87.5t168.5 -33t168 32.5t117.5 88t73.5 137.5t38.5 171t10.5 200t-10.5 200t-38.5 171t-73.5 137t-117.5 87.5t-168 32.5t-168.5 -32.5t-117 -87.5t-72 -137.5t-37.5 -171t-10 -199.5zM399 1722q31 110 77.5 156.5t111.5 46.5 q51 0 151.5 -37t126.5 -37q37 0 58 21.5t37 69.5l114 -37q-31 -111 -77 -157t-111 -46q-51 0 -151 37t-128 37q-35 0 -55.5 -21t-36.5 -69z" />
<glyph unicode="&#xd6;" horiz-adv-x="1476" d="M152 748q0 97 7 179.5t25.5 163t47.5 144.5t74.5 119t105.5 92t142.5 57.5t182.5 20.5q139 0 243.5 -40t169 -108t105 -169.5t55.5 -211t15 -247.5q0 -139 -15 -249t-55.5 -212t-105 -169t-169 -107t-243.5 -40t-243.5 40t-169 107t-104 169t-54 212t-14.5 249zM332 748 q0 -111 10 -199.5t37.5 -171.5t72 -137.5t117 -87.5t168.5 -33t168 32.5t117.5 88t73.5 137.5t38.5 171t10.5 200t-10.5 200t-38.5 171t-73.5 137t-117.5 87.5t-168 32.5t-168.5 -32.5t-117 -87.5t-72 -137.5t-37.5 -171t-10 -199.5zM418 1804q0 26 2.5 42.5t11.5 36 t30.5 29t55.5 9.5q29 0 49.5 -7.5t31 -17.5t16.5 -27.5t7 -31t1 -33.5t-1 -33.5t-7 -30t-16.5 -26.5t-31 -17t-49.5 -7q-34 0 -55.5 9t-30.5 28t-11.5 35t-2.5 42zM852 1804q0 26 2.5 42.5t11.5 36t30.5 29t55.5 9.5q29 0 49.5 -7.5t31 -17.5t16.5 -27.5t7 -31t1 -33.5 t-1 -33.5t-7 -30t-16.5 -26.5t-31 -17t-49.5 -7q-34 0 -55.5 9t-30.5 28t-11.5 35t-2.5 42z" />
<glyph unicode="&#xd7;" horiz-adv-x="1187" d="M223 377l273 274l-273 275l96 96l275 -272l274 272l97 -96l-273 -275l273 -274l-97 -96l-274 272l-275 -272z" />
<glyph unicode="&#xd8;" horiz-adv-x="1476" d="M152 748q0 97 7 179.5t25.5 163t47.5 144.5t74.5 119t105.5 92t142.5 57.5t182.5 20.5q45 0 115 -8l43 178h125l-49 -207q82 -29 144.5 -82t102 -120t64 -155.5t34 -180t9.5 -201.5q0 -139 -15 -249t-55.5 -212t-105 -169t-169 -107t-243.5 -40q-36 0 -119 9l-38 -173 h-123l45 199q-101 36 -171.5 106t-108.5 170.5t-54 212.5t-16 253zM332 748q0 -220 46 -369t161 -215l280 1204q-54 8 -82 8q-96 0 -168.5 -32.5t-117 -87.5t-72 -137.5t-37.5 -171t-10 -199.5zM653 125q37 -6 84 -6q96 0 168 32.5t117.5 88t73.5 137.5t38.5 171t10.5 200 q0 460 -211 581z" />
<glyph unicode="&#xd9;" horiz-adv-x="1427" d="M186 494v1001h181v-995q0 -97 21 -168t53 -110.5t80.5 -62.5t92 -29.5t99.5 -6.5q57 0 101.5 6.5t93 29.5t80 62.5t52.5 110.5t21 168v995h180v-1001q0 -99 -17 -178t-44.5 -133t-69.5 -93.5t-85.5 -62t-100 -35.5t-104.5 -17t-107 -4t-106.5 4t-104 17t-100 35.5 t-85.5 62t-69.5 93.5t-44.5 133t-17 178zM434 1886l111 131l344 -319l-80 -94z" />
<glyph unicode="&#xda;" horiz-adv-x="1427" d="M186 494v1001h181v-995q0 -97 21 -168t53 -110.5t80.5 -62.5t92 -29.5t99.5 -6.5q57 0 101.5 6.5t93 29.5t80 62.5t52.5 110.5t21 168v995h180v-1001q0 -99 -17 -178t-44.5 -133t-69.5 -93.5t-85.5 -62t-100 -35.5t-104.5 -17t-107 -4t-106.5 4t-104 17t-100 35.5 t-85.5 62t-69.5 93.5t-44.5 133t-17 178zM606 1698l344 319l111 -131l-375 -282z" />
<glyph unicode="&#xdb;" horiz-adv-x="1427" d="M186 494v1001h181v-995q0 -97 21 -168t53 -110.5t80.5 -62.5t92 -29.5t99.5 -6.5q57 0 101.5 6.5t93 29.5t80 62.5t52.5 110.5t21 168v995h180v-1001q0 -99 -17 -178t-44.5 -133t-69.5 -93.5t-85.5 -62t-100 -35.5t-104.5 -17t-107 -4t-106.5 4t-104 17t-100 35.5 t-85.5 62t-69.5 93.5t-44.5 133t-17 178zM414 1692l274 313h76l274 -313l-73 -74l-240 197l-238 -197z" />
<glyph unicode="&#xdc;" horiz-adv-x="1427" d="M186 494v1001h181v-995q0 -97 21 -168t53 -110.5t80.5 -62.5t92 -29.5t99.5 -6.5q57 0 101.5 6.5t93 29.5t80 62.5t52.5 110.5t21 168v995h180v-1001q0 -99 -17 -178t-44.5 -133t-69.5 -93.5t-85.5 -62t-100 -35.5t-104.5 -17t-107 -4t-106.5 4t-104 17t-100 35.5 t-85.5 62t-69.5 93.5t-44.5 133t-17 178zM408 1804q0 26 2.5 42.5t11.5 36t30.5 29t55.5 9.5q29 0 49 -7.5t30.5 -17.5t16.5 -27.5t7 -30.5t1 -34t-1 -33.5t-7 -29.5t-16.5 -27t-30.5 -17t-49 -7q-34 0 -55.5 9t-30.5 28t-11.5 35t-2.5 42zM842 1804q0 26 2.5 42.5t11.5 36 t30.5 29t55.5 9.5q29 0 49.5 -7.5t31 -17.5t16.5 -27.5t7 -31t1 -33.5t-1 -33.5t-7 -30t-16.5 -26.5t-31 -17t-49.5 -7q-34 0 -55.5 9t-30.5 28t-11.5 35t-2.5 42z" />
<glyph unicode="&#xdd;" horiz-adv-x="1126" d="M12 1495h185l366 -799l367 799h184l-461 -975v-520h-180v520zM379 1698l344 319l111 -131l-375 -282z" />
<glyph unicode="&#xde;" horiz-adv-x="1189" d="M217 0v1495h180v-283h254q453 0 453 -467q0 -464 -453 -464h-254v-281h-180zM397 436h244q84 0 142 24.5t87.5 69.5t41.5 96.5t12 118.5q0 54 -7 97t-26 84.5t-49.5 69t-81.5 44.5t-119 17h-244v-621z" />
<glyph unicode="&#xdf;" horiz-adv-x="1314" d="M238 0v1133q0 193 119 301t333 108q221 0 336 -107.5t115 -293.5q0 -102 -48 -190.5t-128 -145.5q136 -27 216.5 -132t80.5 -274q0 -90 -22 -165.5t-67 -135.5t-120.5 -93.5t-175.5 -33.5q-188 0 -272.5 102t-84.5 302h148q0 -131 45 -194.5t161 -63.5q57 0 99 24t66 66 t35 92t11 109q0 70 -12 122t-39 94t-77 63.5t-121 21.5h-228v133h131q74 0 127 44t76 108.5t23 140.5q0 125 -70 193.5t-211 68.5q-132 0 -201 -69.5t-69 -194.5v-1133h-176z" />
<glyph unicode="&#xe0;" horiz-adv-x="1200" d="M109 272q0 69 17 120t60.5 98.5t127 81t208.5 53.5l305 49v117q0 79 -18.5 133.5t-53.5 82t-75.5 39t-93.5 11.5q-112 0 -180 -57t-89 -162l-143 43q33 151 137.5 235t278.5 84q73 0 131 -10t112.5 -37.5t90.5 -72t58 -118t22 -171.5v-791h-117l-45 182 q-197 -211 -432 -211q-157 0 -229 82.5t-72 218.5zM283 276q0 -76 43 -123t133 -47q106 0 194 53t174 146v246l-288 -49q-145 -26 -200.5 -83.5t-55.5 -142.5zM350 1563l111 131l344 -320l-80 -94z" />
<glyph unicode="&#xe1;" horiz-adv-x="1200" d="M109 272q0 69 17 120t60.5 98.5t127 81t208.5 53.5l305 49v117q0 79 -18.5 133.5t-53.5 82t-75.5 39t-93.5 11.5q-112 0 -180 -57t-89 -162l-143 43q33 151 137.5 235t278.5 84q73 0 131 -10t112.5 -37.5t90.5 -72t58 -118t22 -171.5v-791h-117l-45 182 q-197 -211 -432 -211q-157 0 -229 82.5t-72 218.5zM283 276q0 -76 43 -123t133 -47q106 0 194 53t174 146v246l-288 -49q-145 -26 -200.5 -83.5t-55.5 -142.5zM453 1374l344 320l110 -131l-375 -283z" />
<glyph unicode="&#xe2;" horiz-adv-x="1200" d="M109 272q0 69 17 120t60.5 98.5t127 81t208.5 53.5l305 49v117q0 79 -18.5 133.5t-53.5 82t-75.5 39t-93.5 11.5q-112 0 -180 -57t-89 -162l-143 43q33 151 137.5 235t278.5 84q73 0 131 -10t112.5 -37.5t90.5 -72t58 -118t22 -171.5v-791h-117l-45 182 q-197 -211 -432 -211q-157 0 -229 82.5t-72 218.5zM270 1368l275 313h76l274 -313l-74 -74l-239 197l-238 -197zM283 276q0 -76 43 -123t133 -47q106 0 194 53t174 146v246l-288 -49q-145 -26 -200.5 -83.5t-55.5 -142.5z" />
<glyph unicode="&#xe3;" horiz-adv-x="1200" d="M109 272q0 69 17 120t60.5 98.5t127 81t208.5 53.5l305 49v117q0 79 -18.5 133.5t-53.5 82t-75.5 39t-93.5 11.5q-112 0 -180 -57t-89 -162l-143 43q33 151 137.5 235t278.5 84q73 0 131 -10t112.5 -37.5t90.5 -72t58 -118t22 -171.5v-791h-117l-45 182 q-197 -211 -432 -211q-157 0 -229 82.5t-72 218.5zM244 1399q31 111 77 157t111 46q51 0 152 -37t127 -37q37 0 57.5 21t36.5 69l115 -37q-31 -110 -77.5 -156.5t-111.5 -46.5q-51 0 -150.5 37t-127.5 37q-36 0 -56.5 -21.5t-36.5 -68.5zM283 276q0 -76 43 -123t133 -47 q106 0 194 53t174 146v246l-288 -49q-145 -26 -200.5 -83.5t-55.5 -142.5z" />
<glyph unicode="&#xe4;" horiz-adv-x="1200" d="M109 272q0 69 17 120t60.5 98.5t127 81t208.5 53.5l305 49v117q0 79 -18.5 133.5t-53.5 82t-75.5 39t-93.5 11.5q-112 0 -180 -57t-89 -162l-143 43q33 151 137.5 235t278.5 84q73 0 131 -10t112.5 -37.5t90.5 -72t58 -118t22 -171.5v-791h-117l-45 182 q-197 -211 -432 -211q-157 0 -229 82.5t-72 218.5zM283 276q0 -76 43 -123t133 -47q106 0 194 53t174 146v246l-288 -49q-145 -26 -200.5 -83.5t-55.5 -142.5zM297 1481q0 26 2.5 42t11.5 35.5t30.5 29t55.5 9.5q36 0 58.5 -9.5t32 -28.5t12 -35.5t2.5 -42.5t-2.5 -42 t-12 -35t-32 -28.5t-58.5 -9.5q-34 0 -55.5 9.5t-30.5 28.5t-11.5 35t-2.5 42zM731 1481q0 26 2.5 42t11.5 35.5t30.5 29t55.5 9.5q36 0 58.5 -9.5t32 -28.5t12 -35.5t2.5 -42.5t-2.5 -42t-12 -35t-32 -28.5t-58.5 -9.5q-34 0 -55.5 9.5t-30.5 28.5t-11.5 35t-2.5 42z" />
<glyph unicode="&#xe5;" horiz-adv-x="1200" d="M109 272q0 69 17 120t60.5 98.5t127 81t208.5 53.5l305 49v117q0 79 -18.5 133.5t-53.5 82t-75.5 39t-93.5 11.5q-112 0 -180 -57t-89 -162l-143 43q33 151 137.5 235t278.5 84q73 0 131 -10t112.5 -37.5t90.5 -72t58 -118t22 -171.5v-791h-117l-45 182 q-197 -211 -432 -211q-157 0 -229 82.5t-72 218.5zM283 276q0 -76 43 -123t133 -47q106 0 194 53t174 146v246l-288 -49q-145 -26 -200.5 -83.5t-55.5 -142.5zM412 1485q0 39 8.5 72.5t29.5 68t65 54.5t106 20q65 0 109.5 -20t65.5 -54.5t29.5 -68t8.5 -72.5q0 -30 -4.5 -57 t-18.5 -56.5t-36.5 -50.5t-62 -35t-91.5 -14q-63 0 -106.5 20t-64.5 53.5t-29.5 67t-8.5 72.5zM530 1485q0 -117 91 -117q96 0 96 117t-96 117q-91 0 -91 -117z" />
<glyph unicode="&#xe6;" horiz-adv-x="1900" d="M106 272q0 68 17.5 120t61 100t127 82.5t206.5 56.5l305 53v107q0 64 -12.5 111.5t-33.5 77t-53 47t-65.5 24t-76.5 6.5q-109 0 -179 -57.5t-90 -161.5l-141 41q33 153 135.5 237t278.5 84q127 0 217 -36t141 -124q124 160 373 160q114 0 200.5 -33t139.5 -86.5t86 -132 t45 -159.5t12 -179v-43h-799q2 -242 73.5 -347t250.5 -105q159 0 230 62t81 173l146 -8q-38 -371 -457 -371q-172 0 -279.5 62.5t-160.5 187.5q-103 -118 -217.5 -184t-253.5 -66q-157 0 -232.5 83t-75.5 218zM279 274q0 -75 44 -121.5t136 -46.5q107 0 208 61t183 159 q-23 138 -23 225l-290 -53q-147 -27 -202.5 -83.5t-55.5 -140.5zM1006 698h618q-5 83 -21 143.5t-49 111.5t-93 77.5t-146 26.5q-81 0 -139.5 -27t-93 -78t-52.5 -112.5t-24 -141.5z" />
<glyph unicode="&#xe7;" horiz-adv-x="1126" d="M111 586q0 103 12 187t44.5 166t85.5 137.5t139.5 89.5t201.5 34q117 0 200.5 -25.5t133.5 -75t75 -113t31 -148.5l-141 -21q-6 119 -72.5 179.5t-220.5 60.5q-76 0 -133 -26t-90.5 -68.5t-54.5 -106t-28 -127t-7 -143.5t7 -143.5t28 -127t54.5 -106t90.5 -68.5t133 -26 q154 0 220.5 60t72.5 179l143 -6q-7 -88 -32.5 -154.5t-75.5 -118t-133.5 -78t-200.5 -26.5q-115 0 -201.5 34.5t-139.5 90t-85.5 137.5t-44.5 166.5t-12 186.5zM354 -291h135q0 -45 15 -66.5t67 -21.5q50 0 65 22t15 66q0 45 -19 66t-71 30l-110 21l14 72h86q55 0 93 -7.5 t70.5 -27t48 -58.5t15.5 -98q0 -99 -46.5 -150t-166.5 -51q-118 0 -164.5 52.5t-46.5 150.5z" />
<glyph unicode="&#xe8;" horiz-adv-x="1183" d="M111 586q0 614 489 614q114 0 200.5 -33t139.5 -86.5t86 -132t45 -159.5t12 -179v-43h-798q1 -122 17 -204.5t53.5 -139t99 -82.5t153.5 -26q159 0 230.5 62t81.5 173l145 -8q-38 -371 -457 -371q-137 0 -233.5 39.5t-154 120t-83.5 191.5t-26 264zM289 698h618 q-5 83 -21 143.5t-49 111.5t-93 77.5t-146 26.5q-81 0 -139.5 -27t-93 -78t-52.5 -112.5t-24 -141.5zM377 1563l110 131l344 -320l-79 -94z" />
<glyph unicode="&#xe9;" horiz-adv-x="1183" d="M111 586q0 614 489 614q114 0 200.5 -33t139.5 -86.5t86 -132t45 -159.5t12 -179v-43h-798q1 -122 17 -204.5t53.5 -139t99 -82.5t153.5 -26q159 0 230.5 62t81.5 173l145 -8q-38 -371 -457 -371q-137 0 -233.5 39.5t-154 120t-83.5 191.5t-26 264zM289 698h618 q-5 83 -21 143.5t-49 111.5t-93 77.5t-146 26.5q-81 0 -139.5 -27t-93 -78t-52.5 -112.5t-24 -141.5zM463 1374l344 320l111 -131l-375 -283z" />
<glyph unicode="&#xea;" horiz-adv-x="1183" d="M111 586q0 614 489 614q114 0 200.5 -33t139.5 -86.5t86 -132t45 -159.5t12 -179v-43h-798q1 -122 17 -204.5t53.5 -139t99 -82.5t153.5 -26q159 0 230.5 62t81.5 173l145 -8q-38 -371 -457 -371q-137 0 -233.5 39.5t-154 120t-83.5 191.5t-26 264zM289 698h618 q-5 83 -21 143.5t-49 111.5t-93 77.5t-146 26.5q-81 0 -139.5 -27t-93 -78t-52.5 -112.5t-24 -141.5zM297 1368l274 313h76l275 -313l-74 -74l-240 197l-237 -197z" />
<glyph unicode="&#xeb;" horiz-adv-x="1167" d="M94 586q0 614 490 614q114 0 200.5 -33t139.5 -86.5t86 -132t45 -159.5t12 -179v-43h-799q2 -242 73.5 -347t250.5 -105q159 0 230 62t81 173l146 -8q-38 -371 -457 -371q-137 0 -234 39.5t-154.5 120t-83.5 191.5t-26 264zM272 698h619q-5 83 -21 143.5t-49 111.5 t-93 77.5t-146 26.5q-81 0 -140 -27t-93.5 -78t-52.5 -112.5t-24 -141.5zM272 1481q0 26 2.5 42.5t11.5 35.5t31 28.5t56 9.5q36 0 58.5 -9.5t31.5 -29t11.5 -35.5t2.5 -42t-2.5 -42t-11.5 -35t-31.5 -28.5t-58.5 -9.5q-34 0 -56 9.5t-31 28.5t-11.5 35t-2.5 42zM707 1481 q0 26 2.5 42t11.5 35.5t30.5 29t55.5 9.5q36 0 58.5 -9.5t31.5 -29t11.5 -35.5t2.5 -42t-2.5 -42t-11.5 -35t-31.5 -28.5t-58.5 -9.5q-34 0 -55.5 9.5t-30.5 28.5t-11.5 35t-2.5 42z" />
<glyph unicode="&#xec;" horiz-adv-x="610" d="M53 1563l111 131l344 -320l-80 -94zM217 0v1171h176v-1171h-176z" />
<glyph unicode="&#xed;" horiz-adv-x="610" d="M113 1374l344 320l110 -131l-374 -283zM217 0v1171h176v-1171h-176z" />
<glyph unicode="&#xee;" horiz-adv-x="610" d="M-27 1368l275 313h76l274 -313l-74 -74l-239 197l-238 -197zM217 0v1171h176v-1171h-176z" />
<glyph unicode="&#xef;" horiz-adv-x="610" d="M-14 1481q0 26 2.5 42t11.5 35.5t30.5 29t55.5 9.5q36 0 58.5 -9.5t31.5 -29t11.5 -35.5t2.5 -42t-2.5 -42t-11.5 -35t-31.5 -28.5t-58.5 -9.5q-34 0 -55.5 9.5t-30.5 28.5t-11.5 35t-2.5 42zM217 0v1171h176v-1171h-176zM420 1481q0 26 2.5 42t11.5 35.5t30.5 29 t55.5 9.5q36 0 58.5 -9.5t32 -28.5t12 -35.5t2.5 -42.5t-2.5 -42t-12 -35t-32 -28.5t-58.5 -9.5q-34 0 -55.5 9.5t-30.5 28.5t-11.5 35t-2.5 42z" />
<glyph unicode="&#xf0;" horiz-adv-x="1236" d="M111 504q0 80 12.5 151t47.5 143t90 123t146.5 83t210.5 32q180 0 297 -114q-48 186 -147 335l-215 -86v129l141 56q-41 49 -102 106l86 103q79 -69 151 -154l252 102v-129l-178 -71q223 -326 223 -766v-43q0 -81 -13 -152t-48 -143t-90 -123t-146.5 -83t-210.5 -32 t-210.5 32t-146.5 83t-90 123t-47.5 143t-12.5 152zM287 504q0 -391 331 -391q332 0 332 391t-332 391q-331 0 -331 -391z" />
<glyph unicode="&#xf1;" horiz-adv-x="1339" d="M217 0v1171h105l49 -122q89 65 200 108t226 43q183 0 264.5 -91.5t81.5 -277.5v-831h-176v827q0 122 -47.5 176t-157.5 54q-191 0 -369 -137v-920h-176zM362 1399q31 110 77.5 156.5t111.5 46.5q51 0 151.5 -37t126.5 -37q37 0 58 21t37 69l114 -37q-31 -111 -77 -157 t-111 -46q-51 0 -151 37t-128 37q-35 0 -55.5 -21t-36.5 -69z" />
<glyph unicode="&#xf2;" horiz-adv-x="1236" d="M111 586q0 102 13 186.5t47.5 166t90 137.5t146 90t210.5 34q100 0 180.5 -23t135 -66t93 -98.5t59.5 -127t30.5 -143.5t9.5 -156q0 -102 -13 -186.5t-47.5 -166t-90 -138t-146.5 -90.5t-211 -34t-210.5 34t-146 90t-90 138t-47.5 166.5t-13 186.5zM287 586 q0 -56 3.5 -102.5t12.5 -96.5t24.5 -88.5t41 -74t59.5 -59t82 -37t108 -13.5q82 0 143 26.5t96.5 69t57 106t28.5 126.5t7 143t-7 143t-28.5 126.5t-57 106t-96.5 69t-143 26.5q-60 0 -108 -13.5t-82 -37t-59.5 -59t-41 -74t-24.5 -88.5t-12.5 -96.5t-3.5 -102.5zM387 1563 l111 131l344 -320l-80 -94z" />
<glyph unicode="&#xf3;" horiz-adv-x="1236" d="M111 586q0 102 13 186.5t47.5 166t90 137.5t146 90t210.5 34q100 0 180.5 -23t135 -66t93 -98.5t59.5 -127t30.5 -143.5t9.5 -156q0 -102 -13 -186.5t-47.5 -166t-90 -138t-146.5 -90.5t-211 -34t-210.5 34t-146 90t-90 138t-47.5 166.5t-13 186.5zM287 586 q0 -56 3.5 -102.5t12.5 -96.5t24.5 -88.5t41 -74t59.5 -59t82 -37t108 -13.5q82 0 143 26.5t96.5 69t57 106t28.5 126.5t7 143t-7 143t-28.5 126.5t-57 106t-96.5 69t-143 26.5q-60 0 -108 -13.5t-82 -37t-59.5 -59t-41 -74t-24.5 -88.5t-12.5 -96.5t-3.5 -102.5zM471 1374 l344 320l111 -131l-375 -283z" />
<glyph unicode="&#xf4;" horiz-adv-x="1236" d="M111 586q0 102 13 186.5t47.5 166t90 137.5t146 90t210.5 34q100 0 180.5 -23t135 -66t93 -98.5t59.5 -127t30.5 -143.5t9.5 -156q0 -102 -13 -186.5t-47.5 -166t-90 -138t-146.5 -90.5t-211 -34t-210.5 34t-146 90t-90 138t-47.5 166.5t-13 186.5zM287 586 q0 -56 3.5 -102.5t12.5 -96.5t24.5 -88.5t41 -74t59.5 -59t82 -37t108 -13.5q82 0 143 26.5t96.5 69t57 106t28.5 126.5t7 143t-7 143t-28.5 126.5t-57 106t-96.5 69t-143 26.5q-60 0 -108 -13.5t-82 -37t-59.5 -59t-41 -74t-24.5 -88.5t-12.5 -96.5t-3.5 -102.5zM305 1368 l275 313h75l275 -313l-74 -74l-240 197l-237 -197z" />
<glyph unicode="&#xf5;" horiz-adv-x="1236" d="M111 586q0 102 13 186.5t47.5 166t90 137.5t146 90t210.5 34q100 0 180.5 -23t135 -66t93 -98.5t59.5 -127t30.5 -143.5t9.5 -156q0 -102 -13 -186.5t-47.5 -166t-90 -138t-146.5 -90.5t-211 -34t-210.5 34t-146 90t-90 138t-47.5 166.5t-13 186.5zM281 1399 q31 111 77 157t111 46q51 0 152 -37t127 -37q37 0 57.5 21t36.5 69l114 -37q-31 -111 -77 -157t-111 -46q-51 0 -151 37t-128 37q-35 0 -55.5 -21t-36.5 -69zM287 586q0 -56 3.5 -102.5t12.5 -96.5t24.5 -88.5t41 -74t59.5 -59t82 -37t108 -13.5q82 0 143 26.5t96.5 69 t57 106t28.5 126.5t7 143t-7 143t-28.5 126.5t-57 106t-96.5 69t-143 26.5q-60 0 -108 -13.5t-82 -37t-59.5 -59t-41 -74t-24.5 -88.5t-12.5 -96.5t-3.5 -102.5z" />
<glyph unicode="&#xf6;" horiz-adv-x="1236" d="M111 586q0 102 13 186.5t47.5 166t90 137.5t146 90t210.5 34q100 0 180.5 -23t135 -66t93 -98.5t59.5 -127t30.5 -143.5t9.5 -156q0 -102 -13 -186.5t-47.5 -166t-90 -138t-146.5 -90.5t-211 -34t-210.5 34t-146 90t-90 138t-47.5 166.5t-13 186.5zM287 586 q0 -56 3.5 -102.5t12.5 -96.5t24.5 -88.5t41 -74t59.5 -59t82 -37t108 -13.5q82 0 143 26.5t96.5 69t57 106t28.5 126.5t7 143t-7 143t-28.5 126.5t-57 106t-96.5 69t-143 26.5q-60 0 -108 -13.5t-82 -37t-59.5 -59t-41 -74t-24.5 -88.5t-12.5 -96.5t-3.5 -102.5zM299 1481 q0 26 2.5 42t11.5 35.5t30.5 29t55.5 9.5q36 0 58.5 -9.5t32 -28.5t12 -35.5t2.5 -42.5t-2.5 -42t-12 -35t-32 -28.5t-58.5 -9.5q-34 0 -55.5 9.5t-30.5 28.5t-11.5 35t-2.5 42zM733 1481q0 26 2.5 42.5t11.5 35.5t31 28.5t56 9.5q36 0 58.5 -9.5t31.5 -29t11.5 -35.5 t2.5 -42t-2.5 -42t-11.5 -35t-31.5 -28.5t-58.5 -9.5q-34 0 -56 9.5t-31 28.5t-11.5 35t-2.5 42z" />
<glyph unicode="&#xf7;" horiz-adv-x="1187" d="M188 582v139h811v-139h-811zM487 297q0 22 1.5 37.5t7.5 34t16.5 30t31 19.5t48.5 8q36 0 59.5 -10.5t33 -32t12.5 -40t3 -46.5t-3 -46t-12.5 -39t-33 -31.5t-59.5 -10.5q-35 0 -57.5 10.5t-32 31.5t-12.5 39.5t-3 45.5zM487 983q0 22 1.5 37.5t7.5 34t16.5 30t31 19.5 t48.5 8q36 0 59.5 -10.5t33 -32t12.5 -40t3 -46.5t-3 -46t-12.5 -39t-33 -31.5t-59.5 -10.5q-35 0 -57.5 10.5t-32 31.5t-12.5 39.5t-3 45.5z" />
<glyph unicode="&#xf8;" horiz-adv-x="1236" d="M111 586q0 102 13 186.5t47.5 166t90 137.5t146 90t210.5 34q39 0 101 -8l57 213h125l-65 -242q290 -111 290 -577q0 -102 -13 -186.5t-47.5 -166t-90 -138t-146.5 -90.5t-211 -34q-54 0 -100 6l-57 -213h-123l63 242q-290 110 -290 580zM287 586q0 -158 32.5 -267 t122.5 -163l240 895q-30 6 -64 6q-60 0 -108 -13.5t-82 -37t-59.5 -59t-41 -74t-24.5 -88.5t-12.5 -96.5t-3.5 -102.5zM555 119q20 -4 63 -4q82 0 143 26.5t96.5 69t57 106t28.5 126.5t7 143q0 155 -33 264.5t-122 163.5z" />
<glyph unicode="&#xf9;" horiz-adv-x="1351" d="M197 336v835h176v-823q0 -122 52.5 -177.5t162.5 -55.5q200 0 370 202v854h177v-1171h-117l-55 174q-191 -203 -420 -203q-182 0 -264 91t-82 274zM393 1563l111 131l344 -320l-80 -94z" />
<glyph unicode="&#xfa;" horiz-adv-x="1351" d="M197 336v835h176v-823q0 -122 52.5 -177.5t162.5 -55.5q200 0 370 202v854h177v-1171h-117l-55 174q-191 -203 -420 -203q-182 0 -264 91t-82 274zM547 1374l344 320l110 -131l-374 -283z" />
<glyph unicode="&#xfb;" horiz-adv-x="1351" d="M197 336v835h176v-823q0 -122 52.5 -177.5t162.5 -55.5q200 0 370 202v854h177v-1171h-117l-55 174q-191 -203 -420 -203q-182 0 -264 91t-82 274zM375 1368l274 313h76l274 -313l-73 -74l-240 197l-237 -197z" />
<glyph unicode="&#xfc;" horiz-adv-x="1351" d="M197 336v835h176v-823q0 -122 52.5 -177.5t162.5 -55.5q200 0 370 202v854h177v-1171h-117l-55 174q-191 -203 -420 -203q-182 0 -264 91t-82 274zM367 1481q0 26 2.5 42t11.5 35.5t30.5 29t55.5 9.5q36 0 58.5 -9.5t31.5 -29t11.5 -35.5t2.5 -42t-2.5 -42t-11.5 -35 t-31.5 -28.5t-58.5 -9.5q-34 0 -55.5 9.5t-30.5 28.5t-11.5 35t-2.5 42zM801 1481q0 26 2.5 42t11.5 35.5t30.5 29t55.5 9.5q36 0 58.5 -9.5t32 -28.5t12 -35.5t2.5 -42.5t-2.5 -42t-12 -35t-32 -28.5t-58.5 -9.5q-34 0 -55.5 9.5t-30.5 28.5t-11.5 35t-2.5 42z" />
<glyph unicode="&#xfd;" horiz-adv-x="1110" d="M33 1171h182l346 -948l336 948h180l-622 -1673l-160 29l180 465zM391 1374l344 320l111 -131l-375 -283z" />
<glyph unicode="&#xfe;" horiz-adv-x="1288" d="M217 -455v1950l176 37v-457q70 55 156.5 90t173.5 35q107 0 188.5 -34t131.5 -90t81 -137.5t42.5 -166t11.5 -186.5t-11.5 -186.5t-42.5 -166t-81 -138t-131.5 -90.5t-188.5 -34q-165 0 -330 70v-496h-176zM393 182q138 -59 312 -59q296 0 296 463t-296 463 q-170 0 -312 -127v-740z" />
<glyph unicode="&#xff;" horiz-adv-x="1110" d="M33 1171h182l346 -948l336 948h180l-622 -1673l-160 29l180 465zM270 1481q0 26 2.5 42.5t11.5 35.5t31 28.5t56 9.5q36 0 58.5 -9.5t31.5 -29t11.5 -35.5t2.5 -42t-2.5 -42t-11.5 -35t-31.5 -28.5t-58.5 -9.5q-34 0 -56 9.5t-31 28.5t-11.5 35t-2.5 42zM705 1481 q0 26 2.5 42t11.5 35.5t30.5 29t55.5 9.5q36 0 58.5 -9.5t31.5 -29t11.5 -35.5t2.5 -42t-2.5 -42t-11.5 -35t-31.5 -28.5t-58.5 -9.5q-34 0 -55.5 9.5t-30.5 28.5t-11.5 35t-2.5 42z" />
<glyph unicode="&#x152;" horiz-adv-x="1980" d="M152 748q0 144 15 252.5t53.5 205t102.5 158t165.5 96.5t238.5 35h1118v-143h-704q81 -84 118.5 -213t43.5 -308h499v-143h-499q-6 -386 -160 -545h743v-143h-1159q-138 0 -239 35t-165 96t-102.5 157t-53.5 205.5t-15 254.5zM332 748q0 -117 10 -204.5t36.5 -165.5 t70.5 -127.5t113.5 -77.5t164.5 -28q94 0 163.5 28t114 77.5t71.5 127t37.5 166t10.5 204.5t-10.5 204.5t-37.5 165.5t-71.5 126.5t-114 77.5t-163.5 28q-95 0 -164.5 -28t-113.5 -77.5t-70.5 -127t-36.5 -165t-10 -204.5z" />
<glyph unicode="&#x153;" horiz-adv-x="2025" d="M111 586q0 102 13 186.5t47.5 166t90 137.5t146 90t210.5 34q297 0 418 -213q121 213 406 213q114 0 200.5 -33t139.5 -86.5t86 -132t45 -159.5t12 -179v-43h-799q3 -236 76 -344t248 -108q155 0 227.5 62t83.5 173l146 -8q-38 -371 -457 -371q-303 0 -416 207 q-123 -207 -416 -207q-120 0 -210.5 34t-146 90t-90 138t-47.5 166.5t-13 186.5zM287 586q0 -56 3.5 -102.5t12.5 -96.5t24.5 -88.5t41 -74t59.5 -59t82 -37t108 -13.5q79 0 138.5 24.5t96 65t59 99.5t30.5 120.5t8 136.5q0 69 -4.5 124t-16.5 115t-35.5 103.5t-59 80 t-90.5 55t-126 18.5q-60 0 -108 -13.5t-82 -37t-59.5 -59t-41 -74t-24.5 -88.5t-12.5 -96.5t-3.5 -102.5zM1130 698h619q-4 65 -14 115.5t-32 98t-55.5 78t-86 49t-121.5 18.5q-66 0 -117 -18.5t-84.5 -50t-57 -78.5t-35 -98t-16.5 -114z" />
<glyph unicode="&#x178;" horiz-adv-x="1126" d="M12 1495h185l366 -799l367 799h184l-461 -975v-520h-180v520zM244 1804q0 26 2.5 42.5t11.5 36t30.5 29t55.5 9.5q29 0 49.5 -7.5t31 -17.5t16.5 -27.5t7 -31t1 -33.5t-1 -33.5t-7 -30t-16.5 -26.5t-31 -17t-49.5 -7q-34 0 -55.5 9t-30.5 28t-11.5 35t-2.5 42zM678 1804 q0 26 2.5 42.5t11.5 36t30.5 29t55.5 9.5q29 0 49.5 -7.5t31 -17.5t16.5 -27.5t7 -31t1 -33.5t-1 -33.5t-7 -30t-16.5 -26.5t-31 -17t-49.5 -7q-34 0 -55.5 9t-30.5 28t-11.5 35t-2.5 42z" />
<glyph unicode="&#x2c6;" horiz-adv-x="813" d="M94 1368l275 313h75l275 -313l-74 -74l-239 197l-238 -197z" />
<glyph unicode="&#x2dc;" horiz-adv-x="831" d="M78 1399q31 111 77 157t111 46q51 0 152 -37t127 -37q37 0 57.5 21t36.5 69l115 -37q-31 -110 -77.5 -156.5t-111.5 -46.5q-51 0 -150.5 37t-127.5 37q-35 0 -55.5 -21t-36.5 -69z" />
<glyph unicode="&#x2000;" horiz-adv-x="1011" />
<glyph unicode="&#x2001;" horiz-adv-x="2023" />
<glyph unicode="&#x2002;" horiz-adv-x="1011" />
<glyph unicode="&#x2003;" horiz-adv-x="2023" />
<glyph unicode="&#x2004;" horiz-adv-x="674" />
<glyph unicode="&#x2005;" horiz-adv-x="505" />
<glyph unicode="&#x2006;" horiz-adv-x="337" />
<glyph unicode="&#x2007;" horiz-adv-x="337" />
<glyph unicode="&#x2008;" horiz-adv-x="252" />
<glyph unicode="&#x2009;" horiz-adv-x="404" />
<glyph unicode="&#x200a;" horiz-adv-x="112" />
<glyph unicode="&#x2010;" horiz-adv-x="999" d="M139 582v139h721v-139h-721z" />
<glyph unicode="&#x2011;" horiz-adv-x="999" d="M139 582v139h721v-139h-721z" />
<glyph unicode="&#x2012;" horiz-adv-x="999" d="M139 582v139h721v-139h-721z" />
<glyph unicode="&#x2013;" horiz-adv-x="1179" d="M139 582v139h901v-139h-901z" />
<glyph unicode="&#x2014;" horiz-adv-x="1861" d="M139 582v139h1583v-139h-1583z" />
<glyph unicode="&#x2018;" horiz-adv-x="575" d="M152 1231q0 59 20.5 117t46.5 97.5t62.5 78t54 53t35.5 27.5l53 -62q-40 -34 -61 -70.5t-21 -91.5q0 -20 13.5 -67.5t13.5 -81.5q0 -22 -1.5 -37.5t-7.5 -34t-16.5 -30t-31 -19.5t-48.5 -8q-36 0 -60 11t-34.5 31.5t-14 40t-3.5 46.5z" />
<glyph unicode="&#x2019;" horiz-adv-x="563" d="M152 1165q40 35 60.5 70.5t20.5 91.5q0 19 -13 67t-13 81q0 22 1.5 37t7 34t16.5 30.5t31 19.5t48 8q36 0 60 -11t35 -31.5t14.5 -40t3.5 -46.5q0 -58 -20.5 -116t-46.5 -97.5t-62 -78t-54.5 -53.5t-35.5 -28z" />
<glyph unicode="&#x201a;" horiz-adv-x="462" d="M68 -193q29 26 43.5 42.5t27.5 48.5t13 71q0 20 -14.5 68t-14.5 78q0 26 3 43.5t12.5 37.5t32 30t58.5 10q37 0 61 -10t34 -30t13 -37.5t3 -43.5q0 -58 -20.5 -115.5t-46.5 -96t-62.5 -77t-54 -53t-35.5 -27.5z" />
<glyph unicode="&#x201c;" horiz-adv-x="909" d="M152 1231q0 59 20.5 117t46.5 97.5t62.5 78t54 53t35.5 27.5l55 -62q-42 -36 -63 -71.5t-21 -90.5q0 -20 13.5 -67.5t13.5 -81.5q0 -27 -3 -46.5t-13 -40t-33 -31.5t-58 -11q-36 0 -59.5 11t-34 31.5t-13.5 39.5t-3 47zM485 1231q0 59 21 117.5t46.5 97.5t62.5 77.5 t54.5 52.5t35.5 28l53 -62q-40 -34 -61 -70.5t-21 -91.5q0 -20 13 -67.5t13 -81.5q0 -22 -1.5 -37t-7 -34t-16.5 -30.5t-31 -19.5t-48 -8q-36 0 -60 11t-35 31.5t-14.5 40t-3.5 46.5z" />
<glyph unicode="&#x201d;" horiz-adv-x="909" d="M152 1165q40 35 60.5 70.5t20.5 91.5q0 19 -13 67t-13 81q0 22 1.5 37t7 34t16.5 30.5t31 19.5t48 8q36 0 60 -11t35 -31.5t14.5 -40t3.5 -46.5q0 -58 -20.5 -116t-46.5 -97.5t-62 -78t-54.5 -53.5t-35.5 -28zM483 1165q42 37 63 71.5t21 90.5q0 19 -13 67t-13 81 q0 28 3 47t13 39.5t32.5 31.5t57.5 11q36 0 60 -11t34 -31.5t13.5 -40t3.5 -46.5q0 -58 -20.5 -116t-46.5 -97.5t-62 -78t-54.5 -53.5t-35.5 -28z" />
<glyph unicode="&#x201e;" horiz-adv-x="796" d="M68 -193q40 35 61 70.5t21 91.5q0 19 -13.5 67t-13.5 81q0 22 1.5 37t7 34t16.5 30.5t31 19.5t48 8q36 0 60 -11t35 -31.5t14.5 -40t3.5 -46.5q0 -58 -20.5 -116t-46.5 -97.5t-62 -78t-54.5 -53.5t-35.5 -28zM399 -193q42 37 63 71.5t21 90.5q0 19 -13 67t-13 81 q0 28 3 47t13 39.5t32.5 31.5t57.5 11q36 0 60 -11t34 -31.5t13.5 -40t3.5 -46.5q0 -58 -20.5 -116t-46.5 -97.5t-62 -78t-54.5 -53.5t-35.5 -28z" />
<glyph unicode="&#x2022;" horiz-adv-x="544" d="M104 676q0 41 4.5 68t19.5 58.5t50 47.5t90 16q46 0 78.5 -12t49.5 -29t26.5 -45t11.5 -49.5t2 -54.5t-2 -55t-11.5 -50t-26.5 -44.5t-49.5 -28t-78.5 -11.5q-44 0 -76 11.5t-48.5 28.5t-26 44.5t-11.5 49.5t-2 55z" />
<glyph unicode="&#x2026;" horiz-adv-x="1417" d="M123 109q0 28 3 46t12.5 39t33 31.5t59.5 10.5q38 0 62 -10.5t34.5 -31.5t13.5 -39.5t3 -45.5t-3 -45t-13.5 -38.5t-34.5 -31t-62 -10.5q-36 0 -59.5 10.5t-33 31t-12.5 38.5t-3 45zM598 109q0 27 3 45.5t13 39.5t33.5 31.5t59.5 10.5q38 0 62 -10.5t34 -31.5t13 -39 t3 -46q0 -27 -3 -45t-13 -38.5t-34 -31t-62 -10.5q-36 0 -59.5 10.5t-33.5 31t-13 38.5t-3 45zM1073 109q0 27 3 45.5t13 39.5t33.5 31.5t59.5 10.5q38 0 62 -10.5t34 -31.5t13 -39t3 -46q0 -27 -3 -45t-13 -38.5t-34 -31t-62 -10.5q-36 0 -59.5 10.5t-33.5 31t-13 38.5 t-3 45z" />
<glyph unicode="&#x202f;" horiz-adv-x="404" />
<glyph unicode="&#x2039;" horiz-adv-x="624" d="M57 608v74l351 385l106 -104l-250 -318l250 -317l-106 -105z" />
<glyph unicode="&#x203a;" horiz-adv-x="624" d="M111 328l249 317l-249 318l106 104l350 -385v-74l-350 -385z" />
<glyph unicode="&#x205f;" horiz-adv-x="505" />
<glyph unicode="&#x20ac;" horiz-adv-x="1290" d="M96 537v125h140q-3 43 -3 86q0 42 3 86h-140v124h146q10 101 30.5 183t60 155t96 122t140.5 77.5t191 28.5q216 0 332.5 -95.5t121.5 -273.5l-155 -8q0 110 -84.5 170.5t-214.5 60.5q-87 0 -150 -29t-102 -86.5t-60 -131t-30 -173.5h477v-124h-485v-172h485v-125h-477 q9 -101 30 -174.5t60 -130.5t102 -86t150 -29q132 0 216.5 61t84.5 174l153 -8q-3 -180 -119.5 -276.5t-334.5 -96.5q-107 0 -191 28.5t-140.5 77t-96 121.5t-60 155t-30.5 184h-146z" />
<glyph unicode="&#x2122;" horiz-adv-x="1982" d="M143 1374v121h598v-121h-229v-784h-139v784h-230zM905 590v905h201l217 -641l236 641h198v-905h-141v702l-230 -608h-131l-211 604v-698h-139z" />
<glyph unicode="&#x25fc;" horiz-adv-x="1167" d="M0 0v1167h1167v-1167h-1167z" />
</font>
</defs>
</svg>
